<svg width="20" height="21" viewBox="0 0 20 21" fill="none" xmlns="http://www.w3.org/2000/svg">
<path d="M16.4583 14.6665C16.4583 15.0117 16.1785 15.2915 15.8333 15.2915C15.4882 15.2915 15.2083 15.0117 15.2083 14.6665L15.2083 6.17539L4.60861 16.7751C4.36453 17.0192 3.9688 17.0192 3.72473 16.7751C3.48065 16.531 3.48065 16.1353 3.72473 15.8912L14.3245 5.2915L5.83333 5.2915C5.48816 5.2915 5.20833 5.01168 5.20833 4.6665C5.20833 4.32133 5.48816 4.0415 5.83333 4.0415H15.8333C15.9181 4.0415 15.9989 4.05837 16.0726 4.08893C16.1463 4.11943 16.2154 4.16464 16.2753 4.22456C16.3354 4.28464 16.3806 4.35391 16.4111 4.42784C16.4409 4.4997 16.4576 4.57831 16.4583 4.66073C16.4583 4.66266 16.4583 4.66458 16.4583 4.6665L16.4583 14.6665Z" fill="white"/>
</svg>
