<svg width="20" height="20" viewBox="0 0 20 20" fill="none" xmlns="http://www.w3.org/2000/svg">
<path d="M16.4584 14.1665C16.4584 14.5117 16.1785 14.7915 15.8334 14.7915C15.4882 14.7915 15.2084 14.5117 15.2084 14.1665L15.2084 5.67539L4.60863 16.2751C4.36455 16.5192 3.96882 16.5192 3.72475 16.2751C3.48067 16.031 3.48067 15.6353 3.72475 15.3912L14.3245 4.7915L5.83335 4.7915C5.48818 4.7915 5.20835 4.51168 5.20835 4.1665C5.20835 3.82133 5.48818 3.5415 5.83335 3.5415H15.8334C15.9181 3.5415 15.9989 3.55837 16.0726 3.58893C16.1463 3.61943 16.2154 3.66464 16.2753 3.72456C16.3354 3.78464 16.3807 3.85391 16.4112 3.92784C16.4409 3.9997 16.4576 4.07831 16.4583 4.16073C16.4583 4.16266 16.4584 4.16458 16.4584 4.1665L16.4584 14.1665Z" fill="#4824F9"/>
</svg>
