<svg width="16" height="17" viewBox="0 0 16 17" fill="none" xmlns="http://www.w3.org/2000/svg">
<path d="M13.1667 11.5835C13.1667 11.8596 12.9428 12.0835 12.6667 12.0835C12.3905 12.0835 12.1667 11.8596 12.1667 11.5835L12.1667 4.7906L3.68688 13.2704C3.49162 13.4656 3.17504 13.4656 2.97977 13.2704C2.78451 13.0751 2.78451 12.7585 2.97977 12.5633L11.4596 4.0835L4.66666 4.0835C4.39052 4.0835 4.16666 3.85964 4.16666 3.5835C4.16666 3.30735 4.39052 3.0835 4.66666 3.0835H12.6667C12.7345 3.0835 12.7991 3.09699 12.8581 3.12144C12.917 3.14584 12.9723 3.182 13.0202 3.22994C13.0683 3.27801 13.1045 3.33342 13.1289 3.39257C13.1527 3.45006 13.166 3.51294 13.1666 3.57888C13.1667 3.58042 13.1667 3.58196 13.1667 3.5835L13.1667 11.5835Z" fill="#00CC77"/>
</svg>
