<svg width="30" height="23" viewBox="0 0 30 23" fill="none" xmlns="http://www.w3.org/2000/svg">
<path d="M19.1352 0.332031C19.1139 0.332031 19.1139 0.332031 19.1352 0.332031C16.336 0.332031 13.7065 1.44985 11.7344 3.44438C10.7378 3.00602 9.63506 2.76493 8.51115 2.76493C3.97316 2.76493 0.283386 6.60057 0.283386 11.291C0.283386 15.9815 3.97316 19.8171 8.53234 19.8171C9.63506 19.8171 10.7378 19.576 11.7344 19.1377C13.6429 21.0664 16.2512 22.25 19.1139 22.25C24.9667 22.25 29.7168 17.3404 29.7168 11.291C29.7168 5.26358 24.9667 0.332031 19.1352 0.332031ZM19.1139 19.8171C14.5759 19.8171 10.865 15.9815 10.865 11.291H8.51115C8.51115 13.439 9.10489 15.4554 10.144 17.1431C9.61387 17.2965 9.06251 17.3842 8.51115 17.3842C5.26671 17.3842 2.616 14.6445 2.616 11.291C2.616 7.93757 5.26671 5.19782 8.51115 5.19782C9.80472 5.19782 11.0135 5.61426 12.0525 6.42523C13.5581 7.58688 14.4063 9.36224 14.4063 11.291H16.7601C16.7601 8.74853 15.6998 6.38139 13.8125 4.75946C15.297 3.48822 17.1631 2.76493 19.1139 2.76493C23.6519 2.76493 27.363 6.60057 27.363 11.291C27.363 15.9815 23.6732 19.8171 19.1139 19.8171Z" fill="#2C3357"/>
</svg>
