<svg width="30" height="23" viewBox="0 0 30 23" fill="none" xmlns="http://www.w3.org/2000/svg">
<path d="M28.0554 0.296997C28.8147 0.296997 29.4297 0.911977 29.4297 1.67125V5.10689H0.570312V1.67125C0.570312 0.911977 1.18529 0.296997 1.94457 0.296997H28.0554Z" fill="#CCCCCC"/>
<path d="M29.4297 3.73248H0.570312V20.9107C0.570312 21.67 1.18529 22.2849 1.94457 22.2849H28.0554C28.8147 22.2849 29.4297 21.67 29.4297 20.9107V3.73248Z" fill="url(#paint0_linear_2604_1291)"/>
<path d="M27.3681 3.04534C27.7476 3.04534 28.0552 2.7377 28.0552 2.35821C28.0552 1.97872 27.7476 1.67108 27.3681 1.67108C26.9886 1.67108 26.681 1.97872 26.681 2.35821C26.681 2.7377 26.9886 3.04534 27.3681 3.04534Z" fill="#999999"/>
<path d="M25.3067 3.04534C25.6862 3.04534 25.9938 2.7377 25.9938 2.35821C25.9938 1.97872 25.6862 1.67108 25.3067 1.67108C24.9272 1.67108 24.6196 1.97872 24.6196 2.35821C24.6196 2.7377 24.9272 3.04534 25.3067 3.04534Z" fill="#999999"/>
<path opacity="0.05" d="M23.7644 12.694L22.1688 9.7682C21.9881 9.43632 21.6404 9.22949 21.2618 9.22949H20.293C19.9652 9.22949 19.6698 9.39784 19.5028 9.67887C19.3351 9.9606 19.3289 10.3 19.4863 10.5886L20.9932 13.3523L19.4856 16.1152C19.3283 16.4038 19.3351 16.7432 19.5021 17.0243C19.6698 17.306 19.9645 17.4743 20.2923 17.4743H21.2611C21.6398 17.4743 21.9874 17.2675 22.1682 16.9356L23.7644 14.0098C23.9897 13.5983 23.9897 13.1063 23.7644 12.694Z" fill="#131212"/>
<path opacity="0.07" d="M23.4634 12.859L21.8672 9.93249C21.7462 9.71055 21.514 9.57312 21.2618 9.57312H20.2929C20.0875 9.57312 19.9027 9.67825 19.7982 9.85484C19.6931 10.0314 19.6897 10.2438 19.7879 10.4245L21.3848 13.3523L19.7879 16.2802C19.6897 16.4609 19.6931 16.6732 19.7982 16.8498C19.9027 17.0264 20.0875 17.1315 20.2929 17.1315H21.2618C21.514 17.1315 21.7462 16.9941 21.8672 16.7722L23.4634 13.8457C23.6317 13.5372 23.6317 13.1675 23.4634 12.859Z" fill="#131212"/>
<path opacity="0.05" d="M6.23559 12.694L7.83111 9.7682C8.01182 9.43632 8.35951 9.22949 8.73811 9.22949H9.70697C10.0347 9.22949 10.3302 9.39784 10.4972 9.67887C10.6648 9.9606 10.671 10.3 10.5137 10.5886L9.00678 13.3523L10.5143 16.1152C10.6717 16.4038 10.6648 16.7432 10.4978 17.0243C10.3302 17.3067 10.0347 17.475 9.70697 17.475H8.73811C8.35951 17.475 8.01182 17.2682 7.83111 16.9363L6.23491 14.0105C6.01022 13.5983 6.01022 13.1063 6.23559 12.694Z" fill="#131212"/>
<path opacity="0.07" d="M6.53673 12.859L8.13293 9.93249C8.25386 9.71055 8.48611 9.57312 8.73829 9.57312H9.70714C9.91259 9.57312 10.0974 9.67825 10.2019 9.85484C10.307 10.0314 10.3104 10.2438 10.2122 10.4245L8.61529 13.3523L10.2122 16.2802C10.3104 16.4609 10.307 16.6732 10.2019 16.8498C10.0974 17.0264 9.91259 17.1315 9.70714 17.1315H8.73829C8.48611 17.1315 8.25386 16.9941 8.13293 16.7722L6.53673 13.8457C6.36838 13.5372 6.36838 13.1675 6.53673 12.859Z" fill="#131212"/>
<path d="M21.7757 13.3523L20.0888 16.4443C20.0043 16.5989 20.1163 16.7879 20.2929 16.7879H21.2617C21.3882 16.7879 21.505 16.7185 21.5654 16.6079L23.1616 13.6814C23.2736 13.4766 23.2736 13.2286 23.1616 13.0231L21.5654 10.0967C21.505 9.98603 21.3882 9.91663 21.2617 9.91663H20.2929C20.117 9.91663 20.005 10.1049 20.0888 10.2602L21.7757 13.3523Z" fill="white"/>
<path d="M8.2244 13.3523L9.9113 16.4443C9.99582 16.5989 9.88382 16.7879 9.70722 16.7879H8.73837C8.61194 16.7879 8.49513 16.7185 8.43466 16.6079L6.83846 13.6814C6.72646 13.4766 6.72646 13.2286 6.83846 13.0231L8.43466 10.0967C8.49513 9.98603 8.61194 9.91663 8.73837 9.91663H9.70722C9.88313 9.91663 9.99513 10.1049 9.9113 10.2602L8.2244 13.3523Z" fill="white"/>
<path opacity="0.05" d="M18.2597 6.88642C18.0797 6.63219 17.787 6.48102 17.4764 6.48102H16.7364C16.3062 6.48102 15.9214 6.75312 15.7792 7.15784L11.6193 18.9462C11.5163 19.2389 11.5623 19.5646 11.7416 19.8195C11.921 20.0724 12.213 20.2236 12.5236 20.2236H13.2636C13.6938 20.2236 14.0792 19.9515 14.2208 19.5461L18.3813 7.75908C18.4837 7.46636 18.4384 7.13997 18.2597 6.88642Z" fill="#131212"/>
<path opacity="0.07" d="M17.9784 7.08426C17.8637 6.9221 17.6754 6.82452 17.4761 6.82452H16.7361C16.4516 6.82452 16.1974 7.00455 16.1033 7.27184L11.9427 19.0595C11.8767 19.2471 11.9056 19.4567 12.021 19.6195C12.1358 19.7817 12.3241 19.8793 12.5233 19.8793H13.2634C13.5485 19.8793 13.8028 19.6986 13.8962 19.4313L18.0568 7.64427C18.1227 7.45668 18.0932 7.24711 17.9784 7.08426Z" fill="#131212"/>
<path d="M17.4762 7.16815H16.7361C16.5973 7.16815 16.4736 7.25542 16.4276 7.38666L12.267 19.1743C12.2045 19.3509 12.3357 19.5365 12.5233 19.5365H13.2634C13.4022 19.5365 13.5259 19.4492 13.5719 19.3179L17.7324 7.53027C17.795 7.35368 17.6637 7.16815 17.4762 7.16815Z" fill="white"/>
<defs>
<linearGradient id="paint0_linear_2604_1291" x1="12.1759" y1="2.96015" x2="17.9093" y2="22.1716" gradientUnits="userSpaceOnUse">
<stop stop-color="#6E6E6E"/>
<stop offset="0.999" stop-color="#4D4D4D"/>
</linearGradient>
</defs>
</svg>
