<svg width="20" height="21" viewBox="0 0 20 21" fill="none" xmlns="http://www.w3.org/2000/svg">
<path d="M7.36997 17.1793C7.25827 17.5059 7.42865 17.8717 7.75052 17.9964C8.0724 18.1211 8.42389 17.9574 8.53559 17.6308L13.2614 3.81349C13.3731 3.48688 13.2027 3.12105 12.8808 2.99638C12.5589 2.87171 12.2075 3.03541 12.0958 3.36201L7.36997 17.1793Z" fill="white"/>
<path d="M5.44194 5.25595C5.68602 5.50003 5.68602 5.89575 5.44194 6.13983L2.55055 9.03122L5.44194 11.9226C5.68602 12.1667 5.68602 12.5624 5.44194 12.8065C5.19786 13.0506 4.80213 13.0506 4.55806 12.8065L1.22472 9.47316C1.10751 9.35595 1.04166 9.19698 1.04166 9.03122C1.04166 8.86546 1.10751 8.70649 1.22472 8.58928L4.55806 5.25595C4.80213 5.01187 5.19786 5.01187 5.44194 5.25595Z" fill="white"/>
<path d="M14.5581 8.58928C14.314 8.83336 14.314 9.22909 14.5581 9.47316L17.4494 12.3646L14.5581 15.2559C14.314 15.5 14.314 15.8958 14.5581 16.1398C14.8021 16.3839 15.1979 16.3839 15.4419 16.1398L18.7753 12.8065C18.8925 12.6893 18.9583 12.5303 18.9583 12.3646C18.9583 12.1988 18.8925 12.0398 18.7753 11.9226L15.4419 8.58928C15.1979 8.3452 14.8021 8.3452 14.5581 8.58928Z" fill="white"/>
</svg>
