<svg width="28" height="29" viewBox="0 0 28 29" fill="none" xmlns="http://www.w3.org/2000/svg">
<path d="M14.875 8.45768C14.875 7.97443 14.4832 7.58268 14 7.58268C13.5167 7.58268 13.125 7.97443 13.125 8.45768V8.82518C11.5157 9.14243 10.2083 10.428 10.2083 12.1698C10.3405 12.1698 10.2083 12.171 10.2083 12.171L10.2083 12.1723C10.2091 12.3489 10.2366 12.5248 10.276 12.6967C10.3399 12.9754 10.4678 13.3493 10.7269 13.7261C11.2784 14.5284 12.2981 15.166 14 15.166C15.2148 15.166 15.6534 15.589 15.831 15.8473C15.9366 16.0008 15.9909 16.1572 16.0182 16.2762C16.0316 16.3348 16.0376 16.3805 16.0402 16.4066L16.0416 16.4241C16.0346 17.2886 15.2595 18.0827 14.0972 18.0827C13.2844 18.0827 12.6115 17.6925 12.3076 17.2151C12.0481 16.8074 11.5072 16.6873 11.0996 16.9468C10.6919 17.2063 10.5718 17.7472 10.8313 18.1548C11.3332 18.9432 12.1752 19.4937 13.125 19.719V20.1244C13.125 20.6076 13.5167 20.9994 14 20.9994C14.4832 20.9994 14.875 20.6076 14.875 20.1244V19.7568C16.4843 19.4396 17.7917 18.154 17.7917 16.4122L17.7917 16.4098C17.7821 16.3255 17.7804 16.2775 17.779 16.2362C17.7764 16.1593 17.7745 16.1058 17.724 15.8853C17.6601 15.6066 17.5322 15.2327 17.2731 14.8559C16.7216 14.0537 15.7019 13.416 14 13.416C12.7852 13.416 12.3466 12.9931 12.169 12.7347C12.0634 12.5812 12.0091 12.4248 11.9818 12.3058C11.9684 12.2473 11.9624 12.2015 11.9598 12.1754L11.9584 12.158C11.9654 11.2934 12.7405 10.4993 13.9028 10.4993C14.7156 10.4993 15.3885 10.8895 15.6924 11.367C15.9519 11.7746 16.4928 11.8947 16.9004 11.6352C17.3081 11.3757 17.4282 10.8349 17.1687 10.4272C16.6668 9.63884 15.8248 9.08835 14.875 8.86304V8.45768Z" fill="#4824F9"/>
<path fill-rule="evenodd" clip-rule="evenodd" d="M14 25.666C20.2822 25.666 25.375 20.5733 25.375 14.291C25.375 8.00878 20.2822 2.91602 14 2.91602C7.71776 2.91602 2.625 8.00878 2.625 14.291C2.625 20.5733 7.71776 25.666 14 25.666ZM23.625 14.291C23.625 19.6068 19.3157 23.916 14 23.916C8.68426 23.916 4.375 19.6068 4.375 14.291C4.375 8.97528 8.68426 4.66602 14 4.66602C19.3157 4.66602 23.625 8.97528 23.625 14.291Z" fill="#4824F9"/>
</svg>
