<svg width="28" height="29" viewBox="0 0 28 29" fill="none" xmlns="http://www.w3.org/2000/svg">
<path d="M11.0134 10.253C11.3551 9.91133 11.3551 9.35731 11.0134 9.0156C10.6717 8.67389 10.1177 8.67389 9.77596 9.0156L7.43386 11.3577C7.41743 11.3718 7.40141 11.3866 7.38582 11.4021C7.21351 11.5736 7.12754 11.799 7.12803 12.0243C7.12759 12.2488 7.21302 12.4734 7.38431 12.6447C7.39984 12.6602 7.41581 12.675 7.43218 12.6892L9.77446 15.0429C10.1153 15.3854 10.6693 15.3868 11.0119 15.0459C11.3544 14.705 11.3558 14.151 11.0149 13.8085L9.24077 12.0257L11.0134 10.253Z" fill="#4824F9"/>
<path d="M18.224 9.01559C17.8822 8.67389 17.3282 8.67389 16.9865 9.0156C16.6448 9.35732 16.6448 9.91133 16.9865 10.253L18.7592 12.0257L16.985 13.8085C16.6441 14.151 16.6455 14.705 16.988 15.0459C17.3306 15.3868 17.8846 15.3854 18.2255 15.0429L20.5678 12.6892C20.5841 12.675 20.6001 12.6602 20.6157 12.6447C20.7872 12.4731 20.8727 12.248 20.8719 12.0231C20.8721 11.7982 20.7861 11.5733 20.6141 11.4021C20.5985 11.3866 20.5825 11.3718 20.5661 11.3577L18.224 9.01559Z" fill="#4824F9"/>
<path d="M15.6123 8.54681C15.7163 8.07489 15.4181 7.60799 14.9462 7.50397C14.4743 7.39995 14.0074 7.69819 13.9033 8.17012L12.3167 15.3684C12.2127 15.8403 12.5109 16.3072 12.9828 16.4113C13.4548 16.5153 13.9216 16.217 14.0257 15.7451L15.6123 8.54681Z" fill="#4824F9"/>
<path fill-rule="evenodd" clip-rule="evenodd" d="M1.45833 6.12435C1.45833 4.35244 2.89475 2.91602 4.66666 2.91602H23.3333C25.1052 2.91602 26.5417 4.35244 26.5417 6.12435V17.791C26.5417 19.5629 25.1052 20.9993 23.3333 20.9993H16.7696L17.7418 23.916H19.8333C20.3166 23.916 20.7083 24.3078 20.7083 24.791C20.7083 25.2743 20.3166 25.666 19.8333 25.666H8.16666C7.68341 25.666 7.29166 25.2743 7.29166 24.791C7.29166 24.3078 7.68341 23.916 8.16666 23.916H10.2582L11.2304 20.9993H4.66666C2.89475 20.9993 1.45833 19.5629 1.45833 17.791V6.12435ZM4.66666 4.66602C3.86125 4.66602 3.20833 5.31893 3.20833 6.12435V17.791C3.20833 18.5964 3.86125 19.2493 4.66666 19.2493H23.3333C24.1387 19.2493 24.7917 18.5964 24.7917 17.791V6.12435C24.7917 5.31893 24.1387 4.66602 23.3333 4.66602H4.66666ZM15.8971 23.916L14.9249 20.9993H13.0751L12.1029 23.916H15.8971Z" fill="#4824F9"/>
</svg>
