<svg width="28" height="29" viewBox="0 0 28 29" fill="none" xmlns="http://www.w3.org/2000/svg">
<path d="M7.29167 18.7292C7.29167 18.246 7.68342 17.8542 8.16667 17.8542H11.6667C12.1499 17.8542 12.5417 18.246 12.5417 18.7292C12.5417 19.2125 12.1499 19.6042 11.6667 19.6042H8.16667C7.68342 19.6042 7.29167 19.2125 7.29167 18.7292Z" fill="#00CC77"/>
<path fill-rule="evenodd" clip-rule="evenodd" d="M5.1476 22.6444C3.17784 21.0999 2.625 18.3434 2.625 14.0626C2.625 9.78173 3.17784 7.02525 5.1476 5.48078C6.11863 4.71941 7.34591 4.32566 8.78568 4.11209C10.2232 3.89886 11.9579 3.85425 14 3.85425C16.0517 3.85425 17.7908 3.92661 19.2354 4.177C20.6835 4.428 21.9042 4.86879 22.8666 5.6562C24.8149 7.25029 25.375 9.98116 25.375 14.0626C25.375 18.144 24.8149 20.8749 22.8666 22.469C21.9042 23.2564 20.6835 23.6972 19.2354 23.9482C17.7908 24.1986 16.0517 24.2709 14 24.2709C11.9579 24.2709 10.2232 24.2263 8.78568 24.0131C7.34591 23.7995 6.11863 23.4058 5.1476 22.6444ZM9.04245 22.282C10.3393 22.4744 11.9588 22.5209 14 22.5209C16.0317 22.5209 17.6467 22.4474 18.9365 22.2239C20.2228 22.0009 21.1166 21.6396 21.7584 21.1145C23.0184 20.0836 23.625 18.1478 23.625 14.0626C23.625 13.0574 23.5883 12.1823 23.5141 11.4189C23.4558 11.4311 23.3953 11.4376 23.3333 11.4376H4.66667C4.60082 11.4376 4.53667 11.4303 4.47497 11.4165C4.40828 12.1801 4.375 13.0559 4.375 14.0626C4.375 18.3859 4.98883 20.2961 6.2274 21.2672C6.86054 21.7637 7.74784 22.09 9.04245 22.282ZM4.72043 9.68758C5.02292 8.26244 5.52458 7.409 6.2274 6.85792C6.86054 6.36149 7.74784 6.03518 9.04245 5.84315C10.3393 5.65078 11.9588 5.60425 14 5.60425C16.0317 5.60425 17.6467 5.67772 18.9365 5.90129C20.2228 6.12425 21.1166 6.48554 21.7584 7.01063C22.4422 7.57011 22.9336 8.39612 23.24 9.68758H4.72043Z" fill="#00CC77"/>
</svg>
