<svg width="20" height="21" viewBox="0 0 20 21" fill="none" xmlns="http://www.w3.org/2000/svg">
<path d="M5.20833 13.8335C5.20833 13.4883 5.48816 13.2085 5.83333 13.2085H8.33333C8.67851 13.2085 8.95833 13.4883 8.95833 13.8335C8.95833 14.1787 8.67851 14.4585 8.33333 14.4585H5.83333C5.48816 14.4585 5.20833 14.1787 5.20833 13.8335Z" fill="white"/>
<path fill-rule="evenodd" clip-rule="evenodd" d="M3.67686 16.63C2.26988 15.5268 1.875 13.5579 1.875 10.5002C1.875 7.44241 2.26988 5.4735 3.67686 4.3703C4.37045 3.82647 5.24708 3.54522 6.27548 3.39267C7.30225 3.24036 8.54136 3.2085 10 3.2085C11.4655 3.2085 12.7077 3.26018 13.7396 3.43903C14.7739 3.61832 15.6459 3.93317 16.3333 4.49561C17.7249 5.63424 18.125 7.58486 18.125 10.5002C18.125 13.4155 17.7249 15.3661 16.3333 16.5047C15.6459 17.0672 14.7739 17.382 13.7396 17.5613C12.7077 17.7401 11.4655 17.7918 10 17.7918C8.54136 17.7918 7.30225 17.76 6.27548 17.6077C5.24708 17.4551 4.37045 17.1739 3.67686 16.63ZM6.45889 16.3712C7.38525 16.5086 8.54197 16.5418 10 16.5418C11.4512 16.5418 12.6048 16.4893 13.5261 16.3297C14.4449 16.1704 15.0833 15.9123 15.5417 15.5373C16.4417 14.8009 16.875 13.4182 16.875 10.5002C16.875 9.78217 16.8488 9.15713 16.7958 8.6118C16.7541 8.62056 16.7109 8.62516 16.6667 8.62516H3.33333C3.2863 8.62516 3.24048 8.61997 3.19641 8.61012C3.14877 9.15555 3.125 9.78113 3.125 10.5002C3.125 13.5882 3.56345 14.9527 4.44814 15.6463C4.90039 16.0009 5.53417 16.234 6.45889 16.3712ZM3.37174 7.37516C3.5878 6.3572 3.94613 5.7476 4.44814 5.35398C4.90039 4.99938 5.53417 4.76631 6.45889 4.62914C7.38525 4.49173 8.54197 4.4585 10 4.4585C11.4512 4.4585 12.6048 4.51098 13.5261 4.67067C14.4449 4.82992 15.0833 5.08799 15.5417 5.46305C16.0302 5.86269 16.3811 6.45269 16.6 7.37516H3.37174Z" fill="white"/>
</svg>
