<svg width="18" height="17" viewBox="0 0 18 17" fill="none" xmlns="http://www.w3.org/2000/svg">
<path fill-rule="evenodd" clip-rule="evenodd" d="M9.75108 3.80093C10.0505 3.63385 10.286 3.37211 10.4206 3.05676C10.5553 2.74141 10.5814 2.3903 10.495 2.05848C10.4086 1.72667 10.2144 1.43293 9.94307 1.22333C9.6717 1.01374 9.33843 0.900156 8.99555 0.900391C8.65266 0.900626 8.31955 1.01467 8.04846 1.22463C7.77738 1.43459 7.58365 1.7286 7.49768 2.06053C7.4117 2.39247 7.43833 2.74355 7.5734 3.05871C7.70847 3.37388 7.94432 3.63529 8.24398 3.80196C7.4574 5.95526 6.60474 7.01127 5.81506 7.09901C4.92525 7.19708 4.15002 6.80998 3.42021 5.84997C3.37702 5.79319 3.32672 5.74219 3.27053 5.69823C3.47922 5.41901 3.58758 5.07755 3.57809 4.72909C3.5686 4.38064 3.4418 4.04558 3.21823 3.77814C2.99465 3.5107 2.68737 3.32652 2.34611 3.25542C2.00486 3.18431 1.64959 3.23044 1.33781 3.38633C1.02602 3.54222 0.775962 3.79876 0.628092 4.11443C0.480222 4.4301 0.443193 4.78642 0.522999 5.12575C0.602805 5.46508 0.794775 5.76755 1.06784 5.98422C1.34091 6.20088 1.6791 6.31907 2.02769 6.31965C2.02769 6.37952 2.03698 6.44352 2.05246 6.50753L3.30769 11.5285C3.43339 12.0309 3.72344 12.477 4.13174 12.7957C4.54004 13.1144 5.04316 13.2875 5.56113 13.2874H12.4339C12.9519 13.2875 13.455 13.1144 13.8633 12.7957C14.2716 12.477 14.5617 12.0309 14.6874 11.5285L15.9426 6.50753C15.958 6.44604 15.9663 6.38301 15.9674 6.31965C16.316 6.3193 16.6543 6.20131 16.9275 5.98478C17.2008 5.76824 17.3929 5.46583 17.4729 5.1265C17.5529 4.78717 17.516 4.43078 17.3683 4.11501C17.2205 3.79924 16.9705 3.54258 16.6588 3.38656C16.347 3.23055 15.9917 3.18431 15.6504 3.25534C15.309 3.32637 15.0017 3.5105 14.778 3.77794C14.5544 4.04538 14.4275 4.38046 14.418 4.72896C14.4085 5.07746 14.5169 5.41898 14.7256 5.69823C14.6734 5.73893 14.6263 5.78572 14.5852 5.83759C13.8182 6.80275 13.0368 7.19398 12.18 7.09901C11.4264 7.01437 10.5697 5.95526 9.75108 3.80196V3.80093Z" fill="white"/>
<path d="M13.6432 15.352H4.3528C4.14747 15.352 3.95055 15.4336 3.80536 15.5788C3.66017 15.7239 3.5786 15.9209 3.5786 16.1262C3.5786 16.3315 3.66017 16.5284 3.80536 16.6736C3.95055 16.8188 4.14747 16.9004 4.3528 16.9004H13.6432C13.8485 16.9004 14.0454 16.8188 14.1906 16.6736C14.3358 16.5284 14.4174 16.3315 14.4174 16.1262C14.4174 15.9209 14.3358 15.7239 14.1906 15.5788C14.0454 15.4336 13.8485 15.352 13.6432 15.352Z" fill="white"/>
</svg>
