<svg width="46" height="43" viewBox="0 0 46 43" fill="none" xmlns="http://www.w3.org/2000/svg">
<path fill-rule="evenodd" clip-rule="evenodd" d="M24.9782 7.7643C25.7642 7.32573 26.3824 6.63866 26.7358 5.81087C27.0892 4.98308 27.1578 4.06139 26.9309 3.19038C26.7041 2.31936 26.1945 1.5483 25.4821 0.998118C24.7698 0.44794 23.895 0.149775 22.9949 0.150392C22.0948 0.151008 21.2204 0.45037 20.5088 1.00152C19.7972 1.55268 19.2887 2.32444 19.063 3.19576C18.8373 4.06709 18.9072 4.98868 19.2617 5.81599C19.6163 6.64329 20.2354 7.32951 21.022 7.76701C18.9572 13.4194 16.719 16.1914 14.6461 16.4218C12.3104 16.6792 10.2754 15.6631 8.35962 13.143C8.24625 12.994 8.1142 12.8601 7.96672 12.7447C8.51452 12.0118 8.79897 11.1154 8.77406 10.2007C8.74914 9.28604 8.4163 8.40651 7.82941 7.70448C7.24252 7.00244 6.43591 6.51899 5.54011 6.33234C4.64431 6.14569 3.71174 6.26677 2.89331 6.67599C2.07488 7.0852 1.41847 7.75861 1.03031 8.58724C0.642151 9.41587 0.544952 10.3512 0.754441 11.242C0.963931 12.1327 1.46785 12.9267 2.18466 13.4954C2.90146 14.0642 3.78921 14.3744 4.70425 14.376C4.70425 14.5331 4.72864 14.7011 4.76928 14.8691L8.06427 28.0491C8.39421 29.3681 9.15559 30.539 10.2274 31.3756C11.2992 32.2122 12.6199 32.6665 13.9795 32.6664H32.0207C33.3803 32.6665 34.701 32.2122 35.7728 31.3756C36.8446 30.539 37.606 29.3681 37.9359 28.0491L41.2309 14.8691C41.2712 14.7077 41.293 14.5423 41.2959 14.376C42.2111 14.375 43.0991 14.0653 43.8164 13.4969C44.5336 12.9285 45.038 12.1347 45.248 11.2439C45.4579 10.3532 45.3612 9.41766 44.9733 8.58877C44.5854 7.75987 43.9292 7.08613 43.1108 6.67659C42.2924 6.26705 41.3597 6.14568 40.4638 6.33213C39.5678 6.51858 38.761 7.00193 38.1739 7.70396C37.5868 8.40598 37.2538 9.28558 37.2288 10.2004C37.2038 11.1152 37.4883 12.0117 38.0362 12.7447C37.8992 12.8516 37.7755 12.9744 37.6677 13.1105C35.6544 15.6441 33.6031 16.6711 31.3541 16.4218C29.376 16.1996 27.127 13.4194 24.9782 7.76701V7.7643Z" fill="#FBBE28"/>
<path d="M35.1949 38.0858H10.8077C10.2687 38.0858 9.75175 38.3 9.37063 38.6811C8.98951 39.0622 8.77539 39.5791 8.77539 40.1181C8.77539 40.6571 8.98951 41.174 9.37063 41.5552C9.75175 41.9363 10.2687 42.1504 10.8077 42.1504H35.1949C35.7339 42.1504 36.2508 41.9363 36.6319 41.5552C37.013 41.174 37.2272 40.6571 37.2272 40.1181C37.2272 39.5791 37.013 39.0622 36.6319 38.6811C36.2508 38.3 35.7339 38.0858 35.1949 38.0858Z" fill="#FBBE28"/>
</svg>
