<svg width="16" height="17" viewBox="0 0 16 17" fill="none" xmlns="http://www.w3.org/2000/svg">
<path d="M8 0.5C3.5816 0.5 0 4.0816 0 8.5C0 12.9184 3.5816 16.5 8 16.5C12.4184 16.5 16 12.9184 16 8.5C16 4.0816 12.4184 0.5 8 0.5ZM8 2.7C9.436 2.7 10.6 3.864 10.6 5.3C10.6 6.736 9.436 7.9 8 7.9C6.564 7.9 5.4 6.736 5.4 5.3C5.4 3.864 6.564 2.7 8 2.7ZM8 14.9C6.0496 14.9 4.3032 14.0272 3.1296 12.6504C2.8248 12.2928 2.8928 11.756 3.268 11.4736C4.4816 10.5608 6.6928 10.1 8 10.1C9.3072 10.1 11.5184 10.5608 12.7328 11.4736C13.108 11.756 13.176 12.2936 12.8712 12.6504C11.6968 14.0272 9.9504 14.9 8 14.9Z" fill="#4824F9"/>
</svg>
