<svg width="28" height="29" viewBox="0 0 28 29" fill="none" xmlns="http://www.w3.org/2000/svg">
<path d="M6.30622 6.36872C4.97231 7.70263 4.375 9.99747 4.375 14.0625C4.375 18.1275 4.97231 20.4224 6.30622 21.7563C7.64013 23.0902 9.93497 23.6875 14 23.6875C18.063 23.6875 20.3718 23.0915 21.7092 21.8184C23.0321 20.5593 23.625 18.4226 23.625 14.6801C23.625 13.62 23.5904 12.6648 23.5163 11.8043C23.4748 11.3228 23.8315 10.8989 24.3129 10.8574C24.7944 10.8159 25.2183 11.1726 25.2598 11.6541C25.3393 12.5766 25.375 13.5837 25.375 14.6801C25.375 18.4867 24.8013 21.2912 22.9158 23.086C21.0448 24.8669 18.1037 25.4375 14 25.4375C9.89836 25.4375 6.9432 24.8681 5.06878 22.9937C3.19436 21.1193 2.625 18.1641 2.625 14.0625C2.625 9.96086 3.19436 7.0057 5.06878 5.13128C6.9432 3.25686 9.89836 2.6875 14 2.6875C14.8545 2.6875 15.6532 2.71253 16.3984 2.76806C16.8803 2.80397 17.2418 3.22376 17.2059 3.70567C17.17 4.18758 16.7502 4.54913 16.2683 4.51322C15.5756 4.4616 14.8214 4.4375 14 4.4375C9.93497 4.4375 7.64013 5.03481 6.30622 6.36872Z" fill="#00CC77"/>
<path fill-rule="evenodd" clip-rule="evenodd" d="M18.9583 5.89583C18.9583 4.12392 20.3948 2.6875 22.1667 2.6875C23.9386 2.6875 25.375 4.12392 25.375 5.89583C25.375 7.66775 23.9386 9.10417 22.1667 9.10417C20.3948 9.10417 18.9583 7.66775 18.9583 5.89583ZM22.1667 4.4375C21.3613 4.4375 20.7083 5.09042 20.7083 5.89583C20.7083 6.70125 21.3613 7.35417 22.1667 7.35417C22.9721 7.35417 23.625 6.70125 23.625 5.89583C23.625 5.09042 22.9721 4.4375 22.1667 4.4375Z" fill="#00CC77"/>
<path d="M17.9263 10.096C18.1839 9.68714 18.7242 9.5645 19.1331 9.82209C19.5419 10.0797 19.6646 10.62 19.407 11.0288C19.0333 11.622 18.7138 12.2203 18.411 12.7989L18.3086 12.9948C18.0475 13.4951 17.788 13.9921 17.5251 14.418C17.2316 14.8932 16.8808 15.371 16.4285 15.6998C15.9356 16.0581 15.3437 16.2229 14.6738 16.0865C13.7078 15.8897 13.2064 15.212 12.8985 14.7959L12.8966 14.7934C12.5384 14.3092 12.4218 14.1804 12.2328 14.1291C12.0626 14.0828 11.961 14.1004 11.8531 14.1525C11.7089 14.2221 11.5088 14.3795 11.2243 14.7157C10.9436 15.0474 10.6324 15.4892 10.2438 16.0633C10.1414 16.2147 10.0339 16.3747 9.92118 16.5425C9.61533 16.9979 9.27088 17.5108 8.88349 18.0642C8.60636 18.4601 8.06077 18.5564 7.66488 18.2793C7.26899 18.0021 7.17271 17.4565 7.44983 17.0606C7.82674 16.5222 8.15662 16.031 8.45992 15.5794C8.57492 15.4082 8.68612 15.2427 8.79459 15.0824C9.18105 14.5114 9.53975 13.9972 9.88855 13.5851C10.2336 13.1774 10.6228 12.8032 11.0922 12.5766C11.5979 12.3324 12.1343 12.2889 12.6915 12.4402C13.5108 12.6628 13.971 13.2957 14.242 13.6685C14.2636 13.6982 14.2841 13.7264 14.3034 13.7525C14.6151 14.1738 14.7698 14.3201 15.0231 14.3717C15.1714 14.4019 15.269 14.3792 15.3994 14.2844C15.5703 14.1601 15.7764 13.9191 16.0361 13.4986C16.2634 13.1303 16.4913 12.6941 16.7582 12.1831L16.8605 11.9874C17.1655 11.4046 17.5125 10.7529 17.9263 10.096Z" fill="#00CC77"/>
</svg>
