<svg width="24" height="25" viewBox="0 0 24 25" fill="none" xmlns="http://www.w3.org/2000/svg">
<g clip-path="url(#clip0_2604_1244)">
<path d="M13.0157 17.6994L15.9454 21.0645L18.8665 18.9673L16.0155 14.3047C14.7282 15.09 13.4653 16.6112 13.0157 17.698V17.6994ZM20.1996 8.13212C13.514 8.87787 7.82639 12.8825 4.78356 18.5046L8.80438 21.0602C11.2114 16.2079 15.8108 12.6137 21.3208 11.541L20.201 8.13212H20.1996ZM9.57189 11.0288C10.968 10.1811 12.1866 9.61936 14.2586 8.91749L13.8003 3.51758H10.189L9.68072 9.48635L3.78981 8.11656L2.67578 11.5156L6.76534 13.2221C7.60444 12.3844 8.54091 11.6528 9.57189 11.0288Z" fill="#00C3A5"/>
</g>
<defs>
<clipPath id="clip0_2604_1244">
<rect width="18.6436" height="17.5469" fill="white" transform="translate(2.67969 3.51758)"/>
</clipPath>
</defs>
</svg>
