<svg width="138" height="26" viewBox="0 0 138 26" fill="none" xmlns="http://www.w3.org/2000/svg">
<path d="M14.0496 3.45964L16.3869 8.41185C16.5494 8.75628 16.8637 8.99494 17.2272 9.05008L22.4538 9.84426C23.3694 9.98348 23.7347 11.1596 23.0724 11.8345L19.2905 15.6892C19.0276 15.9572 18.9075 16.3437 18.9697 16.722L19.8624 22.1651C20.0188 23.1184 19.0618 23.8452 18.2431 23.3955L13.5685 20.8258C13.2434 20.6473 12.8548 20.6473 12.5297 20.8258L7.85511 23.3955C7.03638 23.8457 6.07933 23.1184 6.23581 22.1651L7.12846 16.722C7.1907 16.3437 7.07053 15.9572 6.80771 15.6892L3.02575 11.8345C2.36351 11.1592 2.72878 9.98303 3.64433 9.84426L8.87095 9.05008C9.23449 8.99494 9.54875 8.75628 9.71129 8.41185L12.0486 3.45964C12.4575 2.59223 13.6402 2.59223 14.0496 3.45964Z" fill="#FBBE28"/>
<path d="M42.0257 3.45964L44.363 8.41185C44.5256 8.75628 44.8398 8.99494 45.2034 9.05008L50.43 9.84426C51.3455 9.98348 51.7108 11.1596 51.0486 11.8345L47.2666 15.6892C47.0038 15.9572 46.8836 16.3437 46.9459 16.722L47.8385 22.1651C47.995 23.1184 47.0379 23.8452 46.2192 23.3955L41.5446 20.8258C41.2195 20.6473 40.8309 20.6473 40.5059 20.8258L35.8312 23.3955C35.0125 23.8457 34.0555 23.1184 34.212 22.1651L35.1046 16.722C35.1668 16.3437 35.0467 15.9572 34.7839 15.6892L31.0019 11.8345C30.3397 11.1592 30.7049 9.98303 31.6205 9.84426L36.8471 9.05008C37.2106 8.99494 37.5249 8.75628 37.6874 8.41185L40.0247 3.45964C40.4337 2.59223 41.6164 2.59223 42.0257 3.45964Z" fill="#FBBE28"/>
<path d="M70.0019 3.45964L72.3392 8.41185C72.5017 8.75628 72.816 8.99494 73.1795 9.05008L78.4061 9.84426C79.3217 9.98348 79.687 11.1596 79.0247 11.8345L75.2428 15.6892C74.9799 15.9572 74.8598 16.3437 74.922 16.722L75.8147 22.1651C75.9711 23.1184 75.0141 23.8452 74.1954 23.3955L69.5208 20.8258C69.1957 20.6473 68.8071 20.6473 68.482 20.8258L63.8074 23.3955C62.9887 23.8457 62.0316 23.1184 62.1881 22.1651L63.0808 16.722C63.143 16.3437 63.0228 15.9572 62.76 15.6892L58.978 11.8345C58.3158 11.1592 58.6811 9.98303 59.5966 9.84426L64.8232 9.05008C65.1868 8.99494 65.501 8.75628 65.6636 8.41185L68.0009 3.45964C68.4098 2.59223 69.5925 2.59223 70.0019 3.45964Z" fill="#FBBE28"/>
<path d="M97.978 3.45964L100.315 8.41185C100.478 8.75628 100.792 8.99494 101.156 9.05008L106.382 9.84426C107.298 9.98348 107.663 11.1596 107.001 11.8345L103.219 15.6892C102.956 15.9572 102.836 16.3437 102.898 16.722L103.791 22.1651C103.947 23.1184 102.99 23.8452 102.172 23.3955L97.4969 20.8258C97.1718 20.6473 96.7832 20.6473 96.4582 20.8258L91.7836 23.3955C90.9648 23.8457 90.0078 23.1184 90.1643 22.1651L91.0569 16.722C91.1192 16.3437 90.999 15.9572 90.7362 15.6892L86.9542 11.8345C86.292 11.1592 86.6572 9.98303 87.5728 9.84426L92.7994 9.05008C93.1629 8.99494 93.4772 8.75628 93.6397 8.41185L95.977 3.45964C96.386 2.59223 97.5687 2.59223 97.978 3.45964Z" fill="#FBBE28"/>
<path d="M125.954 3.45964L128.291 8.41185C128.454 8.75628 128.768 8.99494 129.132 9.05008L134.358 9.84426C135.274 9.98348 135.639 11.1596 134.977 11.8345L131.195 15.6892C130.932 15.9572 130.812 16.3437 130.874 16.722L131.767 22.1651C131.923 23.1184 130.966 23.8452 130.148 23.3955L125.473 20.8258C125.148 20.6473 124.759 20.6473 124.434 20.8258L119.76 23.3955C118.941 23.8457 117.984 23.1184 118.14 22.1651L119.033 16.722C119.095 16.3437 118.975 15.9572 118.712 15.6892L114.93 11.8345C114.268 11.1592 114.633 9.98303 115.549 9.84426L120.776 9.05008C121.139 8.99494 121.453 8.75628 121.616 8.41185L123.953 3.45964C124.362 2.59223 125.545 2.59223 125.954 3.45964Z" fill="#FBBE28"/>
</svg>
