<svg width="24" height="25" viewBox="0 0 24 25" fill="none" xmlns="http://www.w3.org/2000/svg">
<path fill-rule="evenodd" clip-rule="evenodd" d="M6.18641 12.2904C6.18641 11.6412 6.29598 11.0185 6.49402 10.4339L3.04957 7.86108C2.37758 9.19502 2 10.6978 2 12.2904C2 13.8829 2.37758 15.3844 3.04825 16.717L6.49005 14.1389C6.29466 13.557 6.18641 12.9369 6.18641 12.2904Z" fill="#FBBC05"/>
<path fill-rule="evenodd" clip-rule="evenodd" d="M12.2342 6.38121C13.6759 6.38121 14.9789 6.88127 16.0021 7.69931L18.9792 4.78999C17.1639 3.24495 14.839 2.29102 12.2342 2.29102C8.19038 2.29102 4.71425 4.55382 3.05078 7.86028L6.49522 10.4331C7.28867 8.07666 9.5502 6.38121 12.2355 6.38121H12.2342Z" fill="#EA4335"/>
<path d="M17.2355 22.2937L19.0442 17.1348L20.8529 22.2937L16.1094 19.1033H21.9777" fill="#FBBC05"/>
<path fill-rule="evenodd" clip-rule="evenodd" d="M17.127 20.5641L15.247 19.3001C14.8773 19.052 15.0529 18.4754 15.4992 18.4754H17.1468L15.6299 17.3275C14.707 17.8962 13.5466 18.2023 12.2316 18.2023C9.54762 18.2023 7.28609 16.5069 6.49132 14.1504L3.04688 16.7233C4.71167 20.0297 8.18648 22.2938 12.2303 22.2938C13.8872 22.2938 15.4939 21.9086 16.9105 21.1763L17.1243 20.5654L17.127 20.5641Z" fill="#34A853"/>
<path fill-rule="evenodd" clip-rule="evenodd" d="M15.6313 17.3238L17.1482 18.4717H17.8611L18.6282 16.2841C18.7668 15.8909 19.3239 15.8909 19.4612 16.2841L20.186 18.3489C21.3175 16.763 22.0013 14.7271 22.0013 12.2889C22.0013 11.6978 21.9089 11.0618 21.769 10.4707H12.2344V14.334H17.7225C17.4479 15.6507 16.7007 16.6641 15.6326 17.3224L15.6313 17.3238Z" fill="#4285F4"/>
</svg>
