<svg width="16" height="18" viewBox="0 0 16 18" fill="none" xmlns="http://www.w3.org/2000/svg">
<path d="M8 0.0170898C7.59855 0.0170898 7.27273 0.342908 7.27273 0.744363V1.47164H1.81818C0.815636 1.47164 0 2.28727 0 3.28982V11.6535C0 12.656 0.815636 13.4716 1.81818 13.4716H4.53338L3.01278 16.0064C2.80624 16.3508 2.91771 16.7978 3.26207 17.0043C3.37916 17.0749 3.50802 17.108 3.63565 17.108C3.88293 17.108 4.12358 16.9819 4.25994 16.7543L6.2294 13.4716H9.7706L11.7401 16.7543C11.8764 16.9816 12.1171 17.108 12.3643 17.108C12.492 17.108 12.6208 17.0749 12.7379 17.0043C13.0827 16.7974 13.1938 16.3508 12.9872 16.0064L11.4666 13.4716H14.1818C15.1844 13.4716 16 12.656 16 11.6535V3.28982C16 2.28727 15.1844 1.47164 14.1818 1.47164H8.72727V0.744363C8.72727 0.342908 8.40145 0.0170898 8 0.0170898ZM12.5795 4.38215C12.6844 4.38866 12.7884 4.42493 12.8778 4.49365C13.1168 4.67729 13.1613 5.01966 12.9773 5.25857L9.94744 9.1982C9.76599 9.43456 9.42818 9.48113 9.18963 9.30331L6.9929 7.67121L5.41903 9.9624C5.31431 10.1148 5.14402 10.1986 4.96875 10.1982C4.88948 10.1982 4.80966 10.1813 4.73366 10.1449L3.21804 9.41766C2.94677 9.28748 2.83218 8.96202 2.96236 8.69039C3.09254 8.41875 3.41798 8.30418 3.69034 8.43399L4.7848 8.95956L6.41406 6.58669C6.56715 6.36342 6.91183 6.2516 7.18892 6.45814L9.4098 8.10729L12.1129 4.59379C12.2277 4.44448 12.4048 4.37129 12.5795 4.38215Z" fill="#00CC77"/>
</svg>
