<svg width="28" height="29" viewBox="0 0 28 29" fill="none" xmlns="http://www.w3.org/2000/svg">
<path fill-rule="evenodd" clip-rule="evenodd" d="M18.2838 5.80023C17.1458 6.15851 16.1911 6.9424 15.5324 7.6003C14.7262 8.40551 13.3597 8.40551 12.5535 7.6003C11.9041 6.95173 10.9506 6.1929 9.81035 5.8463C8.72778 5.51723 7.42213 5.53975 5.92933 6.51351C4.40886 7.92096 4.17051 9.67001 4.50699 11.4279C4.8502 13.2209 5.78233 14.9222 6.46012 15.9979C9.72438 20.3746 12.2655 21.8979 13.3973 22.4159C13.761 22.5558 14.2087 22.5558 14.5724 22.4159C15.7042 21.8979 18.2453 20.3746 21.5096 15.9979C22.1872 14.9226 23.1212 13.2187 23.4784 11.4218C23.8297 9.65457 23.6112 7.90475 22.1434 6.50277C20.6538 5.48127 19.358 5.46205 18.2838 5.80023ZM17.7583 4.131C19.3432 3.63203 21.2241 3.72445 23.1974 5.10403C23.2312 5.12765 23.2633 5.15364 23.2934 5.18179C25.386 7.13693 25.624 9.60382 25.1949 11.763C24.7712 13.8945 23.6859 15.8307 22.971 16.9612C22.9591 16.98 22.9465 16.9983 22.9333 17.0161C19.4899 21.641 16.7071 23.3687 15.2758 24.0185C15.2635 24.0241 15.2511 24.0294 15.2387 24.0344C14.4495 24.3496 13.5202 24.3496 12.731 24.0344C12.7186 24.0294 12.7062 24.0241 12.694 24.0185C11.2626 23.3687 8.47978 21.641 5.03643 17.0161C5.02317 16.9983 5.0106 16.98 4.99873 16.9612C4.2841 15.8311 3.19695 13.8923 2.78819 11.7569C2.37319 9.58879 2.64902 7.12171 4.80265 5.17242C4.83471 5.1434 4.86888 5.1168 4.90488 5.09283C6.87378 3.78186 8.74361 3.69298 10.3193 4.17194C11.8505 4.63736 13.0457 5.61861 13.7901 6.36209C13.9131 6.48491 14.1727 6.48491 14.2957 6.36209C15.0308 5.62793 16.2249 4.61375 17.7583 4.131Z" fill="#00CC77"/>
</svg>
