<svg width="32" height="32" viewBox="0 0 32 32" fill="none" xmlns="http://www.w3.org/2000/svg">
<path d="M27.3327 4.0202H4.66602L6.66602 25.9785L15.9993 28.5619L25.3327 25.9785L27.3327 4.0202Z" fill="#E65100"/>
<path d="M16 5.9577V26.5598L23.4667 24.4931L25.1333 5.9577H16Z" fill="#FF6D00"/>
<path d="M16 16.9368V14.3535H21.7333L21.2667 21.7806L16 23.4597V20.7472L18.7333 19.8431L18.9333 16.9368H16ZM21.9333 11.7702L22.1333 9.18683H16V11.7702H21.9333Z" fill="white"/>
<path d="M16.0003 20.7472V23.4597L10.7336 21.7806L10.4669 18.2285H13.1336L13.2669 19.8431L16.0003 20.7472ZM12.7336 11.7702H16.0003V9.18683H9.93359L10.4003 16.9368H16.0003V14.3535H12.9336L12.7336 11.7702Z" fill="#EEEEEE"/>
</svg>
