<svg width="24" height="25" viewBox="0 0 24 25" fill="none" xmlns="http://www.w3.org/2000/svg">
<g clip-path="url(#clip0_2604_1239)">
<path fill-rule="evenodd" clip-rule="evenodd" d="M12 2.29102C6.5 2.29102 2 6.79102 2 12.291C2 17.791 6.5 22.291 12 22.291C17.5 22.291 22 17.791 22 12.291C22 6.79102 17.55 2.29102 12 2.29102Z" fill="#EA1D2C"/>
<path d="M7.74662 12.8968C10.4847 12.8968 12.3853 10.4162 12.3853 8.38677C12.3853 6.87285 11.0001 6.22852 9.64719 6.22852C6.65054 6.22852 5.00851 8.90372 5.00851 10.7386C5.00851 12.2525 6.42589 12.8968 7.74662 12.8968ZM15.0918 12.897C17.8299 12.897 19.7305 10.4163 19.7305 8.38689C19.7305 6.87297 18.3131 6.22852 16.96 6.22852C13.9642 6.22852 12.3215 8.90226 12.3215 10.7386C12.3215 12.2525 13.7711 12.897 15.0918 12.897ZM16.3475 17.5678C14.5472 19.0594 12.235 19.7878 9.90487 19.5971C6.84448 19.4038 4.65404 17.0521 4.26764 14.5717H4.39636C5.10505 16.1196 6.81242 17.5677 8.90644 17.793C11.031 18.0506 13.5773 17.0845 14.9623 15.7637L13.4161 14.5718H18.087L17.055 19.5329L16.3785 17.6L16.3475 17.5678Z" fill="white"/>
</g>
<defs>
<clipPath id="clip0_2604_1239">
<rect width="20" height="20" fill="white" transform="translate(2 2.29102)"/>
</clipPath>
</defs>
</svg>
