<svg width="24" height="25" viewBox="0 0 24 25" fill="none" xmlns="http://www.w3.org/2000/svg">
<path fill-rule="evenodd" clip-rule="evenodd" d="M12 2.29102C14.7158 2.29102 15.0564 2.30253 16.123 2.35119C17.1874 2.39974 17.9143 2.5688 18.5504 2.81602C19.208 3.07154 19.7656 3.41347 20.3216 3.9694C20.8775 4.52537 21.2195 5.08305 21.475 5.74064C21.7222 6.37671 21.8913 7.10364 21.9398 8.16803C21.9885 9.23463 22 9.57518 22 12.291C22 15.0069 21.9885 15.3474 21.9398 16.414C21.8913 17.4784 21.7222 18.2053 21.475 18.8414C21.2195 19.499 20.8775 20.0567 20.3216 20.6126C19.7656 21.1686 19.208 21.5105 18.5504 21.766C17.9143 22.0132 17.1874 22.1823 16.123 22.2308C15.0564 22.2795 14.7158 22.291 12 22.291C9.28416 22.291 8.94362 22.2795 7.87701 22.2308C6.81263 22.1823 6.08569 22.0132 5.44962 21.766C4.79203 21.5105 4.23436 21.1686 3.67839 20.6126C3.12246 20.0567 2.78052 19.499 2.52501 18.8414C2.27779 18.2053 2.10872 17.4784 2.06018 16.414C2.01151 15.3474 2 15.0069 2 12.291C2 9.57518 2.01151 9.23463 2.06018 8.16803C2.10872 7.10364 2.27779 6.37671 2.52501 5.74064C2.78052 5.08305 3.12246 4.52537 3.67839 3.9694C4.23436 3.41347 4.79203 3.07154 5.44962 2.81602C6.08569 2.5688 6.81263 2.39974 7.87701 2.35119C8.94362 2.30253 9.28416 2.29102 12 2.29102ZM12 3.95768C9.28588 3.95768 8.96438 3.96805 7.89254 4.01696C6.90147 4.06215 6.36326 4.22774 6.00507 4.36695C5.53061 4.55134 5.19199 4.77161 4.83631 5.12733C4.48059 5.48301 4.26033 5.82162 4.07593 6.29609C3.93672 6.65427 3.77113 7.19249 3.72594 8.18355C3.67704 9.25539 3.66667 9.5769 3.66667 12.291C3.66667 15.0051 3.67704 15.3266 3.72594 16.3985C3.77113 17.3895 3.93672 17.9278 4.07593 18.2859C4.26033 18.7604 4.48063 19.099 4.83631 19.4547C5.19199 19.8104 5.53061 20.0307 6.00507 20.2151C6.36326 20.3543 6.90147 20.5199 7.89254 20.5651C8.96425 20.614 9.28568 20.6243 12 20.6243C14.7143 20.6243 15.0358 20.614 16.1075 20.5651C17.0985 20.5199 17.6367 20.3543 17.9949 20.2151C18.4694 20.0307 18.808 19.8104 19.1637 19.4547C19.5194 19.099 19.7397 18.7604 19.9241 18.2859C20.0633 17.9278 20.2289 17.3895 20.2741 16.3985C20.323 15.3266 20.3333 15.0051 20.3333 12.291C20.3333 9.5769 20.323 9.25539 20.2741 8.18355C20.2289 7.19249 20.0633 6.65427 19.9241 6.29609C19.7397 5.82162 19.5194 5.48301 19.1637 5.12733C18.808 4.77161 18.4694 4.55134 17.9949 4.36695C17.6367 4.22774 17.0985 4.06215 16.1075 4.01696C15.0356 3.96805 14.7141 3.95768 12 3.95768ZM12 7.29102C14.7614 7.29102 17 9.52957 17 12.291C17 15.0525 14.7614 17.291 12 17.291C9.23856 17.291 7 15.0525 7 12.291C7 9.52957 9.23856 7.29102 12 7.29102ZM12 15.6243C13.841 15.6243 15.3333 14.132 15.3333 12.291C15.3333 10.4501 13.841 8.95768 12 8.95768C10.159 8.95768 8.66667 10.4501 8.66667 12.291C8.66667 14.132 10.159 15.6243 12 15.6243ZM18.6667 6.87437C18.6667 7.56473 18.107 8.12435 17.4166 8.12435C16.7263 8.12435 16.1667 7.56473 16.1667 6.87437C16.1667 6.18401 16.7263 5.62435 17.4166 5.62435C18.107 5.62435 18.6667 6.18401 18.6667 6.87437Z" fill="url(#paint0_linear_2604_1213)"/>
<defs>
<linearGradient id="paint0_linear_2604_1213" x1="12" y1="2.29102" x2="12" y2="22.291" gradientUnits="userSpaceOnUse">
<stop stop-color="#B937AE"/>
<stop offset="0.510417" stop-color="#FF3867"/>
<stop offset="1" stop-color="#FFAA40"/>
</linearGradient>
</defs>
</svg>
