<svg width="24" height="25" viewBox="0 0 24 25" fill="none" xmlns="http://www.w3.org/2000/svg">
<path fill-rule="evenodd" clip-rule="evenodd" d="M22.0011 21.3777H17.4406V14.8542C17.4406 13.1467 16.7273 11.981 15.1586 11.981C13.9588 11.981 13.2915 12.7677 12.9809 13.5258C12.8645 13.7979 12.8827 14.1769 12.8827 14.556V21.3777H8.3647C8.3647 21.3777 8.42294 9.822 8.3647 8.77159H12.8827V10.75C13.1496 9.88498 14.5933 8.65039 16.8971 8.65039C19.7554 8.65039 22.0011 10.4636 22.0011 14.3682V21.3777ZM2.91016 8.65039H6.54652V21.3777H2.91016V8.65039Z" fill="#0077B5"/>
<path d="M4.76698 7.29102H4.79084C6.02941 7.29102 6.80078 6.40647 6.80078 5.28939C6.77692 4.15165 6.02941 3.29102 4.8137 3.29102C3.597 3.29102 2.80078 4.15382 2.80078 5.29265C2.80078 6.40973 3.57414 7.29102 4.76698 7.29102Z" fill="#0077B5"/>
</svg>
