<svg width="24" height="25" viewBox="0 0 24 25" fill="none" xmlns="http://www.w3.org/2000/svg">
<path d="M7 8.54102C6.58579 8.54102 6.25 8.8768 6.25 9.29102C6.25 9.70523 6.58579 10.041 7 10.041H17C17.4142 10.041 17.75 9.70523 17.75 9.29102C17.75 8.8768 17.4142 8.54102 17 8.54102H7Z" fill="#4824F9"/>
<path d="M7 11.541C6.58579 11.541 6.25 11.8768 6.25 12.291C6.25 12.7052 6.58579 13.041 7 13.041H17C17.4142 13.041 17.75 12.7052 17.75 12.291C17.75 11.8768 17.4142 11.541 17 11.541H7Z" fill="#4824F9"/>
<path d="M6.25 15.291C6.25 14.8768 6.58579 14.541 7 14.541H17C17.4142 14.541 17.75 14.8768 17.75 15.291C17.75 15.7052 17.4142 16.041 17 16.041H7C6.58579 16.041 6.25 15.7052 6.25 15.291Z" fill="#4824F9"/>
<path fill-rule="evenodd" clip-rule="evenodd" d="M12 2.54102C8.48431 2.54102 5.95132 3.02904 4.34467 4.63569C2.73802 6.24233 2.25 8.77532 2.25 12.291C2.25 15.8067 2.73802 18.3397 4.34467 19.9463C5.95132 21.553 8.48431 22.041 12 22.041C15.5157 22.041 18.0487 21.553 19.6553 19.9463C21.262 18.3397 21.75 15.8067 21.75 12.291C21.75 8.77532 21.262 6.24233 19.6553 4.63569C18.0487 3.02904 15.5157 2.54102 12 2.54102ZM3.75 12.291C3.75 8.80671 4.26198 6.8397 5.40533 5.69635C6.54868 4.55299 8.51569 4.04102 12 4.04102C15.4843 4.04102 17.4513 4.55299 18.5947 5.69635C19.738 6.8397 20.25 8.80671 20.25 12.291C20.25 15.7753 19.738 17.7423 18.5947 18.8857C17.4513 20.029 15.4843 20.541 12 20.541C8.51569 20.541 6.54868 20.029 5.40533 18.8857C4.26198 17.7423 3.75 15.7753 3.75 12.291Z" fill="#4824F9"/>
</svg>
