<svg width="24" height="25" viewBox="0 0 24 25" fill="none" xmlns="http://www.w3.org/2000/svg">
<path d="M6.96285 0.252757C3.1188 0.252757 0 3.53643 0 7.5899V7.65815L0.00507351 7.65271V7.65815H0V17.25C1.33943 15.8606 3.14203 15.0799 5.02522 15.0799H6.80967C10.3249 15.0799 13.4045 12.424 13.9228 8.76088C14.5573 4.268 11.1953 0.25 6.96285 0.25V0.252757ZM7.00134 12.3176C4.51196 12.3176 2.49446 10.1912 2.49446 7.56806H11.5082C11.5082 10.1912 9.49072 12.3176 7.00134 12.3176Z" fill="#00ED89"/>
<path d="M18.9748 9.41765H17.1903C13.6751 9.41765 10.5955 12.074 10.0772 15.7377C9.44269 20.2313 12.8047 24.25 17.0371 24.25C20.8812 24.2554 24 20.9739 24 16.9252V16.7396V7.25C22.6606 8.63953 20.858 9.42034 18.9748 9.42034V9.41765ZM17.0008 21.4872C14.5115 21.4872 12.494 19.3604 12.494 16.7369H14.4861C14.4861 18.2002 15.6128 19.385 16.9987 19.385C18.3846 19.385 19.5135 18.1975 19.5135 16.7369H21.5055C21.5055 19.3604 19.488 21.4872 16.9987 21.4872H17.0008Z" fill="#6346FA"/>
<path fill-rule="evenodd" clip-rule="evenodd" d="M14 10.25C12.2326 11.0491 10.7892 12.4639 10 14.25C11.7674 13.4509 13.2116 12.0361 14 10.25Z" fill="#4824F9"/>
</svg>
