<svg width="112" height="31" viewBox="0 0 112 31" fill="none" xmlns="http://www.w3.org/2000/svg">
<path d="M8.61417 6.81413H8.60475C6.16689 6.81413 4.12488 7.61389 2.47241 9.21955C0.823089 10.8252 0 12.8123 0 15.1839C0 17.5554 0.838798 19.5394 2.52268 21.1359C4.20342 22.7323 6.28313 23.529 8.76497 23.529C10.5337 23.529 12.1013 23.1199 13.4553 22.2986C14.8156 21.4804 15.8586 20.3884 16.5938 19.0258L13.7475 17.7954C13.2731 18.6782 12.6102 19.3733 11.7589 19.887C10.9075 20.4007 9.94306 20.6591 8.8655 20.6591C7.46436 20.6591 6.27057 20.2592 5.27469 19.4502C4.28196 18.6443 3.66307 17.5862 3.42745 16.2851H17.1153C17.42 13.6643 16.7383 11.4312 15.0795 9.58251C13.4208 7.74 11.2657 6.81413 8.61104 6.81413H8.61417ZM3.46515 13.569C3.76674 12.357 4.38877 11.3697 5.31867 10.616C6.24857 9.85628 7.34498 9.48101 8.61732 9.48101C9.88965 9.48101 11.0206 9.86243 11.9505 10.616C12.8804 11.3697 13.4899 12.357 13.7726 13.569H3.46515ZM20.9731 23.529H24.5074V0.25H20.9731V23.529ZM108.585 6.81721V16.4081C108.585 17.6077 108.196 18.5736 107.413 19.3118C106.637 20.0501 105.673 20.4192 104.457 20.4192C103.241 20.4192 102.249 20.0501 101.466 19.3118C100.684 18.5736 100.295 17.6077 100.295 16.4081V6.81721H96.8796V16.4081C96.8796 18.5059 97.5896 20.2131 99.0096 21.5388C100.433 22.8677 102.267 23.529 104.457 23.529C106.647 23.529 108.447 22.8646 109.87 21.5388C111.293 20.2131 112 18.5059 112 16.4081V6.81721H108.585ZM69.6234 23.529H73.0697V6.81721H69.6234V23.529ZM71.3607 0.25C70.8235 0.25 70.3617 0.434558 69.9753 0.8006C69.5889 1.16664 69.3941 1.61266 69.3941 2.1325C69.3941 2.65234 69.5889 3.09835 69.9753 3.4644C70.3617 3.83044 70.8235 4.015 71.3607 4.015C71.8979 4.015 72.3534 3.83044 72.7304 3.4644C73.1074 3.09835 73.2959 2.65234 73.2959 2.1325C73.2959 1.61266 73.1074 1.16664 72.7304 0.8006C72.3534 0.434558 71.8979 0.25 71.3607 0.25ZM62.69 9.53022C61.2323 7.71847 59.2594 6.81721 56.7681 6.81721C54.4465 6.81721 52.4956 7.62312 50.9217 9.22262C49.3477 10.8221 48.5592 12.7785 48.5592 15.15C48.5592 17.5216 49.3477 19.5056 50.9217 21.099C52.4956 22.6892 54.4465 23.4859 56.7681 23.4859C59.2468 23.4859 61.2197 22.5877 62.6994 20.7944V21.7542C62.6994 23.2921 62.1779 24.5779 61.138 25.6145C60.0919 26.648 58.8101 27.1679 57.2927 27.1679C56.2278 27.1679 55.2853 26.891 54.4716 26.3466C53.6548 25.8021 53.0171 25.0608 52.5647 24.1196L49.4703 25.6299C50.1645 27.0418 51.2012 28.1614 52.5804 28.9981C53.9595 29.8317 55.5272 30.25 57.2896 30.25C59.784 30.25 61.8794 29.441 63.5759 27.8138C65.266 26.1897 66.1143 24.1719 66.1143 21.7542V6.81721H62.6931V9.53022H62.69ZM60.9401 18.8566C59.8908 19.8963 58.5745 20.4192 56.9943 20.4192C55.4141 20.4192 54.1261 19.8993 53.0642 18.8566C52.0024 17.8169 51.4714 16.5188 51.4714 14.9685C51.4714 13.4183 51.9992 12.1263 53.0642 11.0959C54.1261 10.0654 55.4141 9.54868 56.9943 9.54868C58.5745 9.54868 59.8877 10.0654 60.9401 11.0959C61.9925 12.1263 62.5172 13.4183 62.5172 14.9685C62.5172 16.5188 61.9925 17.8169 60.9401 18.8566Z" fill="#131212"/>
<path d="M36.4453 6.81704C31.7832 6.81704 28.0007 10.5174 28.0007 15.0853V15.1622L28.007 15.156V15.1622H28.0007V25.9711C29.6249 24.4055 31.8115 23.5257 34.0954 23.5257H36.2599C40.523 23.5257 44.2583 20.5328 44.8867 16.4049C45.6563 11.3418 41.5786 6.81396 36.4453 6.81396V6.81704ZM36.4924 20.4129C33.4733 20.4129 31.0261 18.0167 31.0261 15.0607H41.9587C41.9587 18.0167 39.5114 20.4129 36.4924 20.4129Z" fill="#00ED89"/>
<path d="M87.3575 6.81391H85.193C80.9299 6.81391 77.1946 9.80683 76.5663 13.9348C75.7966 18.9979 79.8743 23.5257 85.0077 23.5257C89.6697 23.5318 93.4522 19.8345 93.4522 15.2728V15.0637V4.37158C91.828 5.93725 89.6415 6.81698 87.3575 6.81698V6.81391ZM84.9637 20.4128C81.9446 20.4128 79.4974 18.0166 79.4974 15.0606H81.9132C81.9132 16.7093 83.2798 18.0443 84.9605 18.0443C86.6413 18.0443 88.011 16.7062 88.011 15.0606H90.4269C90.4269 18.0166 87.9796 20.4128 84.9605 20.4128H84.9637Z" fill="#4824F9"/>
</svg>
