<svg width="437" height="85" viewBox="0 0 437 85" fill="none" xmlns="http://www.w3.org/2000/svg">
<rect x="0.490723" y="0.38324" width="40" height="40" rx="9" fill="white" fill-opacity="0.9"/>
<path d="M15.4907 16.6332C15.0765 16.6332 14.7407 16.969 14.7407 17.3832C14.7407 17.7975 15.0765 18.1332 15.4907 18.1332H25.4907C25.9049 18.1332 26.2407 17.7975 26.2407 17.3832C26.2407 16.969 25.9049 16.6332 25.4907 16.6332H15.4907Z" fill="#4824F9"/>
<path d="M15.4907 19.6332C15.0765 19.6332 14.7407 19.969 14.7407 20.3832C14.7407 20.7975 15.0765 21.1332 15.4907 21.1332H25.4907C25.9049 21.1332 26.2407 20.7975 26.2407 20.3832C26.2407 19.969 25.9049 19.6332 25.4907 19.6332H15.4907Z" fill="#4824F9"/>
<path d="M14.7407 23.3832C14.7407 22.969 15.0765 22.6332 15.4907 22.6332H25.4907C25.9049 22.6332 26.2407 22.969 26.2407 23.3832C26.2407 23.7975 25.9049 24.1332 25.4907 24.1332H15.4907C15.0765 24.1332 14.7407 23.7975 14.7407 23.3832Z" fill="#4824F9"/>
<path fill-rule="evenodd" clip-rule="evenodd" d="M20.4907 10.6332C16.975 10.6332 14.442 11.1213 12.8354 12.7279C11.2287 14.3346 10.7407 16.8675 10.7407 20.3832C10.7407 23.8989 11.2287 26.4319 12.8354 28.0386C14.442 29.6452 16.975 30.1332 20.4907 30.1332C24.0064 30.1332 26.5394 29.6452 28.1461 28.0386C29.7527 26.4319 30.2407 23.8989 30.2407 20.3832C30.2407 16.8675 29.7527 14.3346 28.1461 12.7279C26.5394 11.1213 24.0064 10.6332 20.4907 10.6332ZM12.2407 20.3832C12.2407 16.8989 12.7527 14.9319 13.8961 13.7886C15.0394 12.6452 17.0064 12.1332 20.4907 12.1332C23.975 12.1332 25.942 12.6452 27.0854 13.7886C28.2287 14.9319 28.7407 16.8989 28.7407 20.3832C28.7407 23.8675 28.2287 25.8346 27.0854 26.9779C25.942 28.1213 23.975 28.6332 20.4907 28.6332C17.0064 28.6332 15.0394 28.1213 13.8961 26.9779C12.7527 25.8346 12.2407 23.8675 12.2407 20.3832Z" fill="#4824F9"/>
<rect x="0.990723" y="0.88324" width="39" height="39" rx="8.5" stroke="url(#paint0_linear_2647_816)" stroke-opacity="0.6"/>
<rect x="44.4907" y="0.38324" width="40" height="40" rx="9" fill="white" fill-opacity="0.9"/>
<path fill-rule="evenodd" clip-rule="evenodd" d="M74.2403 14.0156C74.2547 14.9487 73.8763 15.9037 73.0486 16.7314L73.0479 16.7322L71.9368 17.8398C70.0411 19.7295 67.7004 22.0626 66.8597 22.9207C66.4775 23.3108 65.9321 23.5581 65.4191 23.7222C64.8884 23.8919 64.3027 24.0001 63.7592 24.0626C63.2149 24.1251 62.6887 24.1445 62.2702 24.1272C62.0632 24.1186 61.8637 24.1003 61.6936 24.0677C61.6095 24.0516 61.513 24.0284 61.4183 23.9923C61.3448 23.9644 61.1733 23.8933 61.0337 23.7308C60.9156 23.5934 60.8649 23.443 60.8436 23.3739C60.8165 23.2861 60.7987 23.1958 60.7861 23.114C60.7608 22.949 60.7474 22.7549 60.7427 22.5505C60.7332 22.1383 60.7579 21.6218 60.8236 21.0862C60.8892 20.5516 60.9982 19.976 61.1655 19.4526C61.3276 18.9456 61.5683 18.4099 61.9417 18.0268C62.7398 17.2079 64.8983 15.0577 66.7363 13.2267C67.2408 12.7242 67.721 12.2458 68.1424 11.8255C68.9701 10.9978 69.9251 10.6193 70.8582 10.6336C71.779 10.6478 72.6163 11.0438 73.2232 11.6506C73.8301 12.2574 74.2261 13.0947 74.2403 14.0156ZM70.8351 12.1335C70.3481 12.126 69.7736 12.3156 69.2031 12.8862L69.2024 12.8869C69.178 12.9112 69.1534 12.9358 69.1286 12.9605L71.9133 15.7452L71.9881 15.6706C72.5585 15.1001 72.748 14.5257 72.7405 14.0387C72.7328 13.5394 72.5171 13.0658 72.1626 12.7113C71.8081 12.3568 71.3344 12.1411 70.8351 12.1335ZM70.851 16.8042L68.0661 14.0193C67.9759 14.1092 67.8847 14.2 67.7927 14.2917L67.7862 14.2981C65.9492 16.1281 63.8053 18.2638 63.0159 19.0738C62.883 19.21 62.7302 19.4843 62.5943 19.9093C62.4637 20.318 62.3704 20.7963 62.3125 21.2688C62.2547 21.7401 62.2346 22.1838 62.2423 22.516C62.2432 22.5543 62.2444 22.5903 62.2459 22.6241C62.2731 22.6257 62.3019 22.6272 62.3324 22.6285C62.6629 22.6422 63.1104 22.6273 63.5879 22.5724C64.0663 22.5174 64.5507 22.4251 64.9622 22.2935C65.3914 22.1562 65.6604 22.0014 65.7883 21.8709C66.6315 21.0103 68.9612 18.688 70.851 16.8042Z" fill="#4824F9"/>
<path d="M57.8961 13.7886C56.7527 14.9319 56.2407 16.8989 56.2407 20.3832C56.2407 23.8675 56.7527 25.8346 57.8961 26.9779C59.0394 28.1213 61.0064 28.6332 64.4907 28.6332C67.9733 28.6332 69.9523 28.1223 71.0986 27.0312C72.2325 25.9519 72.7407 24.1205 72.7407 20.9127C72.7407 20.4984 73.0765 20.1627 73.4907 20.1627C73.9049 20.1627 74.2407 20.4984 74.2407 20.9127C74.2407 24.1754 73.749 26.5793 72.1328 28.1177C70.5292 29.6441 68.0082 30.1332 64.4907 30.1332C60.975 30.1332 58.442 29.6452 56.8354 28.0386C55.2287 26.4319 54.7407 23.8989 54.7407 20.3832C54.7407 16.8675 55.2287 14.3346 56.8354 12.7279C58.442 11.1213 60.975 10.6332 64.4907 10.6332C64.9049 10.6332 65.2407 10.969 65.2407 11.3832C65.2407 11.7975 64.9049 12.1332 64.4907 12.1332C61.0064 12.1332 59.0394 12.6452 57.8961 13.7886Z" fill="#4824F9"/>
<rect x="44.9907" y="0.88324" width="39" height="39" rx="8.5" stroke="url(#paint1_linear_2647_816)" stroke-opacity="0.6"/>
<rect x="88.4907" y="0.38324" width="40" height="40" rx="9" fill="white" fill-opacity="0.9"/>
<path fill-rule="evenodd" clip-rule="evenodd" d="M108.491 10.3832C111.207 10.3832 111.547 10.3948 112.614 10.4434C113.678 10.492 114.405 10.661 115.041 10.9082C115.699 11.1638 116.256 11.5057 116.812 12.0616C117.368 12.6176 117.71 13.1753 117.966 13.8329C118.213 14.4689 118.382 15.1959 118.431 16.2603C118.479 17.3269 118.491 17.6674 118.491 20.3833C118.491 23.0991 118.479 23.4396 118.431 24.5062C118.382 25.5706 118.213 26.2975 117.966 26.9336C117.71 27.5912 117.368 28.1489 116.812 28.7049C116.256 29.2608 115.699 29.6027 115.041 29.8583C114.405 30.1055 113.678 30.2745 112.614 30.3231C111.547 30.3717 111.207 30.3832 108.491 30.3832C105.775 30.3832 105.434 30.3717 104.368 30.3231C103.303 30.2745 102.576 30.1055 101.94 29.8583C101.283 29.6027 100.725 29.2608 100.169 28.7049C99.6132 28.1489 99.2712 27.5912 99.0157 26.9336C98.7685 26.2975 98.5994 25.5706 98.5509 24.5062C98.5022 23.4396 98.4907 23.0991 98.4907 20.3833C98.4907 17.6674 98.5022 17.3269 98.5509 16.2603C98.5994 15.1959 98.7685 14.4689 99.0157 13.8329C99.2712 13.1753 99.6132 12.6176 100.169 12.0616C100.725 11.5057 101.283 11.1638 101.94 10.9082C102.576 10.661 103.303 10.492 104.368 10.4434C105.434 10.3948 105.775 10.3832 108.491 10.3832ZM108.491 12.0499C105.777 12.0499 105.455 12.0603 104.383 12.1092C103.392 12.1544 102.854 12.32 102.496 12.4592C102.021 12.6436 101.683 12.8638 101.327 13.2196C100.971 13.5752 100.751 13.9138 100.567 14.3883C100.427 14.7465 100.262 15.2847 100.217 16.2758C100.168 17.3476 100.157 17.6691 100.157 20.3833C100.157 23.0974 100.168 23.4189 100.217 24.4907C100.262 25.4818 100.427 26.02 100.567 26.3782C100.751 26.8526 100.971 27.1912 101.327 27.5469C101.683 27.9026 102.021 28.1229 102.496 28.3073C102.854 28.4465 103.392 28.6121 104.383 28.6573C105.455 28.7062 105.776 28.7166 108.491 28.7166C111.205 28.7166 111.527 28.7062 112.598 28.6573C113.589 28.6121 114.127 28.4465 114.486 28.3073C114.96 28.1229 115.299 27.9026 115.654 27.5469C116.01 27.1912 116.23 26.8526 116.415 26.3782C116.554 26.02 116.72 25.4818 116.765 24.4907C116.814 23.4189 116.824 23.0974 116.824 20.3833C116.824 17.6691 116.814 17.3476 116.765 16.2758C116.72 15.2847 116.554 14.7465 116.415 14.3883C116.23 13.9138 116.01 13.5752 115.654 13.2196C115.299 12.8638 114.96 12.6436 114.486 12.4592C114.127 12.32 113.589 12.1544 112.598 12.1092C111.526 12.0603 111.205 12.0499 108.491 12.0499ZM108.491 15.3832C111.252 15.3832 113.491 17.6218 113.491 20.3833C113.491 23.1447 111.252 25.3832 108.491 25.3832C105.729 25.3832 103.491 23.1447 103.491 20.3833C103.491 17.6218 105.729 15.3832 108.491 15.3832ZM108.491 23.7166C110.332 23.7166 111.824 22.2242 111.824 20.3833C111.824 18.5423 110.332 17.0499 108.491 17.0499C106.65 17.0499 105.157 18.5423 105.157 20.3833C105.157 22.2242 106.65 23.7166 108.491 23.7166ZM115.157 14.9666C115.157 15.657 114.598 16.2166 113.907 16.2166C113.217 16.2166 112.657 15.657 112.657 14.9666C112.657 14.2762 113.217 13.7166 113.907 13.7166C114.598 13.7166 115.157 14.2762 115.157 14.9666Z" fill="url(#paint2_linear_2647_816)"/>
<rect x="88.9907" y="0.88324" width="39" height="39" rx="8.5" stroke="url(#paint3_linear_2647_816)" stroke-opacity="0.6"/>
<rect x="132.491" y="0.38324" width="40" height="40" rx="9" fill="white" fill-opacity="0.9"/>
<path d="M155.666 23.3059C155.666 23.303 155.665 23.3 155.665 23.2971L155.672 23.3059L155.671 16.8094C156.922 17.7034 158.455 18.2286 160.11 18.2286V15.9076C159.626 15.7983 159.159 15.6183 158.734 15.353C158.247 15.049 157.826 14.6508 157.489 14.1879C156.631 13.5626 156.009 12.6407 155.768 11.5707H153.214V24.2867C153.214 25.6406 152.116 26.7385 150.762 26.7385C149.832 26.7385 149.032 26.2143 148.617 25.4513C147.854 25.0355 147.329 24.2361 147.329 23.3059C147.329 21.952 148.427 20.854 149.781 20.854C149.949 20.854 150.113 20.8712 150.272 20.9036V18.4272C147.252 18.6768 144.877 21.2022 144.877 24.2867C144.877 25.6617 145.353 26.9234 146.143 27.9247C147.144 28.7152 148.406 29.1904 149.781 29.1904C153.031 29.1904 155.666 26.5556 155.666 23.3059Z" fill="#131212"/>
<path d="M150.758 26.7422C152.112 26.7422 153.21 25.6443 153.21 24.2904V11.5749H155.764C155.758 11.5487 155.752 11.5227 155.745 11.4967C155.735 11.4547 155.724 11.4128 155.717 11.3695C155.695 11.2478 155.679 11.1267 155.667 11.0036V10.5942H152.229V23.3096C152.229 24.6635 151.131 25.7615 149.778 25.7615C149.354 25.7615 148.961 25.6443 148.613 25.455C149.029 26.218 149.828 26.7422 150.758 26.7422Z" fill="#4BCCEE"/>
<path d="M158.731 15.3572C159.156 15.6225 159.623 15.8025 160.107 15.9118V15.0492C159.273 15.0507 158.457 14.8173 157.75 14.3759C157.671 14.3265 157.595 14.2715 157.52 14.2164L157.486 14.1916C157.823 14.655 158.243 15.0532 158.731 15.3572Z" fill="#4BCCEE"/>
<path d="M150.268 17.4495V18.4302C147.248 18.6803 144.874 21.2057 144.874 24.2902C144.874 25.6652 145.349 26.9269 146.139 27.9283C144.773 26.8509 143.893 25.1846 143.893 23.3095C143.893 20.0597 146.528 17.4249 149.778 17.4249C149.943 17.4249 150.106 17.4362 150.268 17.4495Z" fill="#4BCCEE"/>
<path d="M157.489 14.1879C157.098 13.6514 156.82 13.0272 156.7 12.346C156.679 12.2244 156.663 12.1033 156.651 11.9802V11.5707H155.767C156.008 12.6407 156.631 13.5626 157.489 14.1879Z" fill="#E33152"/>
<path d="M149.781 20.8534C148.427 20.8534 147.329 21.9513 147.329 23.3053C147.329 24.2355 147.854 25.0348 148.617 25.4507C148.427 25.1025 148.31 24.7097 148.31 24.286C148.31 22.9321 149.408 21.8341 150.762 21.8341C150.93 21.8341 151.094 21.8513 151.252 21.8837V18.4265C151.09 18.4128 150.928 18.4015 150.762 18.4015C150.596 18.4015 150.434 18.4128 150.272 18.426V20.9024C150.113 20.8706 149.949 20.8534 149.781 20.8534Z" fill="#E33152"/>
<path d="M160.109 18.2285V15.9076C160.431 15.9797 160.758 16.0268 161.091 16.0258V19.2088C159.436 19.2088 157.903 18.6836 156.652 17.7897L156.653 24.2861L156.646 24.2773L156.646 24.2861C156.646 27.5359 154.012 30.1706 150.762 30.1706C148.887 30.1706 147.22 29.2904 146.143 27.9242C147.144 28.7147 148.406 29.1899 149.781 29.1899C153.031 29.1899 155.666 26.5551 155.666 23.3054L155.665 23.2966L155.672 23.3054L155.671 16.8094C156.922 17.7034 158.454 18.2285 160.109 18.2285Z" fill="#E33152"/>
<rect x="132.991" y="0.88324" width="39" height="39" rx="8.5" stroke="url(#paint4_linear_2647_816)" stroke-opacity="0.6"/>
<rect x="176.491" y="0.38324" width="40" height="40" rx="9" fill="white" fill-opacity="0.9"/>
<path fill-rule="evenodd" clip-rule="evenodd" d="M190.677 20.3827C190.677 19.7335 190.787 19.1107 190.985 18.5262L187.54 15.9534C186.868 17.2873 186.491 18.7901 186.491 20.3827C186.491 21.9752 186.868 23.4767 187.539 24.8093L190.981 22.2312C190.785 21.6493 190.677 21.0292 190.677 20.3827Z" fill="#FBBC05"/>
<path fill-rule="evenodd" clip-rule="evenodd" d="M196.725 14.4734C198.167 14.4734 199.47 14.9735 200.493 15.7915L203.47 12.8822C201.655 11.3372 199.33 10.3832 196.725 10.3832C192.681 10.3832 189.205 12.646 187.542 15.9525L190.986 18.5254C191.779 16.1689 194.041 14.4734 196.726 14.4734H196.725Z" fill="#EA4335"/>
<path d="M201.726 30.3859L203.535 25.227L205.344 30.3859L200.6 27.1956H206.468" fill="#FBBC05"/>
<path fill-rule="evenodd" clip-rule="evenodd" d="M201.618 28.6563L199.738 27.3923C199.368 27.1443 199.544 26.5677 199.99 26.5677H201.638L200.121 25.4198C199.198 25.9884 198.037 26.2945 196.722 26.2945C194.038 26.2945 191.777 24.5991 190.982 22.2426L187.538 24.8155C189.202 28.1219 192.677 30.3861 196.721 30.3861C198.378 30.3861 199.985 30.0008 201.401 29.2685L201.615 28.6576L201.618 28.6563Z" fill="#34A853"/>
<path fill-rule="evenodd" clip-rule="evenodd" d="M200.122 25.416L201.639 26.5639H202.352L203.119 24.3763C203.258 23.9831 203.815 23.9831 203.952 24.3763L204.677 26.4412C205.808 24.8552 206.492 22.8194 206.492 20.3811C206.492 19.79 206.4 19.154 206.26 18.5629H196.725V22.4262H202.213C201.939 23.743 201.191 24.7563 200.123 25.4147L200.122 25.416Z" fill="#4285F4"/>
<rect x="176.991" y="0.88324" width="39" height="39" rx="8.5" stroke="url(#paint5_linear_2647_816)" stroke-opacity="0.6"/>
<rect x="220.491" y="0.38324" width="40" height="40" rx="9" fill="white" fill-opacity="0.9"/>
<path d="M243.731 20.3747C243.731 19.9984 243.419 19.6864 243.042 19.6864H241.189V17.8326C241.189 17.4564 240.877 17.1443 240.5 17.1443C240.124 17.1443 239.812 17.4564 239.812 17.8326V19.6864H237.958C237.582 19.6864 237.27 19.9984 237.27 20.3747C237.27 20.7509 237.582 21.063 237.958 21.063H239.812V22.9168C239.812 23.293 240.124 23.605 240.5 23.605C240.877 23.605 241.189 23.293 241.189 22.9168V21.063H243.042C243.419 21.063 243.731 20.7509 243.731 20.3747ZM232.204 19.6864C232.544 19.6864 232.837 19.4478 232.883 19.1174C232.902 18.9798 233.03 18.4658 233.058 18.3282C233.122 18.007 232.938 17.6858 232.635 17.5665C232.232 17.4105 231.791 17.6491 231.699 18.0712C231.672 18.2089 231.644 18.3465 231.617 18.4842C231.543 18.9063 231.47 19.5946 232.204 19.6864ZM236.013 14.1067C236.132 14.0241 236.242 13.9323 236.371 13.8589C236.637 13.6846 236.728 13.3266 236.6 13.033C236.426 12.6292 235.939 12.5007 235.572 12.7393C235.453 12.8219 235.334 12.9045 235.214 12.9871C234.875 13.244 234.829 13.7304 235.132 14.0333C235.37 14.2719 235.737 14.3086 236.003 14.1067H236.013ZM234.141 14.9785C233.865 14.7032 233.406 14.7307 233.159 15.0336C233.003 15.2355 232.847 15.4466 232.709 15.6668C232.489 16.0155 232.654 16.4836 233.039 16.6396L233.085 16.6579C233.397 16.7864 233.737 16.6579 233.92 16.3643C234.021 16.1991 234.131 16.0431 234.251 15.8871C234.443 15.6209 234.434 15.2538 234.196 15.0244L234.15 14.9785H234.141ZM232.883 21.6687C232.828 21.3199 232.544 21.0538 232.186 21.0538C231.754 21.0538 231.424 21.4301 231.479 21.8614C231.663 23.2196 232.287 24.5503 233.104 25.6699C233.351 26.0094 233.847 26.0553 234.15 25.7525C234.397 25.5047 234.407 25.1284 234.205 24.8531C233.544 23.9262 233.076 22.8433 232.883 21.6778V21.6687ZM239.215 27.9917C238.05 27.799 236.967 27.331 236.04 26.6702C235.756 26.4683 235.361 26.4775 235.113 26.7253C234.81 27.0281 234.847 27.5329 235.187 27.799C236.26 28.6341 237.6 29.1389 239.014 29.3499C239.436 29.4142 239.821 29.093 239.821 28.6708C239.821 28.3221 239.564 28.0468 239.225 27.9917H239.215ZM241.785 12.7485C245.015 13.2899 247.567 15.8504 248.117 19.0807C248.172 19.4294 248.457 19.6864 248.806 19.6864C249.237 19.6864 249.558 19.301 249.503 18.8788C248.989 15.0978 245.896 11.9776 242.005 11.3719C241.583 11.3077 241.189 11.6289 241.189 12.051C241.189 12.3998 241.446 12.6751 241.794 12.7301L241.785 12.7485ZM244.97 26.6702C244.043 27.331 242.96 27.799 241.794 27.9917C241.446 28.056 241.179 28.3404 241.179 28.6892C241.179 29.1205 241.556 29.4509 241.987 29.3958C243.428 29.2214 244.694 28.5882 245.805 27.7623C246.144 27.5145 246.172 27.0189 245.878 26.7161C245.63 26.4683 245.254 26.4591 244.97 26.661V26.6702ZM248.796 21.063C248.448 21.063 248.172 21.3199 248.117 21.6595C247.925 22.825 247.457 23.9079 246.805 24.8348C246.603 25.1193 246.612 25.5139 246.869 25.7617C247.172 26.0645 247.677 26.0278 247.943 25.6882C248.787 24.6053 249.283 23.2747 249.494 21.8614C249.558 21.4392 249.237 21.0538 248.815 21.0538L248.796 21.063Z" fill="url(#paint6_linear_2647_816)"/>
<rect x="220.991" y="0.88324" width="39" height="39" rx="8.5" stroke="url(#paint7_linear_2647_816)" stroke-opacity="0.6"/>
<rect x="264.491" y="0.38324" width="40" height="40" rx="9" fill="white" fill-opacity="0.9"/>
<path fill-rule="evenodd" clip-rule="evenodd" d="M282.825 23.7973L282.824 17.964L287.824 20.8907L282.825 23.7973ZM294.291 16.8532C294.291 16.8532 294.095 15.4653 293.496 14.8541C292.735 14.0516 291.883 14.0478 291.492 14.0012C288.693 13.7973 284.495 13.7973 284.495 13.7973H284.486C284.486 13.7973 280.288 13.7973 277.489 14.0012C277.098 14.0478 276.246 14.0516 275.485 14.8541C274.886 15.4653 274.691 16.8532 274.691 16.8532C274.691 16.8532 274.491 18.4834 274.491 20.113V21.6413C274.491 23.2715 274.691 24.9011 274.691 24.9011C274.691 24.9011 274.886 26.289 275.485 26.9002C276.246 27.7028 277.246 27.6776 277.691 27.7613C279.291 27.9161 284.491 27.964 284.491 27.964C284.491 27.964 288.693 27.9577 291.492 27.7537C291.883 27.7065 292.735 27.7028 293.496 26.9002C294.095 26.289 294.291 24.9011 294.291 24.9011C294.291 24.9011 294.491 23.2715 294.491 21.6413V20.113C294.491 18.4834 294.291 16.8532 294.291 16.8532Z" fill="#FF0000"/>
<rect x="264.991" y="0.88324" width="39" height="39" rx="8.5" stroke="url(#paint8_linear_2647_816)" stroke-opacity="0.6"/>
<rect x="308.491" y="0.38324" width="40" height="40" rx="9" fill="white" fill-opacity="0.9"/>
<path d="M333.295 17.6414H330.077V15.8154C330.077 14.8732 330.154 14.2798 331.504 14.2798H333.209V11.3765C332.379 11.2907 331.545 11.2487 330.71 11.2505C328.233 11.2505 326.425 12.7633 326.425 15.5406V17.6414H323.686V21.2933L326.425 21.2924V29.5102H330.077V21.2906L332.876 21.2897L333.295 17.6414Z" fill="#3B5998"/>
<rect x="308.991" y="0.88324" width="39" height="39" rx="8.5" stroke="url(#paint9_linear_2647_816)" stroke-opacity="0.6"/>
<rect x="352.491" y="0.38324" width="40" height="40" rx="9" fill="white" fill-opacity="0.9"/>
<path d="M372.531 28.7464H372.534C377.174 28.7464 380.95 24.9582 380.952 20.3023C380.953 18.0459 380.078 15.9243 378.489 14.3283C376.899 12.7324 374.786 11.8529 372.537 11.852C367.894 11.852 364.118 15.6397 364.116 20.2954C364.115 21.8909 364.56 23.4446 365.403 24.7892L365.603 25.1086L364.752 28.2245L367.939 27.3863L368.246 27.5692C369.538 28.3386 371.02 28.7456 372.531 28.7464Z" fill="url(#paint10_linear_2647_816)"/>
<path fill-rule="evenodd" clip-rule="evenodd" d="M370 16.0467C369.811 15.6238 369.611 15.6154 369.431 15.608C369.283 15.6016 369.115 15.602 368.946 15.602C368.777 15.602 368.503 15.6656 368.271 15.9197C368.039 16.1738 367.385 16.7881 367.385 18.0373C367.385 19.2868 368.292 20.494 368.419 20.6636C368.545 20.8329 370.169 23.4785 372.742 24.4963C374.879 25.3422 375.314 25.174 375.779 25.1316C376.243 25.0893 377.276 24.5175 377.487 23.9245C377.698 23.3317 377.698 22.8235 377.634 22.7173C377.571 22.6115 377.402 22.548 377.149 22.421C376.896 22.294 375.652 21.6796 375.42 21.595C375.188 21.5103 375.019 21.468 374.85 21.7222C374.682 21.9762 374.197 22.548 374.049 22.7173C373.902 22.887 373.754 22.9082 373.501 22.7812C373.248 22.6538 372.433 22.386 371.466 21.5209C370.714 20.8479 370.206 20.0167 370.058 19.7625C369.91 19.5086 370.042 19.371 370.169 19.2444C370.283 19.1307 370.422 18.948 370.549 18.7997C370.675 18.6514 370.717 18.5456 370.802 18.3763C370.886 18.2067 370.844 18.0585 370.781 17.9315C370.717 17.8045 370.225 16.5488 370 16.0467Z" fill="white"/>
<path d="M379.697 13.1126C377.784 11.1925 375.242 10.1344 372.532 10.1332C366.949 10.1332 362.406 14.6905 362.404 20.2919C362.403 22.0825 362.869 23.8303 363.756 25.371L362.319 30.6353L367.688 29.2227C369.167 30.0321 370.833 30.4587 372.528 30.4594H372.532C378.114 30.4594 382.658 25.9014 382.661 20.3001C382.662 17.5854 381.609 15.0329 379.697 13.1126ZM372.532 28.7436H372.529C371.018 28.7428 369.537 28.3358 368.244 27.5664L367.937 27.3835L364.751 28.2217L365.601 25.1058L365.401 24.7864C364.558 23.4418 364.113 21.888 364.114 20.2926C364.116 15.6369 367.892 11.8492 372.536 11.8492C374.784 11.8501 376.898 12.7296 378.487 14.3255C380.077 15.9215 380.951 18.0431 380.951 20.2995C380.949 24.9554 377.172 28.7436 372.532 28.7436Z" fill="white"/>
<rect x="352.991" y="0.88324" width="39" height="39" rx="8.5" stroke="url(#paint11_linear_2647_816)" stroke-opacity="0.6"/>
<rect x="396.491" y="0.38324" width="40" height="40" rx="9" fill="white" fill-opacity="0.9"/>
<g clip-path="url(#clip0_2647_816)">
<path d="M416.491 29.7114C421.643 29.7114 425.819 25.535 425.819 20.3832C425.819 15.2315 421.643 11.0551 416.491 11.0551C411.339 11.0551 407.163 15.2315 407.163 20.3832C407.163 25.535 411.339 29.7114 416.491 29.7114Z" fill="url(#paint12_linear_2647_816)"/>
<path d="M412.288 21.564L413.734 25.5687C413.734 25.5687 413.915 25.9434 414.109 25.9434C414.303 25.9434 417.184 22.9463 417.184 22.9463L420.388 16.7582L412.339 20.5303L412.288 21.564Z" fill="#C8DAEA"/>
<path d="M414.203 22.602L413.925 25.5538C413.925 25.5538 413.809 26.4583 414.713 25.5538C415.618 24.6493 416.483 23.9519 416.483 23.9519" fill="#A9C6D8"/>
<path d="M412.313 21.7119L409.337 20.7422C409.337 20.7422 408.981 20.5979 409.095 20.2706C409.119 20.2031 409.167 20.1457 409.309 20.0471C409.968 19.5874 421.515 15.4373 421.515 15.4373C421.515 15.4373 421.841 15.3274 422.033 15.4005C422.081 15.4152 422.123 15.4423 422.157 15.479C422.191 15.5157 422.214 15.5607 422.225 15.6093C422.245 15.6953 422.254 15.7837 422.25 15.872C422.25 15.9485 422.24 16.0193 422.233 16.1304C422.163 17.265 420.058 25.7333 420.058 25.7333C420.058 25.7333 419.933 26.2289 419.481 26.2458C419.371 26.2494 419.26 26.2306 419.157 26.1906C419.053 26.1506 418.959 26.0902 418.879 26.0129C417.994 25.2514 414.934 23.1951 414.258 22.7429C414.243 22.7325 414.23 22.719 414.221 22.7032C414.211 22.6874 414.205 22.6697 414.203 22.6514C414.193 22.6038 414.245 22.5447 414.245 22.5447C414.245 22.5447 419.573 17.8089 419.715 17.3118C419.726 17.2733 419.684 17.2543 419.629 17.2711C419.275 17.4013 413.14 21.2752 412.463 21.7027C412.415 21.7175 412.363 21.7206 412.313 21.7119Z" fill="white"/>
</g>
<rect x="396.991" y="0.88324" width="39" height="39" rx="8.5" stroke="url(#paint13_linear_2647_816)" stroke-opacity="0.6"/>
<rect x="0.490723" y="44.3832" width="40" height="40" rx="9" fill="white" fill-opacity="0.9"/>
<path fill-rule="evenodd" clip-rule="evenodd" d="M30.4918 73.4699H25.9314V66.9464C25.9314 65.2389 25.218 64.0733 23.6493 64.0733C22.4495 64.0733 21.7822 64.8599 21.4716 65.618C21.3552 65.8901 21.3734 66.2691 21.3734 66.6482V73.4699H16.8554C16.8554 73.4699 16.9137 61.9142 16.8554 60.8638H21.3734V62.8422C21.6403 61.9772 23.084 60.7426 25.3879 60.7426C28.2462 60.7426 30.4918 62.5559 30.4918 66.4604V73.4699ZM11.4009 60.7426H15.0372V73.4699H11.4009V60.7426Z" fill="#0077B5"/>
<path d="M13.2577 59.3832H13.2816C14.5201 59.3832 15.2915 58.4987 15.2915 57.3816C15.2676 56.2439 14.5201 55.3832 13.3044 55.3832C12.0877 55.3832 11.2915 56.246 11.2915 57.3849C11.2915 58.502 12.0649 59.3832 13.2577 59.3832Z" fill="#0077B5"/>
<rect x="0.990723" y="44.8832" width="39" height="39" rx="8.5" stroke="url(#paint14_linear_2647_816)" stroke-opacity="0.6"/>
<rect x="44.4907" y="44.3832" width="40" height="40" rx="9" fill="white" fill-opacity="0.9"/>
<path d="M64.4907 74.0786C69.8453 74.0786 74.186 69.7378 74.186 64.3832C74.186 59.0287 69.8453 54.6879 64.4907 54.6879C59.1361 54.6879 54.7954 59.0287 54.7954 64.3832C54.7954 69.7378 59.1361 74.0786 64.4907 74.0786Z" fill="#131212"/>
<path d="M67.7132 59.3163H69.4323L65.6765 63.6089L70.0949 69.4501H66.6354L63.9257 65.9075L60.8253 69.4501H59.1052L63.1223 64.8588L58.8838 59.3163H62.4311L64.8804 62.5545L67.7132 59.3163ZM67.1098 68.4212H68.0624L61.9135 60.2913H60.8913L67.1098 68.4212Z" fill="#E7E9EA"/>
<rect x="44.9907" y="44.8832" width="39" height="39" rx="8.5" stroke="url(#paint15_linear_2647_816)" stroke-opacity="0.6"/>
<rect x="88.4907" y="44.3832" width="40" height="40" rx="9" fill="white" fill-opacity="0.9"/>
<path d="M103.16 57.7977C102.354 57.7987 101.547 57.802 100.739 57.802H100.497C99.8269 62.5313 99.1611 67.239 98.4907 71.964H102.746C102.997 70.1997 103.249 68.4397 103.5 66.6798H103.551C103.919 68.4354 104.287 70.191 104.655 71.9552H109.166C108.458 69.8615 107.755 67.7851 107.052 65.6957C107.136 65.6567 107.206 65.6264 107.28 65.6047C108.142 65.2276 108.896 64.7248 109.422 63.9662C110.009 63.1165 110.204 62.1715 110.148 61.1788C110.088 60.1168 109.618 59.2498 108.682 58.6213C107.755 58.0014 106.689 57.815 105.581 57.8063C104.773 57.7976 103.967 57.7966 103.16 57.7977V57.7977ZM104.632 60.7522C105.3 60.759 105.752 61.188 105.772 61.8594C105.786 62.3926 105.721 62.9085 105.432 63.381C105.403 63.4267 105.37 63.4701 105.335 63.5124C105.318 63.5337 105.3 63.5546 105.28 63.5749C104.944 63.9429 104.375 64.1533 103.863 64.0789C104.017 62.9735 104.175 61.8724 104.329 60.7757C104.362 60.7704 104.395 60.7665 104.428 60.7631C104.498 60.7553 104.566 60.7515 104.632 60.7522Z" fill="#94C120"/>
<path d="M112.533 57.7976C112.329 57.7932 112.238 57.8409 112.167 58.0271C110.506 62.3623 108.835 66.6975 107.169 71.0326C107.055 71.3358 106.941 71.639 106.823 71.9595C108.147 71.9595 109.433 71.9508 110.724 71.9638C110.981 71.9681 111.09 71.9032 111.151 71.6693C111.308 71.0717 111.503 70.4783 111.683 69.8937H114.251V71.9421H118.489C118.043 67.2215 117.597 62.5225 117.146 57.7976C117.028 57.7976 116.937 57.7975 116.852 57.8019C115.414 57.8019 113.971 57.8062 112.533 57.7976V57.7976ZM114.08 61.9422C114.094 61.9422 114.108 61.9422 114.123 61.9466C114.161 63.6226 114.199 65.2986 114.232 66.992H112.533C113.05 65.2943 113.567 63.6182 114.08 61.9422Z" fill="#056734"/>
<rect x="88.9907" y="44.8832" width="39" height="39" rx="8.5" stroke="url(#paint16_linear_2647_816)" stroke-opacity="0.6"/>
<rect x="132.491" y="44.3832" width="40" height="40" rx="9" fill="white" fill-opacity="0.9"/>
<g clip-path="url(#clip1_2647_816)">
<path d="M163.509 63.9732C163.509 60.0033 158.576 56.7661 152.49 56.7661C146.404 56.7661 141.471 60.0033 141.471 63.9732C141.471 64.0758 141.471 64.3593 141.471 64.3956C141.471 68.6079 145.783 72.0192 152.49 72.0192C159.238 72.0192 163.51 68.6087 163.51 64.396L163.509 63.9732Z" fill="#2D3277"/>
<path d="M163.088 63.9659C163.088 67.7092 158.344 70.7435 152.492 70.7435C146.639 70.7435 141.897 67.7092 141.897 63.9659C141.897 60.2226 146.641 57.1879 152.492 57.1879C158.343 57.1879 163.088 60.2226 163.088 63.9659Z" fill="#F7D032"/>
<path d="M148.975 61.8283C148.97 61.8394 148.864 61.9468 148.932 62.0364C149.1 62.2499 149.616 62.3727 150.139 62.2555C150.449 62.1856 150.849 61.8686 151.234 61.5622C151.653 61.2298 152.068 60.897 152.485 60.7644C152.927 60.6234 153.21 60.6854 153.397 60.7411C153.602 60.8023 153.844 60.9385 154.228 61.2259C154.954 61.7707 157.869 64.3154 158.374 64.7556C158.779 64.572 160.582 63.7959 163.032 63.2555C162.819 61.9491 162.024 60.7541 160.821 59.7762C159.138 60.4817 157.087 60.85 155.08 59.8694C155.07 59.8655 153.984 59.3511 152.912 59.3763C151.321 59.4134 150.63 60.1027 149.9 60.8319L148.975 61.8283Z" fill="white"/>
<path d="M158.251 65.0412C158.216 65.0108 154.823 62.0409 154.054 61.4637C153.61 61.1297 153.362 61.0449 153.102 61.0121C152.95 60.9995 152.797 61.0141 152.65 61.0551C152.292 61.1522 151.824 61.4649 151.409 61.7942C150.979 62.1368 150.573 62.4594 150.198 62.5442C149.717 62.652 149.132 62.5249 148.863 62.3441C148.767 62.2857 148.691 62.2016 148.641 62.1013C148.543 61.8715 148.724 61.6884 148.755 61.658L149.691 60.6449C149.8 60.536 149.909 60.4274 150.022 60.3208C149.733 60.3639 149.448 60.4281 149.169 60.5131C148.829 60.6082 148.503 60.699 148.173 60.699C148.035 60.699 147.296 60.5778 147.156 60.5411C146.309 60.309 145.565 60.0836 144.454 59.5648C143.123 60.5553 142.232 61.7945 141.975 63.1597C142.166 63.2106 142.475 63.3022 142.604 63.3306C145.617 64.0018 146.555 64.6911 146.726 64.8352C146.825 64.7223 146.95 64.6335 147.089 64.5757C147.228 64.5178 147.379 64.4924 147.529 64.5012C147.68 64.51 147.827 64.5529 147.958 64.6266C148.09 64.7003 148.203 64.803 148.289 64.9267C148.492 64.7624 148.746 64.6732 149.007 64.6741C149.154 64.6755 149.299 64.7009 149.437 64.7495C149.572 64.7925 149.695 64.8636 149.8 64.9581C149.904 65.0525 149.988 65.1682 150.044 65.2974C150.176 65.2377 150.318 65.2074 150.463 65.2086C150.636 65.2108 150.806 65.2484 150.964 65.3192C151.52 65.556 151.606 66.1028 151.556 66.5142C151.595 66.5096 151.635 66.5073 151.674 66.5074C151.881 66.5074 152.084 66.5609 152.264 66.6628C152.443 66.7646 152.593 66.9114 152.699 67.0887C152.805 67.2659 152.863 67.4677 152.868 67.6741C152.873 67.8806 152.824 68.0848 152.726 68.2666C152.904 68.3669 153.362 68.5951 153.762 68.5429C154.083 68.5035 154.205 68.3925 154.248 68.3313C154.278 68.2883 154.31 68.2397 154.28 68.2038L153.432 67.2579C153.432 67.2579 153.292 67.1261 153.338 67.0747C153.384 67.0234 153.472 67.0976 153.533 67.1486C153.967 67.5098 154.494 68.0566 154.494 68.0566C154.503 68.0629 154.538 68.1312 154.734 68.1663C154.901 68.1967 155.199 68.179 155.405 68.0084C155.459 67.963 155.508 67.9122 155.552 67.8568C155.55 67.8598 155.546 67.8625 155.543 67.8647C155.76 67.5864 155.518 67.3053 155.518 67.3053L154.526 66.1904C154.526 66.1904 154.384 66.0598 154.433 66.0069C154.475 65.9611 154.567 66.0302 154.63 66.0815C154.946 66.3444 155.389 66.7897 155.815 67.2066C155.898 67.2674 156.272 67.4991 156.767 67.1738C157.068 66.9764 157.128 66.7344 157.119 66.5517C157.098 66.3101 156.91 66.1375 156.91 66.1375L155.554 64.7748C155.554 64.7748 155.411 64.6528 155.461 64.5908C155.503 64.5391 155.595 64.6141 155.656 64.6646C156.091 65.0262 157.257 66.0981 157.257 66.0981C157.274 66.1095 157.678 66.3969 158.177 66.0791C158.355 65.9654 158.47 65.7937 158.48 65.5935C158.484 65.4905 158.465 65.3878 158.426 65.2924C158.387 65.197 158.327 65.1112 158.252 65.0408" fill="white"/>
<path d="M151.679 66.77C151.469 66.7677 151.239 66.8928 151.209 66.8742C151.192 66.8632 151.222 66.7791 151.241 66.7301C151.261 66.6812 151.538 65.8494 150.863 65.5596C150.347 65.3382 150.031 65.5873 149.922 65.7006C149.895 65.7298 149.883 65.7274 149.879 65.6895C149.868 65.5399 149.8 65.1337 149.355 64.9982C148.719 64.8032 148.308 65.2474 148.205 65.4076C148.184 65.2431 148.107 65.0907 147.989 64.975C147.87 64.8593 147.715 64.7871 147.55 64.77C147.385 64.7529 147.219 64.7919 147.079 64.8808C146.939 64.9697 146.833 65.1032 146.778 65.2598C146.723 65.4164 146.723 65.5869 146.777 65.7437C146.831 65.9006 146.936 66.0346 147.076 66.1242C147.216 66.2138 147.381 66.2537 147.547 66.2374C147.712 66.2211 147.866 66.1497 147.986 66.0345C147.99 66.0389 147.991 66.0456 147.99 66.0598C147.959 66.2426 147.901 66.907 148.597 67.1778C148.876 67.2856 149.113 67.2055 149.31 67.0673C149.368 67.0258 149.378 67.0432 149.37 67.0985C149.344 67.2694 149.376 67.635 149.889 67.8434C150.28 68.0013 150.511 67.8399 150.662 67.6993C150.728 67.6397 150.746 67.6492 150.749 67.7424C150.758 67.9243 150.819 68.0999 150.926 68.2472C151.033 68.3945 151.182 68.5071 151.352 68.571C151.523 68.635 151.708 68.6474 151.886 68.6069C152.063 68.5663 152.225 68.4744 152.351 68.3428C152.477 68.2111 152.561 68.0453 152.594 67.8661C152.626 67.6869 152.605 67.5021 152.534 67.3346C152.462 67.1671 152.343 67.0243 152.191 66.9239C152.039 66.8236 151.861 66.7701 151.679 66.77Z" fill="white"/>
<path d="M151.68 68.5605C151.457 68.5618 151.243 68.4766 151.082 68.3229C150.921 68.1691 150.827 67.9589 150.818 67.7366C150.818 67.6971 150.813 67.5921 150.724 67.5921C150.683 67.5969 150.646 67.6164 150.619 67.647C150.516 67.7425 150.386 67.8389 150.196 67.8389C150.1 67.8368 150.005 67.8162 149.917 67.7781C149.425 67.5807 149.419 67.2412 149.438 67.1069C149.443 67.0894 149.444 67.0709 149.441 67.053C149.438 67.035 149.431 67.018 149.42 67.0031L149.39 66.9767H149.359C149.328 66.9788 149.298 66.9908 149.274 67.011C149.154 67.1034 149.008 67.1555 148.856 67.1598C148.777 67.1591 148.698 67.1434 148.623 67.1136C147.976 66.8618 148.027 66.2506 148.058 66.0667C148.061 66.0513 148.061 66.0353 148.056 66.0203C148.051 66.0053 148.042 65.9919 148.03 65.9814L147.984 65.9419L147.942 65.9834C147.833 66.0888 147.691 66.1544 147.541 66.1696C147.39 66.1847 147.238 66.1485 147.111 66.0668C146.983 65.9852 146.887 65.8628 146.837 65.7195C146.788 65.5762 146.788 65.4204 146.838 65.2774C146.888 65.1343 146.985 65.0124 147.113 64.9312C147.241 64.8501 147.393 64.8146 147.544 64.8304C147.694 64.8462 147.835 64.9125 147.944 65.0184C148.052 65.1243 148.122 65.2638 148.141 65.4141L148.164 65.5941L148.263 65.4413C148.274 65.4236 148.546 65.0126 149.046 65.0134C149.145 65.0139 149.243 65.0292 149.338 65.0588C149.736 65.1804 149.803 65.542 149.814 65.6905C149.821 65.7781 149.884 65.7824 149.896 65.7824C149.911 65.7816 149.926 65.7776 149.939 65.7709C149.953 65.7641 149.965 65.7546 149.975 65.743C150.039 65.6765 150.115 65.6238 150.2 65.5881C150.285 65.5523 150.376 65.5342 150.468 65.5349C150.596 65.5372 150.722 65.5657 150.839 65.6186C151.471 65.8902 151.185 66.6948 151.182 66.7031C151.127 66.8361 151.125 66.8945 151.176 66.9289L151.201 66.9407H151.22C151.262 66.9357 151.303 66.925 151.342 66.9087C151.45 66.8661 151.564 66.841 151.68 66.8345C151.795 66.8321 151.909 66.8526 152.016 66.8949C152.123 66.9371 152.22 67.0003 152.302 67.0807C152.384 67.1611 152.45 67.2571 152.494 67.3631C152.539 67.469 152.562 67.5828 152.562 67.6977C152.562 67.8127 152.539 67.9264 152.494 68.0324C152.45 68.1383 152.384 68.2343 152.302 68.3147C152.22 68.3951 152.123 68.4583 152.016 68.5006C151.909 68.5429 151.795 68.5634 151.68 68.5609M158.387 64.6842C157.341 63.7722 154.925 61.6716 154.271 61.1809C153.897 60.8998 153.643 60.7509 153.418 60.6842C153.283 60.6417 153.142 60.6198 153 60.6195C152.819 60.6215 152.639 60.6513 152.467 60.7079C152.045 60.8421 151.623 61.1769 151.216 61.5006L151.195 61.5172C150.816 61.8192 150.423 62.1311 150.126 62.1978C149.997 62.2267 149.864 62.2414 149.732 62.2416C149.399 62.2416 149.1 62.1453 148.988 62.0024C148.97 61.9787 148.982 61.9404 149.025 61.884L149.03 61.8765L149.95 60.8856C150.67 60.1659 151.35 59.4869 152.916 59.4509H152.995C153.97 59.4509 154.945 59.888 155.054 59.9385C155.968 60.3846 156.909 60.6096 157.859 60.6116C158.846 60.6116 159.867 60.3672 160.938 59.8737C160.82 59.7731 160.694 59.6764 160.566 59.5788C159.624 59.987 158.726 60.1931 157.861 60.1927C156.976 60.1927 156.093 59.9799 155.235 59.5611C155.19 59.539 154.114 59.0321 152.994 59.0317H152.906C151.591 59.0629 150.85 59.5295 150.351 59.9397C149.867 59.9515 149.449 60.0688 149.077 60.1718C148.745 60.2646 148.458 60.3447 148.178 60.3443C148.064 60.3443 147.856 60.3337 147.838 60.3333C147.516 60.3234 145.896 59.9263 144.608 59.4379C144.476 59.5315 144.35 59.6278 144.226 59.7257C145.573 60.2784 147.211 60.704 147.728 60.7375C147.871 60.747 148.025 60.7632 148.178 60.764C148.52 60.764 148.861 60.668 149.191 60.5753C149.389 60.5204 149.602 60.4612 149.829 60.4174C149.768 60.4762 149.708 60.5358 149.647 60.597L148.713 61.608C148.64 61.6818 148.48 61.8796 148.585 62.124C148.639 62.2364 148.725 62.3309 148.831 62.3964C149.054 62.5468 149.452 62.6479 149.823 62.6479C149.956 62.6488 150.088 62.6349 150.218 62.6064C150.609 62.5188 151.02 62.1915 151.455 61.8457C151.802 61.5693 152.295 61.2203 152.672 61.1177C152.782 61.0882 152.896 61.0726 153.011 61.0711C153.04 61.0712 153.069 61.0728 153.098 61.0759C153.348 61.1078 153.588 61.1943 154.019 61.5152C154.786 62.0916 158.179 65.0604 158.213 65.0896C158.28 65.1535 158.333 65.231 158.368 65.3171C158.404 65.4031 158.42 65.4957 158.416 65.5886C158.408 65.7619 158.312 65.9155 158.145 66.0229C158.013 66.1107 157.858 66.1588 157.7 66.1614C157.56 66.1614 157.423 66.122 157.305 66.0477C157.292 66.0375 156.13 64.9712 155.702 64.6127C155.634 64.5562 155.568 64.5053 155.501 64.5053C155.484 64.5051 155.467 64.5087 155.452 64.516C155.436 64.5232 155.423 64.5339 155.412 64.5472C155.345 64.6305 155.42 64.7446 155.509 64.8208L156.867 66.1859C156.867 66.1879 157.037 66.3438 157.055 66.5542C157.066 66.7804 156.957 66.9695 156.732 67.1172C156.591 67.2163 156.423 67.2713 156.251 67.2751C156.113 67.2744 155.978 67.2332 155.864 67.1567L155.669 66.9644C155.313 66.6142 154.945 66.2538 154.676 66.0272C154.61 65.9727 154.54 65.9222 154.473 65.9222C154.457 65.9221 154.442 65.9252 154.427 65.9314C154.412 65.9376 154.399 65.9467 154.388 65.9581C154.357 65.9929 154.336 66.054 154.412 66.1555C154.433 66.1827 154.456 66.2081 154.481 66.2317L155.472 67.3454C155.48 67.3552 155.676 67.5874 155.494 67.8191L155.459 67.8637C155.43 67.8952 155.4 67.9248 155.367 67.9522C155.198 68.0911 154.972 68.1057 154.883 68.1057C154.838 68.1061 154.793 68.1024 154.749 68.0947C154.651 68.0773 154.585 68.0497 154.553 68.0122L154.542 67.9999C154.488 67.9439 153.989 67.4338 153.574 67.0884C153.52 67.043 153.452 66.9857 153.381 66.9857C153.365 66.9856 153.348 66.989 153.332 66.9959C153.317 67.0027 153.303 67.0127 153.292 67.0252C153.21 67.1148 153.332 67.2491 153.385 67.2976L154.231 68.2301C154.223 68.2505 154.212 68.2695 154.199 68.2865C154.168 68.3292 154.066 68.4318 153.759 68.4701C153.722 68.4747 153.685 68.477 153.647 68.4768C153.331 68.4768 152.993 68.3232 152.818 68.2313C152.898 68.0649 152.94 67.8829 152.941 67.6983C152.941 67.3637 152.808 67.0428 152.572 66.806C152.336 66.5692 152.015 66.4357 151.681 66.435H151.635C151.657 66.1192 151.613 65.5156 150.995 65.2507C150.829 65.1762 150.65 65.1367 150.468 65.1346C150.336 65.1338 150.205 65.1576 150.082 65.2049C150.018 65.0811 149.931 64.9711 149.825 64.8811C149.719 64.791 149.597 64.7228 149.464 64.6802C149.319 64.629 149.166 64.6023 149.012 64.6013C148.759 64.5997 148.513 64.6785 148.307 64.8263C148.214 64.7093 148.097 64.6134 147.964 64.5448C147.831 64.4762 147.685 64.4364 147.536 64.4281C147.386 64.4197 147.237 64.443 147.097 64.4964C146.957 64.5498 146.83 64.632 146.725 64.7378C146.462 64.5369 145.417 63.8737 142.624 63.2377C142.489 63.2069 142.178 63.1192 141.988 63.062C141.956 63.2135 141.932 63.3665 141.917 63.5203C141.917 63.5203 142.43 63.6443 142.533 63.6672C145.387 64.3008 146.33 64.9601 146.489 65.0845C146.422 65.247 146.395 65.4237 146.412 65.5988C146.429 65.774 146.489 65.9423 146.587 66.0888C146.684 66.2352 146.817 66.3554 146.972 66.4385C147.127 66.5216 147.3 66.5652 147.476 66.5653C147.542 66.5656 147.609 66.5597 147.674 66.5475C147.763 66.9818 148.047 67.3102 148.481 67.4792C148.602 67.527 148.731 67.552 148.862 67.553C148.944 67.5531 149.026 67.5429 149.105 67.5226C149.184 67.7263 149.366 67.9798 149.769 68.1432C149.902 68.199 150.045 68.2285 150.189 68.2301C150.3 68.2302 150.41 68.2105 150.515 68.172C150.594 68.3656 150.72 68.5365 150.881 68.6692C151.043 68.8019 151.235 68.8923 151.44 68.9323C151.646 68.9722 151.858 68.9605 152.057 68.8981C152.257 68.8356 152.438 68.7245 152.583 68.5747C152.787 68.688 153.215 68.8929 153.649 68.8933C153.703 68.893 153.757 68.8895 153.811 68.883C154.242 68.8286 154.443 68.6596 154.535 68.5277C154.552 68.5046 154.567 68.4802 154.58 68.4547C154.69 68.4887 154.806 68.5066 154.922 68.508C155.159 68.508 155.383 68.4291 155.611 68.2617C155.84 68.0943 155.996 67.8669 156.018 67.6695C156.019 67.6665 156.019 67.6634 156.018 67.6604C156.094 67.6762 156.172 67.6841 156.249 67.6841C156.503 67.6812 156.751 67.6029 156.96 67.4591C157.4 67.1713 157.476 66.7947 157.469 66.5479C157.546 66.5641 157.624 66.5723 157.703 66.5724C157.939 66.5697 158.17 66.4988 158.367 66.3683C158.498 66.2884 158.607 66.1789 158.687 66.0485C158.768 65.9182 158.816 65.7707 158.828 65.6182C158.845 65.4056 158.793 65.1933 158.682 65.0114C159.418 64.6956 161.102 64.0797 163.084 63.6329C163.071 63.4797 163.051 63.3272 163.022 63.1761C161.432 63.5277 159.879 64.0322 158.386 64.6826" fill="#2D3277"/>
</g>
<rect x="132.991" y="44.8832" width="39" height="39" rx="8.5" stroke="url(#paint17_linear_2647_816)" stroke-opacity="0.6"/>
<rect x="176.491" y="44.3832" width="40" height="40" rx="9" fill="white" fill-opacity="0.9"/>
<path fill-rule="evenodd" clip-rule="evenodd" d="M197.465 72.1459V75.2059L198.965 74.2424C200.068 73.5352 205.597 69.7318 206.178 64.3521C206.213 64.0462 206.233 63.7374 206.233 63.4247C206.233 58.5896 201.863 54.6567 196.491 54.6567C191.119 54.6567 186.749 58.5896 186.749 63.4247C186.749 68.5491 191.653 72.7032 197.465 72.1459ZM195.628 62.0982L195.628 65.1117L198.211 63.6102L195.628 62.0982ZM201.141 60.4917C201.45 60.8074 201.551 61.5244 201.551 61.5244C201.551 61.5244 201.655 62.3666 201.655 63.2084V63.9979C201.655 64.8401 201.551 65.6819 201.551 65.6819C201.551 65.6819 201.45 66.3989 201.141 66.7147C200.787 67.0882 200.394 67.1268 200.172 67.1486C200.148 67.151 200.126 67.1532 200.106 67.1556C198.66 67.2609 196.489 67.2642 196.489 67.2642C196.489 67.2642 193.802 67.2395 192.976 67.1595C192.937 67.1521 192.889 67.1464 192.835 67.1399C192.574 67.1083 192.163 67.0586 191.836 66.7147C191.527 66.3989 191.426 65.6819 191.426 65.6819C191.426 65.6819 191.323 64.8401 191.323 63.9979V63.2084C191.323 62.3666 191.426 61.5244 191.426 61.5244C191.426 61.5244 191.527 60.8074 191.836 60.4917C192.191 60.1177 192.584 60.0795 192.806 60.0579C192.83 60.0556 192.852 60.0534 192.872 60.0511C194.318 59.9457 196.486 59.9457 196.486 59.9457H196.491C196.491 59.9457 198.66 59.9457 200.106 60.0511C200.125 60.0534 200.147 60.0556 200.171 60.0579C200.393 60.0795 200.786 60.1177 201.141 60.4917Z" fill="#FF0000"/>
<rect x="176.991" y="44.8832" width="39" height="39" rx="8.5" stroke="url(#paint18_linear_2647_816)" stroke-opacity="0.6"/>
<rect x="220.491" y="44.3832" width="40" height="40" rx="9" fill="white" fill-opacity="0.9"/>
<g clip-path="url(#clip2_2647_816)">
<path fill-rule="evenodd" clip-rule="evenodd" d="M240.491 54.3832C234.991 54.3832 230.491 58.8832 230.491 64.3832C230.491 69.8832 234.991 74.3832 240.491 74.3832C245.991 74.3832 250.491 69.8832 250.491 64.3832C250.491 58.8832 246.041 54.3832 240.491 54.3832Z" fill="#EA1D2C"/>
<path d="M236.237 64.9891C238.976 64.9891 240.876 62.5084 240.876 60.479C240.876 58.9651 239.491 58.3207 238.138 58.3207C235.141 58.3207 233.499 60.9959 233.499 62.8308C233.499 64.3447 234.917 64.9891 236.237 64.9891ZM243.583 64.9892C246.321 64.9892 248.221 62.5085 248.221 60.4791C248.221 58.9652 246.804 58.3207 245.451 58.3207C242.455 58.3207 240.812 60.9945 240.812 62.8308C240.812 64.3447 242.262 64.9892 243.583 64.9892ZM244.838 69.66C243.038 71.1517 240.726 71.88 238.396 71.6893C235.335 71.496 233.145 69.1443 232.758 66.6639H232.887C233.596 68.2118 235.303 69.6599 237.397 69.8852C239.522 70.1429 242.068 69.1767 243.453 67.8559L241.907 66.664H246.578L245.546 71.6251L244.869 69.6922L244.838 69.66Z" fill="white"/>
</g>
<rect x="220.991" y="44.8832" width="39" height="39" rx="8.5" stroke="url(#paint19_linear_2647_816)" stroke-opacity="0.6"/>
<rect x="264.491" y="44.3832" width="40" height="40" rx="9" fill="white" fill-opacity="0.9"/>
<path fill-rule="evenodd" clip-rule="evenodd" d="M294.391 59.9449C294.305 61.8068 292.955 64.3518 290.351 67.5813C287.656 70.9583 285.373 72.6456 283.506 72.6456C282.352 72.6456 281.375 71.619 280.576 69.5591C280.041 67.6691 279.51 65.7792 278.976 63.8948C278.381 61.8338 277.745 60.8038 277.064 60.8038C276.916 60.8038 276.4 61.1044 275.509 61.7066L274.577 60.546C275.553 59.7187 276.516 58.888 277.466 58.0595C278.767 56.9721 279.745 56.4014 280.398 56.3418C281.936 56.1977 282.885 57.2141 283.243 59.3878C283.624 61.7347 283.892 63.1936 284.04 63.7654C284.486 65.7105 284.973 66.6808 285.507 66.6808C285.92 66.6808 286.543 66.0527 287.373 64.7954C288.203 63.5358 288.644 62.579 288.705 61.9193C288.824 60.832 288.38 60.2916 287.373 60.2916C286.898 60.2916 286.409 60.3884 285.906 60.5911C286.886 57.5304 288.751 56.0423 291.506 56.129C293.547 56.1842 294.511 57.4584 294.391 59.9449Z" fill="#1AB7EA"/>
<rect x="264.991" y="44.8832" width="39" height="39" rx="8.5" stroke="url(#paint20_linear_2647_816)" stroke-opacity="0.6"/>
<rect x="308.491" y="44.3832" width="40" height="40" rx="9" fill="white" fill-opacity="0.9"/>
<g clip-path="url(#clip3_2647_816)">
<path d="M329.506 69.7916L332.436 73.1567L335.357 71.0595L332.506 66.3969C331.219 67.1822 329.956 68.7034 329.506 69.7902V69.7916ZM336.69 60.2243C330.005 60.9701 324.317 64.9747 321.274 70.5968L325.295 73.1524C327.702 68.3002 332.301 64.7059 337.811 63.6333L336.692 60.2243H336.69ZM326.063 63.121C327.459 62.2734 328.677 61.7116 330.749 61.0097L330.291 55.6098H326.68L326.171 61.5786L320.281 60.2088L319.167 63.6078L323.256 65.3144C324.095 64.4766 325.032 63.745 326.063 63.121Z" fill="#00C3A5"/>
</g>
<rect x="308.991" y="44.8832" width="39" height="39" rx="8.5" stroke="url(#paint21_linear_2647_816)" stroke-opacity="0.6"/>
<path d="M377.919 64.7853H374.463V68.6193H373.437V64.7853H369.981V63.8493H373.437V60.1233H374.463V63.8493H377.919V64.7853Z" fill="#C2C2C2"/>
<path d="M396.276 70.3833H394.926V64.4793C394.926 63.3813 394.44 62.6793 393.324 62.6793C392.424 62.6793 391.47 63.3273 391.02 64.0113V70.3833H389.67V64.4793C389.67 63.3813 389.202 62.6793 388.068 62.6793C387.186 62.6793 386.25 63.3273 385.782 64.0293V70.3833H384.432V61.6893H385.782V62.9493C386.142 62.3913 387.312 61.4733 388.59 61.4733C389.922 61.4733 390.678 62.1933 390.93 63.0933C391.416 62.3013 392.586 61.4733 393.846 61.4733C395.43 61.4733 396.276 62.3553 396.276 64.1013V70.3833Z" fill="#C2C2C2"/>
<path d="M405.756 70.3833H404.406V69.3933C403.686 70.1853 402.696 70.5993 401.526 70.5993C400.05 70.5993 398.484 69.6093 398.484 67.7193C398.484 65.7753 400.05 64.8573 401.526 64.8573C402.714 64.8573 403.704 65.2353 404.406 66.0453V64.4793C404.406 63.3093 403.47 62.6433 402.21 62.6433C401.166 62.6433 400.32 63.0213 399.546 63.8493L398.916 62.9133C399.852 61.9413 400.968 61.4733 402.39 61.4733C404.226 61.4733 405.756 62.3013 405.756 64.4073V70.3833ZM404.406 68.5473V66.9093C403.884 66.1893 402.966 65.8293 402.012 65.8293C400.752 65.8293 399.87 66.6213 399.87 67.7373C399.87 68.8353 400.752 69.6273 402.012 69.6273C402.966 69.6273 403.884 69.2673 404.406 68.5473Z" fill="#C2C2C2"/>
<path d="M409.128 60.2313C408.642 60.2313 408.228 59.8173 408.228 59.3133C408.228 58.8093 408.642 58.4133 409.128 58.4133C409.632 58.4133 410.046 58.8093 410.046 59.3133C410.046 59.8173 409.632 60.2313 409.128 60.2313ZM409.812 70.3833H408.462V61.6893H409.812V70.3833Z" fill="#C2C2C2"/>
<path d="M411.749 69.2313L412.451 68.2593C413.027 68.9253 414.125 69.5013 415.313 69.5013C416.645 69.5013 417.365 68.9073 417.365 68.0613C417.365 67.1073 416.303 66.8013 415.133 66.5133C413.657 66.1713 411.983 65.7753 411.983 63.9753C411.983 62.6253 413.153 61.4733 415.223 61.4733C416.699 61.4733 417.743 62.0313 418.445 62.7333L417.815 63.6693C417.293 63.0393 416.339 62.5713 415.223 62.5713C414.035 62.5713 413.297 63.1113 413.297 63.8853C413.297 64.7313 414.287 65.0013 415.421 65.2713C416.933 65.6133 418.679 66.0453 418.679 67.9713C418.679 69.4293 417.509 70.5993 415.259 70.5993C413.837 70.5993 412.631 70.1673 411.749 69.2313Z" fill="#C2C2C2"/>
<defs>
<linearGradient id="paint0_linear_2647_816" x1="20.4907" y1="0.38324" x2="20.4907" y2="40.3832" gradientUnits="userSpaceOnUse">
<stop stop-color="#E4E4E4"/>
<stop offset="1" stop-color="#EEEEEE"/>
</linearGradient>
<linearGradient id="paint1_linear_2647_816" x1="64.4907" y1="0.38324" x2="64.4907" y2="40.3832" gradientUnits="userSpaceOnUse">
<stop stop-color="#E4E4E4"/>
<stop offset="1" stop-color="#EEEEEE"/>
</linearGradient>
<linearGradient id="paint2_linear_2647_816" x1="108.491" y1="10.3832" x2="108.491" y2="30.3832" gradientUnits="userSpaceOnUse">
<stop stop-color="#B937AE"/>
<stop offset="0.510417" stop-color="#FF3867"/>
<stop offset="1" stop-color="#FFAA40"/>
</linearGradient>
<linearGradient id="paint3_linear_2647_816" x1="108.491" y1="0.38324" x2="108.491" y2="40.3832" gradientUnits="userSpaceOnUse">
<stop stop-color="#E4E4E4"/>
<stop offset="1" stop-color="#EEEEEE"/>
</linearGradient>
<linearGradient id="paint4_linear_2647_816" x1="152.491" y1="0.38324" x2="152.491" y2="40.3832" gradientUnits="userSpaceOnUse">
<stop stop-color="#E4E4E4"/>
<stop offset="1" stop-color="#EEEEEE"/>
</linearGradient>
<linearGradient id="paint5_linear_2647_816" x1="196.491" y1="0.38324" x2="196.491" y2="40.3832" gradientUnits="userSpaceOnUse">
<stop stop-color="#E4E4E4"/>
<stop offset="1" stop-color="#EEEEEE"/>
</linearGradient>
<linearGradient id="paint6_linear_2647_816" x1="240.491" y1="11.3637" x2="240.491" y2="29.4018" gradientUnits="userSpaceOnUse">
<stop stop-color="#B937AE"/>
<stop offset="0.510417" stop-color="#FF3867"/>
<stop offset="1" stop-color="#FFAA40"/>
</linearGradient>
<linearGradient id="paint7_linear_2647_816" x1="240.491" y1="0.38324" x2="240.491" y2="40.3832" gradientUnits="userSpaceOnUse">
<stop stop-color="#E4E4E4"/>
<stop offset="1" stop-color="#EEEEEE"/>
</linearGradient>
<linearGradient id="paint8_linear_2647_816" x1="284.491" y1="0.38324" x2="284.491" y2="40.3832" gradientUnits="userSpaceOnUse">
<stop stop-color="#E4E4E4"/>
<stop offset="1" stop-color="#EEEEEE"/>
</linearGradient>
<linearGradient id="paint9_linear_2647_816" x1="328.491" y1="0.38324" x2="328.491" y2="40.3832" gradientUnits="userSpaceOnUse">
<stop stop-color="#E4E4E4"/>
<stop offset="1" stop-color="#EEEEEE"/>
</linearGradient>
<linearGradient id="paint10_linear_2647_816" x1="372.489" y1="30.2771" x2="372.489" y2="10.4848" gradientUnits="userSpaceOnUse">
<stop stop-color="#20B038"/>
<stop offset="1" stop-color="#60D66A"/>
</linearGradient>
<linearGradient id="paint11_linear_2647_816" x1="372.491" y1="0.38324" x2="372.491" y2="40.3832" gradientUnits="userSpaceOnUse">
<stop stop-color="#E4E4E4"/>
<stop offset="1" stop-color="#EEEEEE"/>
</linearGradient>
<linearGradient id="paint12_linear_2647_816" x1="416.491" y1="29.7114" x2="416.491" y2="11.0551" gradientUnits="userSpaceOnUse">
<stop stop-color="#1D93D2"/>
<stop offset="1" stop-color="#38B0E3"/>
</linearGradient>
<linearGradient id="paint13_linear_2647_816" x1="416.491" y1="0.38324" x2="416.491" y2="40.3832" gradientUnits="userSpaceOnUse">
<stop stop-color="#E4E4E4"/>
<stop offset="1" stop-color="#EEEEEE"/>
</linearGradient>
<linearGradient id="paint14_linear_2647_816" x1="20.4907" y1="44.3832" x2="20.4907" y2="84.3832" gradientUnits="userSpaceOnUse">
<stop stop-color="#E4E4E4"/>
<stop offset="1" stop-color="#EEEEEE"/>
</linearGradient>
<linearGradient id="paint15_linear_2647_816" x1="64.4907" y1="44.3832" x2="64.4907" y2="84.3832" gradientUnits="userSpaceOnUse">
<stop stop-color="#E4E4E4"/>
<stop offset="1" stop-color="#EEEEEE"/>
</linearGradient>
<linearGradient id="paint16_linear_2647_816" x1="108.491" y1="44.3832" x2="108.491" y2="84.3832" gradientUnits="userSpaceOnUse">
<stop stop-color="#E4E4E4"/>
<stop offset="1" stop-color="#EEEEEE"/>
</linearGradient>
<linearGradient id="paint17_linear_2647_816" x1="152.491" y1="44.3832" x2="152.491" y2="84.3832" gradientUnits="userSpaceOnUse">
<stop stop-color="#E4E4E4"/>
<stop offset="1" stop-color="#EEEEEE"/>
</linearGradient>
<linearGradient id="paint18_linear_2647_816" x1="196.491" y1="44.3832" x2="196.491" y2="84.3832" gradientUnits="userSpaceOnUse">
<stop stop-color="#E4E4E4"/>
<stop offset="1" stop-color="#EEEEEE"/>
</linearGradient>
<linearGradient id="paint19_linear_2647_816" x1="240.491" y1="44.3832" x2="240.491" y2="84.3832" gradientUnits="userSpaceOnUse">
<stop stop-color="#E4E4E4"/>
<stop offset="1" stop-color="#EEEEEE"/>
</linearGradient>
<linearGradient id="paint20_linear_2647_816" x1="284.491" y1="44.3832" x2="284.491" y2="84.3832" gradientUnits="userSpaceOnUse">
<stop stop-color="#E4E4E4"/>
<stop offset="1" stop-color="#EEEEEE"/>
</linearGradient>
<linearGradient id="paint21_linear_2647_816" x1="328.491" y1="44.3832" x2="328.491" y2="84.3832" gradientUnits="userSpaceOnUse">
<stop stop-color="#E4E4E4"/>
<stop offset="1" stop-color="#EEEEEE"/>
</linearGradient>
<clipPath id="clip0_2647_816">
<rect width="18.6562" height="18.6562" fill="white" transform="translate(407.163 11.0551)"/>
</clipPath>
<clipPath id="clip1_2647_816">
<rect width="22.0391" height="22.0391" fill="white" transform="translate(141.471 53.3676)"/>
</clipPath>
<clipPath id="clip2_2647_816">
<rect width="20" height="20" fill="white" transform="translate(230.491 54.3832)"/>
</clipPath>
<clipPath id="clip3_2647_816">
<rect width="18.6436" height="17.5469" fill="white" transform="translate(319.17 55.6098)"/>
</clipPath>
</defs>
</svg>
