<svg width="119" height="32" viewBox="0 0 119 32" fill="none" xmlns="http://www.w3.org/2000/svg">
<path d="M9.15256 7.00174H9.14254C6.55232 7.00174 4.38268 7.85481 2.62694 9.56752C0.874532 11.2802 0 13.3998 0 15.9295C0 18.4591 0.891223 20.5754 2.68035 22.2783C4.46613 23.9811 6.67583 24.8309 9.31278 24.8309C11.192 24.8309 12.8576 24.3945 14.2963 23.5185C15.7416 22.6458 16.8498 21.481 17.6309 20.0275L14.6067 18.7151C14.1027 19.6567 13.3984 20.3982 12.4938 20.9462C11.5892 21.4941 10.5645 21.7697 9.4196 21.7697C7.93089 21.7697 6.66248 21.3432 5.60436 20.4803C4.54958 19.6206 3.89201 18.492 3.64167 17.1041H18.185C18.5087 14.3086 17.7844 11.9266 16.022 9.95468C14.2596 7.98934 11.9698 7.00174 9.14923 7.00174H9.15256ZM3.68172 14.2069C4.00216 12.9142 4.66306 11.861 5.65109 11.0571C6.63911 10.2467 7.80404 9.84641 9.1559 9.84641C10.5078 9.84641 11.7094 10.2533 12.6974 11.0571C13.6855 11.861 14.333 12.9142 14.6334 14.2069H3.68172ZM22.2839 24.8309H26.0391V0H22.2839V24.8309ZM115.372 7.00502V17.2353C115.372 18.5149 114.958 19.5452 114.127 20.3326C113.302 21.1201 112.277 21.5138 110.986 21.5138C109.694 21.5138 108.639 21.1201 107.808 20.3326C106.977 19.5452 106.563 18.5149 106.563 17.2353V7.00502H102.935V17.2353C102.935 19.473 103.689 21.294 105.198 22.7081C106.71 24.1255 108.659 24.8309 110.986 24.8309C113.312 24.8309 115.225 24.1222 116.737 22.7081C118.249 21.294 119 19.473 119 17.2353V7.00502H115.372ZM73.9749 24.8309H77.6366V7.00502H73.9749V24.8309ZM75.8207 0C75.25 0 74.7593 0.196862 74.3487 0.587306C73.9382 0.97775 73.7312 1.4535 73.7312 2.008C73.7312 2.56249 73.9382 3.03824 74.3487 3.42869C74.7593 3.81913 75.25 4.016 75.8207 4.016C76.3915 4.016 76.8755 3.81913 77.2761 3.42869C77.6766 3.03824 77.8769 2.56249 77.8769 2.008C77.8769 1.4535 77.6766 0.97775 77.2761 0.587306C76.8755 0.196862 76.3915 0 75.8207 0ZM66.6081 9.8989C65.0593 7.96637 62.9631 7.00502 60.3161 7.00502C57.8494 7.00502 55.7766 7.86466 54.1043 9.5708C52.432 11.2769 51.5942 13.3637 51.5942 15.8934C51.5942 18.423 52.432 20.5393 54.1043 22.2389C55.7766 23.9352 57.8494 24.785 60.3161 24.785C62.9497 24.785 65.0459 23.8269 66.6181 21.9141V22.9378C66.6181 24.5783 66.064 25.9498 64.9592 27.0555C63.8476 28.1579 62.4858 28.7124 60.8735 28.7124C59.742 28.7124 58.7406 28.4171 57.8761 27.8364C57.0082 27.2556 56.3306 26.4649 55.85 25.4609L52.5621 27.0719C53.2998 28.5779 54.4013 29.7722 55.8667 30.6646C57.332 31.5538 58.9977 32 60.8702 32C63.5205 32 65.7469 31.1371 67.5494 29.4014C69.3452 27.669 70.2464 25.5167 70.2464 22.9378V7.00502H66.6114V9.8989H66.6081ZM64.7489 19.847C63.634 20.956 62.2354 21.5138 60.5565 21.5138C58.8775 21.5138 57.5089 20.9593 56.3807 19.847C55.2525 18.738 54.6884 17.3534 54.6884 15.6998C54.6884 14.0461 55.2492 12.6681 56.3807 11.569C57.5089 10.4698 58.8775 9.91859 60.5565 9.91859C62.2354 9.91859 63.6307 10.4698 64.7489 11.569C65.8671 12.6681 66.4245 14.0461 66.4245 15.6998C66.4245 17.3534 65.8671 18.738 64.7489 19.847Z" fill="white"/>
<path d="M38.7231 7.00523C33.7696 7.00523 29.7508 10.9523 29.7508 15.8247V15.9067L29.7575 15.9001V15.9067H29.7508V27.4363C31.4765 25.7662 33.7997 24.8279 36.2263 24.8279H38.5262C43.0557 24.8279 47.0245 21.6354 47.6921 17.2322C48.5099 11.8316 44.1773 7.00195 38.7231 7.00195V7.00523ZM38.7732 21.5074C35.5654 21.5074 32.9652 18.9515 32.9652 15.7984H44.5811C44.5811 18.9515 41.9809 21.5074 38.7732 21.5074Z" fill="#00ED89"/>
<path d="M92.8174 7.00163H90.5176C85.988 7.00163 82.0192 10.1941 81.3516 14.5972C80.5339 19.9978 84.8665 24.8275 90.3206 24.8275C95.2741 24.8341 99.2929 20.8903 99.2929 16.0245V15.8014V4.39648C97.5672 6.06653 95.244 7.00491 92.8174 7.00491V7.00163ZM90.2739 21.5071C87.0661 21.5071 84.4659 18.9512 84.4659 15.7981H87.0328C87.0328 17.5567 88.4848 18.9807 90.2705 18.9807C92.0563 18.9807 93.5117 17.5535 93.5117 15.7981H96.0785C96.0785 18.9512 93.4783 21.5071 90.2705 21.5071H90.2739Z" fill="#8A74FB"/>
</svg>
