<svg width="28" height="29" viewBox="0 0 28 29" fill="none" xmlns="http://www.w3.org/2000/svg">
<path d="M20.6833 11.5027C20.835 10.6393 20.4383 9.75268 19.4817 8.80768C18.525 7.85102 17.6267 7.45435 16.7633 7.61768C15.9933 7.75768 15.4567 8.29435 14.99 8.74935L3.86 19.8793C3.07833 20.661 1.66667 22.0727 3.60333 24.2193L3.80167 24.4177C3.80167 24.4177 3.825 24.441 3.83667 24.4527C3.83667 24.4527 3.84833 24.4643 3.86 24.476L3.93 24.546C4.79333 25.3743 5.52833 25.666 6.15833 25.666C7.15 25.666 7.885 24.931 8.39833 24.4177L19.5983 13.2293C20.0183 12.8093 20.555 12.2727 20.6833 11.5027ZM18.3617 11.9927L7.16167 23.181C6.28667 24.056 6.1 24.2427 5.06167 23.216C4.035 22.1893 4.26833 21.956 5.09667 21.116L16.2383 9.98602C16.5417 9.68268 16.845 9.37935 17.0783 9.33268C17.3233 9.28602 17.7433 9.54268 18.245 10.0327C18.735 10.5227 19.0033 10.9543 18.9567 11.1993C18.9217 11.421 18.63 11.7127 18.3617 11.981V11.9927ZM6.415 8.16602H8.45667V10.2077C8.45667 10.686 8.85333 11.0827 9.33167 11.0827C9.81 11.0827 10.2067 10.686 10.2067 10.2077V8.16602H12.2483C12.7267 8.16602 13.1233 7.76935 13.1233 7.29102C13.1233 6.81268 12.7267 6.41602 12.2483 6.41602H10.2067V4.37435C10.2067 3.89602 9.81 3.49935 9.33167 3.49935C8.85333 3.49935 8.45667 3.89602 8.45667 4.37435V6.41602H6.415C5.93667 6.41602 5.54 6.81268 5.54 7.29102C5.54 7.76935 5.93667 8.16602 6.415 8.16602ZM22.7483 18.0827H21.29V16.6243C21.29 16.146 20.8933 15.7493 20.415 15.7493C19.9367 15.7493 19.54 16.146 19.54 16.6243V18.0827H18.0817C17.6033 18.0827 17.2067 18.4793 17.2067 18.9577C17.2067 19.436 17.6033 19.8327 18.0817 19.8327H19.54V21.291C19.54 21.7693 19.9367 22.166 20.415 22.166C20.8933 22.166 21.29 21.7693 21.29 21.291V19.8327H22.7483C23.2267 19.8327 23.6233 19.436 23.6233 18.9577C23.6233 18.4793 23.2267 18.0827 22.7483 18.0827ZM24.4983 4.66602H23.6233V3.79102C23.6233 3.31268 23.2267 2.91602 22.7483 2.91602C22.27 2.91602 21.8733 3.31268 21.8733 3.79102V4.66602H20.9983C20.52 4.66602 20.1233 5.06268 20.1233 5.54102C20.1233 6.01935 20.52 6.41602 20.9983 6.41602H21.8733V7.29102C21.8733 7.76935 22.27 8.16602 22.7483 8.16602C23.2267 8.16602 23.6233 7.76935 23.6233 7.29102V6.41602H24.4983C24.9767 6.41602 25.3733 6.01935 25.3733 5.54102C25.3733 5.06268 24.9767 4.66602 24.4983 4.66602Z" fill="#4824F9"/>
</svg>
