<svg width="21" height="21" viewBox="0 0 21 21" fill="none" xmlns="http://www.w3.org/2000/svg">
<path d="M15.2758 8.60892C15.3841 7.99225 15.1008 7.35892 14.4174 6.68392C13.7341 6.00059 13.0924 5.71725 12.4758 5.83392C11.9258 5.93392 11.5424 6.31725 11.2091 6.64225L3.25909 14.5923C2.70076 15.1506 1.69242 16.1589 3.07576 17.6923L3.21742 17.8339C3.21742 17.8339 3.23409 17.8506 3.24242 17.8589C3.24242 17.8589 3.25076 17.8673 3.25909 17.8756L3.30909 17.9256C3.92576 18.5173 4.45076 18.7256 4.90076 18.7256C5.60909 18.7256 6.13409 18.2006 6.50076 17.8339L14.5008 9.84225C14.8008 9.54225 15.1841 9.15892 15.2758 8.60892ZM13.6174 8.95892L5.61742 16.9506C4.99242 17.5756 4.85909 17.7089 4.11742 16.9756C3.38409 16.2423 3.55076 16.0756 4.14242 15.4756L12.1008 7.52559C12.3174 7.30892 12.5341 7.09225 12.7008 7.05892C12.8758 7.02559 13.1758 7.20892 13.5341 7.55892C13.8841 7.90892 14.0758 8.21725 14.0424 8.39225C14.0174 8.55059 13.8091 8.75892 13.6174 8.95059V8.95892ZM5.08409 6.22559H6.54242V7.68392C6.54242 8.02559 6.82576 8.30892 7.16742 8.30892C7.50909 8.30892 7.79242 8.02559 7.79242 7.68392V6.22559H9.25076C9.59242 6.22559 9.87576 5.94225 9.87576 5.60059C9.87576 5.25892 9.59242 4.97559 9.25076 4.97559H7.79242V3.51725C7.79242 3.17559 7.50909 2.89225 7.16742 2.89225C6.82576 2.89225 6.54242 3.17559 6.54242 3.51725V4.97559H5.08409C4.74242 4.97559 4.45909 5.25892 4.45909 5.60059C4.45909 5.94225 4.74242 6.22559 5.08409 6.22559ZM16.7508 13.3089H15.7091V12.2673C15.7091 11.9256 15.4258 11.6423 15.0841 11.6423C14.7424 11.6423 14.4591 11.9256 14.4591 12.2673V13.3089H13.4174C13.0758 13.3089 12.7924 13.5923 12.7924 13.9339C12.7924 14.2756 13.0758 14.5589 13.4174 14.5589H14.4591V15.6006C14.4591 15.9423 14.7424 16.2256 15.0841 16.2256C15.4258 16.2256 15.7091 15.9423 15.7091 15.6006V14.5589H16.7508C17.0924 14.5589 17.3758 14.2756 17.3758 13.9339C17.3758 13.5923 17.0924 13.3089 16.7508 13.3089ZM18.0008 3.72559H17.3758V3.10059C17.3758 2.75892 17.0924 2.47559 16.7508 2.47559C16.4091 2.47559 16.1258 2.75892 16.1258 3.10059V3.72559H15.5008C15.1591 3.72559 14.8758 4.00892 14.8758 4.35059C14.8758 4.69225 15.1591 4.97559 15.5008 4.97559H16.1258V5.60059C16.1258 5.94225 16.4091 6.22559 16.7508 6.22559C17.0924 6.22559 17.3758 5.94225 17.3758 5.60059V4.97559H18.0008C18.3424 4.97559 18.6258 4.69225 18.6258 4.35059C18.6258 4.00892 18.3424 3.72559 18.0008 3.72559Z" fill="#131212"/>
</svg>
