<svg width="17" height="17" viewBox="0 0 17 17" fill="none" xmlns="http://www.w3.org/2000/svg">
<path d="M5.27543 6.56295C5.08017 6.36769 4.76358 6.36769 4.56832 6.56295C4.37306 6.75821 4.37306 7.0748 4.56832 7.27006C5.57213 8.27386 6.35109 8.97024 7.01953 9.41586C7.69846 9.86848 8.29399 10.0832 8.92188 10.0832C9.54977 10.0832 10.1453 9.86848 10.8242 9.41586C11.4927 8.97024 12.2716 8.27386 13.2754 7.27006C13.4707 7.0748 13.4707 6.75821 13.2754 6.56295C13.0802 6.36769 12.7636 6.36769 12.5683 6.56295C11.5721 7.55915 10.8511 8.1961 10.2695 8.58381C9.69846 8.96453 9.29399 9.08317 8.92188 9.08317C8.54977 9.08317 8.1453 8.96452 7.57423 8.58381C6.99266 8.1961 6.27162 7.55915 5.27543 6.56295Z" fill="#4824F9"/>
<path fill-rule="evenodd" clip-rule="evenodd" d="M2.42188 8.24984C2.42188 10.5821 2.74193 12.1426 3.85526 13.0535C4.40519 13.5034 5.10276 13.7553 5.93023 13.8987C6.7557 14.0418 7.7495 14.0832 8.92188 14.0832C10.0927 14.0832 11.0857 14.0465 11.91 13.9098C12.7361 13.7727 13.4347 13.5287 13.9861 13.0832C15.103 12.1806 15.4219 10.6159 15.4219 8.24984C15.4219 5.88379 15.103 4.31905 13.9861 3.4165C13.4347 2.97093 12.7361 2.72699 11.91 2.58991C11.0857 2.45314 10.0927 2.4165 8.92188 2.4165C7.7495 2.4165 6.7557 2.45785 5.93023 2.60093C5.10276 2.74436 4.40519 2.99624 3.85526 3.44619C2.74193 4.3571 2.42188 5.91759 2.42188 8.24984ZM8.92188 13.0832C7.76092 13.0832 6.83805 13.0412 6.10102 12.9134C5.36599 12.786 4.85522 12.5796 4.48849 12.2795C3.76849 11.6904 3.42188 10.5843 3.42188 8.24984C3.42188 5.91541 3.76849 4.80924 4.48849 4.22015C4.85522 3.9201 5.36599 3.71365 6.10102 3.58624C6.83805 3.45849 7.76092 3.4165 8.92188 3.4165C10.0844 3.4165 11.0081 3.45394 11.7463 3.57643C12.4827 3.69861 12.9923 3.89912 13.3576 4.19429C14.074 4.77322 14.4219 5.87514 14.4219 8.24984C14.4219 10.6245 14.074 11.7265 13.3576 12.3054C12.9923 12.6006 12.4827 12.8011 11.7463 12.9232C11.0081 13.0457 10.0844 13.0832 8.92188 13.0832Z" fill="#4824F9"/>
</svg>
