<svg width="24" height="25" viewBox="0 0 24 25" fill="none" xmlns="http://www.w3.org/2000/svg">
<g clip-path="url(#clip0_2604_1235)">
<path d="M23.0183 11.881C23.0183 7.91104 18.0852 4.67383 11.9992 4.67383C5.91326 4.67383 0.980469 7.91104 0.980469 11.881C0.980469 11.9836 0.980469 12.2671 0.980469 12.3034C0.980469 16.5157 5.29267 19.927 11.9988 19.927C18.7468 19.927 23.0195 16.5165 23.0195 12.3038L23.0183 11.881Z" fill="#2D3277"/>
<path d="M22.5969 11.8737C22.5969 15.617 17.8532 18.6513 12.001 18.6513C6.14876 18.6513 1.40625 15.617 1.40625 11.8737C1.40625 8.13039 6.14994 5.0957 12.001 5.0957C17.852 5.0957 22.5969 8.13039 22.5969 11.8737Z" fill="#F7D032"/>
<path d="M8.48463 9.73609C8.4795 9.74715 8.3737 9.85453 8.4416 9.94414C8.60938 10.1577 9.12575 10.2805 9.64805 10.1632C9.95874 10.0934 10.3587 9.77636 10.7436 9.47001C11.162 9.1376 11.5773 8.8048 11.9942 8.67216C12.4364 8.53122 12.7191 8.5932 12.9062 8.64886C13.1115 8.71005 13.3531 8.84625 13.7376 9.13365C14.4632 9.67845 17.3783 12.2232 17.8828 12.6634C18.2882 12.4798 20.0912 11.7037 22.5412 11.1632C22.328 9.85689 21.5337 8.66189 20.3304 7.68402C18.6471 8.38949 16.5962 8.75782 14.5891 7.77719C14.5789 7.77324 13.4928 7.25884 12.421 7.2841C10.8304 7.32121 10.1396 8.0105 9.40921 8.73966L8.48463 9.73609Z" fill="white"/>
<path d="M17.76 12.949C17.7257 12.9186 14.3325 9.94867 13.5635 9.3715C13.119 9.03751 12.8711 8.95264 12.6113 8.91987C12.4591 8.90727 12.3059 8.92184 12.1589 8.9629C11.8008 9.06002 11.333 9.37268 10.9185 9.70193C10.4882 10.0446 10.0827 10.3671 9.70688 10.452C9.22643 10.5598 8.64097 10.4327 8.37212 10.2519C8.27673 10.1935 8.1998 10.1093 8.15026 10.0091C8.05196 9.77931 8.23356 9.59613 8.26395 9.56573L9.19998 8.55272C9.30894 8.44376 9.41869 8.3352 9.5312 8.22861C9.24249 8.27164 8.95734 8.3359 8.67808 8.42087C8.33857 8.51601 8.01208 8.60681 7.68205 8.60681C7.54387 8.60681 6.80563 8.48561 6.66548 8.4489C5.81789 8.21676 5.07412 7.99134 3.9636 7.4726C2.632 8.46311 1.74138 9.70233 1.48438 11.0675C1.67545 11.1184 1.98417 11.21 2.11326 11.2384C5.12584 11.9095 6.06463 12.5988 6.23478 12.7429C6.33476 12.63 6.45906 12.5413 6.59832 12.4835C6.73758 12.4256 6.88815 12.4001 7.03869 12.409C7.18923 12.4178 7.33581 12.4607 7.46736 12.5344C7.59891 12.6081 7.712 12.7107 7.79811 12.8345C8.00127 12.6702 8.25491 12.5809 8.51622 12.5819C8.66282 12.5832 8.80819 12.6087 8.94653 12.6573C9.0808 12.7002 9.20436 12.7713 9.30899 12.8658C9.41362 12.9603 9.49691 13.076 9.55331 13.2052C9.6848 13.1455 9.82775 13.1152 9.97217 13.1164C10.145 13.1186 10.3155 13.1562 10.4732 13.2269C11.029 13.4638 11.1151 14.0106 11.0653 14.4219C11.1046 14.4174 11.1442 14.4151 11.1838 14.4152C11.3903 14.4151 11.5933 14.4687 11.7729 14.5705C11.9526 14.6724 12.1027 14.8192 12.2087 14.9964C12.3146 15.1737 12.3727 15.3754 12.3774 15.5819C12.382 15.7884 12.333 15.9925 12.2351 16.1744C12.4135 16.2746 12.8711 16.5028 13.2718 16.4507C13.5923 16.4112 13.7139 16.3003 13.7577 16.2391C13.7869 16.1961 13.8189 16.1475 13.7897 16.1116L12.9409 15.1657C12.9409 15.1657 12.8008 15.0338 12.847 14.9825C12.8932 14.9312 12.9812 15.0054 13.0424 15.0563C13.4766 15.4176 14.0037 15.9643 14.0037 15.9643C14.0124 15.9707 14.0475 16.039 14.2429 16.0741C14.4107 16.1045 14.708 16.0867 14.914 15.9162C14.9682 15.8707 15.0177 15.8199 15.0617 15.7646C15.0589 15.7676 15.0557 15.7703 15.0522 15.7725C15.2693 15.4942 15.0277 15.2131 15.0277 15.2131L14.0357 14.0982C14.0357 14.0982 13.8935 13.9675 13.9421 13.9146C13.9847 13.8688 14.0767 13.9379 14.1395 13.9893C14.4553 14.2522 14.8979 14.6975 15.3238 15.1144C15.4071 15.1752 15.781 15.4069 16.276 15.0816C16.5769 14.8842 16.6369 14.6422 16.6286 14.4594C16.6077 14.2178 16.419 14.0453 16.419 14.0453L15.0633 12.6825C15.0633 12.6825 14.92 12.5605 14.9705 12.4986C15.012 12.4468 15.1047 12.5219 15.1655 12.5724C15.5998 12.934 16.7668 14.0058 16.7668 14.0058C16.7829 14.0173 17.1868 14.3047 17.6866 13.9869C17.8646 13.8732 17.9791 13.7015 17.989 13.5013C17.9929 13.3982 17.9746 13.2955 17.9353 13.2002C17.896 13.1048 17.8366 13.019 17.7612 12.9486" fill="white"/>
<path d="M11.188 14.6778C10.978 14.6754 10.7478 14.8006 10.7182 14.782C10.7009 14.771 10.7309 14.6869 10.7506 14.6379C10.7703 14.589 11.0475 13.7572 10.3724 13.4674C9.85643 13.2459 9.5406 13.495 9.43164 13.6083C9.40401 13.6375 9.39217 13.6352 9.38782 13.5973C9.37716 13.4477 9.30887 13.0414 8.86434 12.906C8.22795 12.711 7.81778 13.1551 7.71474 13.3154C7.69317 13.1509 7.61676 12.9985 7.49787 12.8828C7.37898 12.7671 7.22454 12.6948 7.05952 12.6778C6.8945 12.6607 6.72854 12.6997 6.58845 12.7886C6.44837 12.8775 6.34235 13.011 6.28752 13.1676C6.2327 13.3242 6.23228 13.4947 6.28632 13.6515C6.34037 13.8084 6.44572 13.9424 6.58537 14.032C6.72501 14.1216 6.89077 14.1614 7.05588 14.1452C7.22098 14.1289 7.37577 14.0574 7.49524 13.9423C7.49919 13.9467 7.50077 13.9534 7.49919 13.9676C7.468 14.1504 7.41076 14.8148 8.10636 15.0856C8.38508 15.1934 8.62274 15.1132 8.81934 14.9751C8.87776 14.9336 8.88724 14.951 8.87895 15.0063C8.85368 15.1772 8.88566 15.5428 9.39848 15.7512C9.78931 15.9091 10.0203 15.7477 10.1711 15.6071C10.2374 15.5475 10.2552 15.557 10.2587 15.6501C10.267 15.8321 10.3285 16.0076 10.4356 16.155C10.5428 16.3023 10.6908 16.4149 10.8614 16.4788C11.0319 16.5428 11.2175 16.5552 11.3951 16.5146C11.5726 16.474 11.7344 16.3822 11.8602 16.2505C11.9861 16.1189 12.0705 15.9531 12.103 15.7739C12.1355 15.5947 12.1147 15.4098 12.0431 15.2423C11.9715 15.0749 11.8523 14.9321 11.7003 14.8317C11.5483 14.7313 11.3702 14.6778 11.188 14.6778Z" fill="white"/>
<path d="M11.1891 16.4683C10.9667 16.4696 10.7524 16.3844 10.5916 16.2306C10.4308 16.0769 10.336 15.8667 10.3273 15.6444C10.3273 15.6049 10.3222 15.4999 10.233 15.4999C10.1925 15.5047 10.1553 15.5242 10.1283 15.5548C10.0257 15.6503 9.89542 15.7466 9.70513 15.7466C9.60904 15.7446 9.51426 15.724 9.42602 15.6858C8.93413 15.4884 8.92781 15.1489 8.94755 15.0147C8.95239 14.9971 8.95328 14.9787 8.95014 14.9608C8.947 14.9428 8.93991 14.9258 8.92939 14.9109L8.89939 14.8844H8.86859C8.83725 14.8866 8.80739 14.8986 8.78332 14.9188C8.66329 15.0112 8.51709 15.0633 8.36564 15.0676C8.2858 15.0669 8.2068 15.0512 8.13272 15.0214C7.48528 14.7695 7.53581 14.1584 7.56739 13.9745C7.57076 13.9591 7.56998 13.9431 7.56512 13.9281C7.56027 13.9131 7.55151 13.8997 7.53976 13.8892L7.49357 13.8497L7.45093 13.8912C7.34205 13.9966 7.20076 14.0622 7.04994 14.0774C6.89912 14.0925 6.74761 14.0563 6.61993 13.9746C6.49225 13.8929 6.39588 13.7705 6.34642 13.6273C6.29696 13.484 6.29731 13.3282 6.34741 13.1851C6.39751 13.0421 6.49442 12.9201 6.62247 12.839C6.75051 12.7579 6.90219 12.7224 7.05293 12.7382C7.20368 12.754 7.34468 12.8203 7.45309 12.9262C7.5615 13.0321 7.63099 13.1715 7.6503 13.3219L7.67359 13.5019L7.77268 13.3491C7.78373 13.3314 8.05574 12.9204 8.55514 12.9212C8.65423 12.9217 8.7527 12.937 8.84728 12.9666C9.24521 13.0882 9.31272 13.4498 9.32338 13.5982C9.33049 13.6859 9.39286 13.6902 9.4051 13.6902C9.42026 13.6894 9.43508 13.6854 9.44866 13.6786C9.46224 13.6718 9.47428 13.6624 9.48406 13.6507C9.54784 13.5843 9.6245 13.5316 9.70935 13.4958C9.7942 13.4601 9.88545 13.442 9.97753 13.4427C10.1055 13.445 10.2317 13.4735 10.3482 13.5264C10.9799 13.798 10.6945 14.6026 10.6909 14.6108C10.6364 14.7439 10.6344 14.8023 10.6858 14.8367L10.7102 14.8485H10.7292C10.7713 14.8435 10.8124 14.8327 10.8516 14.8165C10.9594 14.7739 11.0734 14.7488 11.1891 14.7423C11.304 14.7398 11.4183 14.7604 11.5251 14.8026C11.632 14.8449 11.7294 14.9081 11.8115 14.9885C11.8937 15.0689 11.9589 15.1649 12.0035 15.2708C12.048 15.3768 12.071 15.4906 12.071 15.6055C12.071 15.7204 12.048 15.8342 12.0035 15.9402C11.9589 16.0461 11.8937 16.1421 11.8115 16.2225C11.7294 16.3029 11.632 16.3661 11.5251 16.4084C11.4183 16.4506 11.304 16.4711 11.1891 16.4687M17.8961 12.5919C16.8507 11.68 14.4346 9.57936 13.7805 9.08864C13.4062 8.80756 13.152 8.65873 12.9277 8.59201C12.7923 8.54945 12.6512 8.52762 12.5093 8.52726C12.3283 8.52928 12.1486 8.55911 11.9767 8.61569C11.5539 8.74992 11.1327 9.08469 10.7252 9.40842L10.7043 9.425C10.3249 9.727 9.93253 10.0389 9.63565 10.1056C9.50604 10.1345 9.37367 10.1492 9.24087 10.1494C8.90847 10.1494 8.60922 10.0531 8.4975 9.91018C8.47894 9.8865 8.49118 9.8482 8.53461 9.79175L8.53974 9.78425L9.45958 8.79335C10.1793 8.07366 10.8595 7.39464 12.4252 7.35871H12.5041C13.4788 7.35871 14.454 7.79573 14.5629 7.84627C15.4768 8.29237 16.4184 8.51739 17.3682 8.51937C18.3552 8.51937 19.3765 8.275 20.4475 7.78152C20.3291 7.68085 20.2032 7.58413 20.0749 7.48662C19.1333 7.89482 18.2356 8.1009 17.3698 8.1005C16.4855 8.1005 15.6024 7.88772 14.7445 7.46885C14.6995 7.44675 13.6229 6.93985 12.5033 6.93945H12.4153C11.1003 6.97064 10.3589 7.43727 9.86068 7.84745C9.37628 7.85929 8.95821 7.97654 8.58593 8.07958C8.25431 8.17236 7.9677 8.2525 7.68741 8.2521C7.57292 8.2521 7.36527 8.24144 7.34711 8.24105C7.02536 8.23118 5.40518 7.83403 4.11701 7.34568C3.98554 7.43925 3.85882 7.53557 3.73565 7.63348C5.08185 8.18617 6.72019 8.61175 7.23696 8.6453C7.38066 8.65478 7.53384 8.67096 7.68701 8.67175C8.02889 8.67175 8.37038 8.57582 8.70042 8.48305C8.89781 8.42817 9.11138 8.36896 9.33799 8.32514C9.27719 8.38396 9.21719 8.44357 9.15639 8.50476L8.22234 9.5158C8.14891 9.58962 7.98902 9.78741 8.09443 10.0318C8.14859 10.1442 8.2338 10.2387 8.33998 10.3042C8.56303 10.4546 8.96176 10.5556 9.33207 10.5556C9.4648 10.5566 9.59722 10.5427 9.72685 10.5142C10.1185 10.4266 10.5294 10.0993 10.9641 9.75345C11.3115 9.47711 11.8038 9.12812 12.1808 9.02548C12.2915 8.996 12.4054 8.98035 12.5199 8.97889C12.5491 8.97896 12.5782 8.98054 12.6072 8.98363C12.8571 9.01561 13.0975 9.10207 13.5278 9.42302C14.2949 9.9994 17.6884 12.9682 17.722 12.9974C17.7895 13.0612 17.8426 13.1388 17.8777 13.2249C17.9129 13.3109 17.9292 13.4035 17.9257 13.4964C17.9178 13.6697 17.8214 13.8233 17.6545 13.9306C17.5223 14.0185 17.3678 14.0666 17.2091 14.0692C17.0695 14.0692 16.9326 14.0298 16.8144 13.9555C16.8017 13.9452 15.6395 12.8789 15.2115 12.5205C15.1436 12.464 15.0769 12.4131 15.0106 12.4131C14.9935 12.4128 14.9766 12.4165 14.9612 12.4237C14.9457 12.431 14.9321 12.4417 14.9214 12.4549C14.8539 12.5382 14.9293 12.6523 15.0185 12.7285L16.3765 14.0937C16.3765 14.0957 16.5459 14.2516 16.5641 14.462C16.5751 14.6882 16.4666 14.8773 16.2415 15.025C16.1002 15.1241 15.9325 15.1791 15.7599 15.1829C15.6221 15.1822 15.4876 15.141 15.373 15.0644L15.178 14.8722C14.8227 14.522 14.4544 14.1616 14.1855 13.935C14.1196 13.8805 14.0493 13.83 13.9826 13.83C13.9666 13.8299 13.9508 13.833 13.9361 13.8392C13.9214 13.8454 13.908 13.8544 13.8969 13.8659C13.8665 13.9006 13.8448 13.9618 13.9214 14.0633C13.9423 14.0904 13.9652 14.1159 13.9901 14.1395L14.981 15.2532C14.9897 15.263 15.1855 15.4952 15.0035 15.7269L14.9684 15.7715C14.9397 15.803 14.909 15.8325 14.8764 15.8599C14.707 15.9989 14.4816 16.0135 14.392 16.0135C14.3471 16.0139 14.3023 16.0102 14.2581 16.0024C14.1602 15.9851 14.0947 15.9574 14.0627 15.9199L14.0509 15.9077C13.9968 15.8516 13.4982 15.3416 13.0837 14.9962C13.0292 14.9508 12.9613 14.8935 12.8906 14.8935C12.8738 14.8934 12.8571 14.8968 12.8418 14.9036C12.8264 14.9104 12.8126 14.9204 12.8014 14.933C12.7197 15.0226 12.8409 15.1568 12.8946 15.2054L13.7402 16.1379C13.7324 16.1582 13.7215 16.1773 13.7078 16.1943C13.6774 16.2369 13.5748 16.3396 13.2684 16.3779C13.2312 16.3825 13.1938 16.3847 13.1563 16.3846C12.8405 16.3846 12.5026 16.231 12.3273 16.139C12.4073 15.9727 12.4493 15.7907 12.4504 15.6061C12.4504 15.2715 12.3177 14.9506 12.0814 14.7138C11.8451 14.4769 11.5245 14.3435 11.1899 14.3428H11.1445C11.1666 14.027 11.122 13.4233 10.5046 13.1584C10.3387 13.084 10.1593 13.0445 9.97753 13.0424C9.84545 13.0416 9.71438 13.0654 9.59104 13.1126C9.52766 12.9889 9.44051 12.8789 9.33456 12.7888C9.22861 12.6988 9.10596 12.6306 8.9736 12.588C8.82836 12.5367 8.67559 12.5101 8.52158 12.509C8.26866 12.5075 8.02178 12.5863 7.8165 12.7341C7.72316 12.6171 7.60618 12.5212 7.47323 12.4526C7.34027 12.384 7.19433 12.3442 7.04494 12.3358C6.89555 12.3275 6.74609 12.3508 6.60632 12.4042C6.46654 12.4575 6.33961 12.5398 6.23382 12.6456C5.9709 12.4447 4.92631 11.7814 2.13283 11.1455C1.99782 11.1147 1.68713 11.027 1.49684 10.9698C1.46547 11.1213 1.44176 11.2742 1.42578 11.4281C1.42578 11.4281 1.939 11.5521 2.04243 11.575C4.89591 12.2086 5.83944 12.8679 5.99853 12.9922C5.93092 13.1547 5.90445 13.3314 5.92146 13.5066C5.93847 13.6818 5.99844 13.8501 6.09606 13.9965C6.19368 14.143 6.32592 14.2631 6.48107 14.3462C6.63621 14.4294 6.80947 14.4729 6.98549 14.4731C7.0517 14.4734 7.11779 14.4674 7.18288 14.4553C7.2721 14.8896 7.55595 15.218 7.98981 15.387C8.11134 15.4347 8.2406 15.4598 8.37117 15.4608C8.45331 15.4609 8.53514 15.4506 8.61475 15.4304C8.6937 15.6341 8.87491 15.8876 9.27838 16.051C9.41134 16.1068 9.55385 16.1363 9.69803 16.1379C9.8093 16.1379 9.91971 16.1183 10.0241 16.0798C10.1032 16.2734 10.2292 16.4443 10.3908 16.577C10.5523 16.7097 10.7444 16.8001 10.9497 16.8401C11.1549 16.88 11.3669 16.8682 11.5664 16.8058C11.766 16.7434 11.9469 16.6323 12.0928 16.4825C12.2961 16.5958 12.7244 16.8007 13.1587 16.8011C13.2127 16.8007 13.2666 16.7973 13.3201 16.7908C13.7516 16.7363 13.9518 16.5674 14.0446 16.4355C14.0613 16.4124 14.076 16.388 14.0888 16.3625C14.1998 16.3965 14.315 16.4144 14.4311 16.4158C14.6679 16.4158 14.8926 16.3368 15.1207 16.1694C15.3489 16.0021 15.5049 15.7747 15.5278 15.5773C15.5281 15.5743 15.5281 15.5712 15.5278 15.5682C15.6037 15.584 15.6811 15.5919 15.7587 15.5919C16.0127 15.589 16.26 15.5107 16.4693 15.3668C16.9091 15.0791 16.9853 14.7024 16.9782 14.4557C17.0552 14.4719 17.1336 14.4801 17.2123 14.4802C17.4487 14.4775 17.6792 14.4066 17.8763 14.2761C18.0068 14.1962 18.1166 14.0866 18.1968 13.9563C18.2769 13.8259 18.3251 13.6785 18.3374 13.526C18.3538 13.3134 18.3027 13.101 18.1914 12.9192C18.9276 12.6034 20.6114 11.9875 22.5936 11.5406C22.5806 11.3874 22.5599 11.235 22.5316 11.0839C20.9412 11.4354 19.3885 11.9399 17.8953 12.5904" fill="#2D3277"/>
</g>
<defs>
<clipPath id="clip0_2604_1235">
<rect width="22.0391" height="22.0391" fill="white" transform="translate(0.980469 1.27539)"/>
</clipPath>
</defs>
</svg>
