<svg width="21" height="21" viewBox="0 0 21 21" fill="none" xmlns="http://www.w3.org/2000/svg">
<path d="M10.502 1.02539C8.43838 1.02539 6.75202 2.71176 6.75202 4.77539V11.0254C6.75202 13.089 8.43838 14.7754 10.502 14.7754C12.5657 14.7754 14.252 13.089 14.252 11.0254V4.77539C14.252 2.71176 12.5657 1.02539 10.502 1.02539ZM10.502 2.27539C11.8901 2.27539 13.002 3.38736 13.002 4.77539V11.0254C13.002 12.4134 11.8901 13.5254 10.502 13.5254C9.11398 13.5254 8.00202 12.4134 8.00202 11.0254V4.77539C8.00202 3.38736 9.11398 2.27539 10.502 2.27539ZM4.86725 8.9331C4.70163 8.93569 4.54381 9.00391 4.42846 9.12278C4.3131 9.24164 4.24964 9.40144 4.25202 9.56706V11.0254C4.25202 14.2589 6.72453 16.9288 9.87702 17.2437V19.1504C9.87585 19.2332 9.89115 19.3154 9.92203 19.3923C9.95291 19.4691 9.99877 19.5391 10.0569 19.5981C10.1151 19.6571 10.1844 19.7039 10.2608 19.7359C10.3372 19.7678 10.4192 19.7843 10.502 19.7843C10.5848 19.7843 10.6668 19.7678 10.7433 19.7359C10.8197 19.7039 10.889 19.6571 10.9471 19.5981C11.0053 19.5391 11.0511 19.4691 11.082 19.3923C11.1129 19.3154 11.1282 19.2332 11.127 19.1504V17.2437C14.2795 16.9288 16.752 14.2589 16.752 11.0254V9.56706C16.7532 9.48424 16.7379 9.40201 16.707 9.32516C16.6761 9.2483 16.6303 9.17835 16.5721 9.11937C16.514 9.06039 16.4447 9.01355 16.3683 8.98158C16.2918 8.94962 16.2098 8.93316 16.127 8.93316C16.0442 8.93316 15.9622 8.94962 15.8858 8.98158C15.8094 9.01355 15.7401 9.06039 15.6819 9.11937C15.6238 9.17835 15.5779 9.2483 15.547 9.32516C15.5161 9.40201 15.5008 9.48424 15.502 9.56706V11.0254C15.502 13.7693 13.3102 15.9815 10.5761 16.0213C10.5483 16.0178 10.5203 16.0162 10.4923 16.0164C10.4694 16.0168 10.4466 16.0184 10.4239 16.0213C7.69166 15.9794 5.50202 13.7679 5.50202 11.0254V9.56706C5.50322 9.4834 5.48761 9.40036 5.45613 9.32285C5.42464 9.24534 5.37792 9.17494 5.31872 9.11582C5.25953 9.0567 5.18907 9.01007 5.11151 8.97868C5.03396 8.9473 4.9509 8.9318 4.86725 8.9331Z" fill="#131212"/>
</svg>
