<svg width="23" height="23" viewBox="0 0 23 23" fill="none" xmlns="http://www.w3.org/2000/svg">
<path fill-rule="evenodd" clip-rule="evenodd" d="M17.9826 4.91972C21.5618 8.49887 21.5618 14.3018 17.9826 17.881C14.4035 21.4601 8.6005 21.4601 5.02134 17.881C1.44219 14.3018 1.44219 8.49887 5.02134 4.91972C8.6005 1.34056 14.4035 1.34056 17.9826 4.91972ZM9.1293 9.20537C9.39561 8.93483 9.83082 8.9314 10.1014 9.19772L11.3789 10.4553L12.6563 9.19773C12.9269 8.93142 13.3621 8.93484 13.6284 9.20538C13.8947 9.47593 13.8913 9.91113 13.6207 10.1774L12.3587 11.4198L13.6207 12.6621C13.8913 12.9284 13.8947 13.3636 13.6284 13.6342C13.3621 13.9047 12.9268 13.9081 12.6563 13.6418L11.3789 12.3843L10.1014 13.6418C9.83084 13.9082 9.39563 13.9047 9.12932 13.6342C8.863 13.3637 8.86643 12.9284 9.13697 12.6621L10.399 11.4198L9.13695 10.1774C8.86641 9.91112 8.86298 9.47591 9.1293 9.20537Z" fill="#E74C3C"/>
</svg>
