<svg width="24" height="25" viewBox="0 0 24 25" fill="none" xmlns="http://www.w3.org/2000/svg">
<path fill-rule="evenodd" clip-rule="evenodd" d="M21.7496 5.92335C21.764 6.85647 21.3856 7.81144 20.5579 8.6392L20.5571 8.63993L19.4461 9.74757C17.5503 11.6373 15.2097 13.9704 14.369 14.8284C13.9867 15.2185 13.4414 15.4659 12.9284 15.63C12.3977 15.7997 11.812 15.9079 11.2685 15.9703C10.7241 16.0329 10.198 16.0523 9.77947 16.0349C9.57249 16.0264 9.37299 16.0081 9.20283 15.9755C9.11878 15.9594 9.02226 15.9361 8.92762 15.9001C8.85409 15.8721 8.68261 15.8011 8.54295 15.6386C8.42484 15.5011 8.37414 15.3508 8.35286 15.2817C8.32579 15.1938 8.30799 15.1036 8.29542 15.0218C8.27007 14.8568 8.25665 14.6627 8.25195 14.4583C8.24248 14.0461 8.2672 13.5296 8.3329 12.9939C8.39847 12.4593 8.50749 11.8837 8.6748 11.3604C8.83686 10.8534 9.07758 10.3176 9.45096 9.93456C10.2491 9.11567 12.4076 6.96548 14.2456 5.13448C14.75 4.63201 15.2303 4.15358 15.6517 3.73329C16.4794 2.90557 17.4343 2.52708 18.3674 2.54141C19.2883 2.55554 20.1256 2.95156 20.7325 3.55839C21.3393 4.16521 21.7354 5.0025 21.7496 5.92335ZM18.3444 4.04123C17.8574 4.03375 17.2829 4.22337 16.7124 4.79397L16.7116 4.79469C16.6872 4.81902 16.6627 4.84354 16.6379 4.86824L19.4226 7.65294L19.4973 7.5784C20.0678 7.00786 20.2573 6.43347 20.2498 5.94648C20.2421 5.44717 20.0263 4.97357 19.6718 4.61908C19.3173 4.2646 18.8437 4.0489 18.3444 4.04123ZM18.3603 8.71198L15.5754 5.92707C15.4852 6.01696 15.394 6.10783 15.302 6.19946L15.2955 6.20592C13.4585 8.03584 11.3146 10.1715 10.5251 10.9815C10.3923 11.1178 10.2394 11.3921 10.1036 11.8171C9.97293 12.2258 9.87969 12.7041 9.82175 13.1765C9.76393 13.6479 9.74392 14.0915 9.75155 14.4238C9.75243 14.4621 9.75367 14.4981 9.75518 14.5318C9.7824 14.5335 9.81122 14.535 9.84165 14.5362C10.1722 14.5499 10.6197 14.535 11.0972 14.4802C11.5755 14.4252 12.06 14.3328 12.4715 14.2012C12.9007 14.064 13.1696 13.9092 13.2976 13.7786C14.1408 12.9181 16.4705 10.5958 18.3603 8.71198Z" fill="#4824F9"/>
<path d="M5.40533 5.69635C4.26198 6.8397 3.75 8.80671 3.75 12.291C3.75 15.7753 4.26198 17.7423 5.40533 18.8857C6.54868 20.029 8.51569 20.541 12 20.541C15.4825 20.541 17.4616 20.0301 18.6079 18.9389C19.7418 17.8597 20.25 16.0282 20.25 12.8204C20.25 12.4062 20.5858 12.0704 21 12.0704C21.4142 12.0704 21.75 12.4062 21.75 12.8204C21.75 16.0832 21.2582 18.4871 19.6421 20.0254C18.0384 21.5519 15.5175 22.041 12 22.041C8.48431 22.041 5.95132 21.553 4.34467 19.9463C2.73802 18.3397 2.25 15.8067 2.25 12.291C2.25 8.77532 2.73802 6.24233 4.34467 4.63569C5.95132 3.02904 8.48431 2.54102 12 2.54102C12.4142 2.54102 12.75 2.8768 12.75 3.29102C12.75 3.70523 12.4142 4.04102 12 4.04102C8.51569 4.04102 6.54868 4.55299 5.40533 5.69635Z" fill="#4824F9"/>
</svg>
