<svg width="23" height="23" viewBox="0 0 23 23" fill="none" xmlns="http://www.w3.org/2000/svg">
<path d="M11.502 2.43359C6.45116 2.43359 2.33533 6.54943 2.33533 11.6003C2.33533 16.6511 6.45116 20.7669 11.502 20.7669C16.5528 20.7669 20.6687 16.6511 20.6687 11.6003C20.6687 6.54943 16.5528 2.43359 11.502 2.43359ZM14.7928 10.3078L11.5662 13.5344C11.4287 13.6719 11.2545 13.7361 11.0803 13.7361C10.9062 13.7361 10.7228 13.6719 10.5945 13.5344L8.98116 11.9211C8.70616 11.6553 8.70616 11.2153 8.98116 10.9494C9.24699 10.6836 9.68699 10.6836 9.95283 10.9494L11.0803 12.0769L13.8212 9.33609C14.087 9.07026 14.5178 9.07026 14.7928 9.33609C15.0587 9.60193 15.0587 10.0419 14.7928 10.3078Z" fill="#00CC77"/>
</svg>
