<svg width="16" height="17" viewBox="0 0 16 17" fill="none" xmlns="http://www.w3.org/2000/svg">
<path d="M8 0.75C3.582 0.75 0 4.332 0 8.75C0 13.168 3.582 16.75 8 16.75C12.418 16.75 16 13.168 16 8.75C16 4.332 12.418 0.75 8 0.75ZM8 13.75C7.448 13.75 7 13.302 7 12.75C7 12.198 7.448 11.75 8 11.75C8.552 11.75 9 12.198 9 12.75C9 13.302 8.552 13.75 8 13.75ZM9.37867 9.08333C8.93733 9.49067 8.66667 9.758 8.66667 10.0833H7.33333C7.33333 9.15733 7.966 8.57333 8.474 8.10333C9.00667 7.61133 9.33333 7.28267 9.33333 6.75C9.33333 6.01467 8.73533 5.41667 8 5.41667C7.26467 5.41667 6.66667 6.01467 6.66667 6.75H5.33333C5.33333 5.27933 6.52933 4.08333 8 4.08333C9.47067 4.08333 10.6667 5.27933 10.6667 6.75C10.6667 7.89333 9.95267 8.55267 9.37867 9.08333Z" fill="#4824F9"/>
</svg>
