<svg width="24" height="25" viewBox="0 0 24 25" fill="none" xmlns="http://www.w3.org/2000/svg">
<path d="M6.66951 5.70543C5.86293 5.70651 5.05634 5.70975 4.2486 5.70975H4.00654C3.33614 10.4391 2.67041 15.1468 2 19.8717H6.25514C6.50654 18.1075 6.758 16.3475 7.0094 14.5875H7.0606C7.42839 16.3432 7.79614 18.0987 8.16394 19.863H12.6752C11.9676 17.7693 11.2646 15.6929 10.5616 13.6035C10.6454 13.5645 10.7152 13.5341 10.7897 13.5125C11.651 13.1353 12.4052 12.6325 12.9313 11.874C13.5179 11.0243 13.7134 10.0793 13.6575 9.08661C13.597 8.02457 13.1268 7.1576 12.191 6.52905C11.2646 5.90917 10.1984 5.72273 9.09042 5.71406C8.28267 5.70539 7.47609 5.70434 6.66951 5.70543V5.70543ZM8.14157 8.65998C8.80933 8.66674 9.26091 9.09579 9.28128 9.76715C9.29525 10.3003 9.23012 10.8162 8.94147 11.2887C8.91272 11.3345 8.87966 11.3779 8.84463 11.4201C8.82699 11.4414 8.80881 11.4624 8.78971 11.4827C8.45306 11.8507 7.88398 12.0611 7.37248 11.9866C7.52612 10.8813 7.68441 9.78015 7.83804 8.68344C7.87139 8.6782 7.90424 8.67427 7.93679 8.67091C8.00697 8.66311 8.07542 8.65931 8.14157 8.65998Z" fill="#94C120"/>
<path d="M16.0419 5.70534C15.8378 5.70101 15.7477 5.74869 15.6765 5.93491C14.0152 10.2701 12.3445 14.6052 10.6785 18.9404C10.5646 19.2436 10.4507 19.5467 10.332 19.8672C11.6563 19.8672 12.9425 19.8586 14.2336 19.8715C14.4899 19.8759 14.599 19.811 14.6607 19.5771C14.8174 18.9794 15.012 18.3861 15.1924 17.8014H17.7602V19.8499H21.9987C21.5525 15.1293 21.1064 10.4303 20.6555 5.70534C20.5369 5.70534 20.4466 5.70533 20.3612 5.70966C18.923 5.70966 17.4801 5.714 16.0419 5.70534V5.70534ZM17.5893 9.84994C17.6036 9.84994 17.6177 9.85002 17.632 9.85433C17.67 11.5304 17.708 13.2064 17.7412 14.8998H16.0419C16.5593 13.2021 17.0767 11.526 17.5893 9.84994Z" fill="#056734"/>
</svg>
