<svg width="28" height="29" viewBox="0 0 28 29" fill="none" xmlns="http://www.w3.org/2000/svg">
<path d="M17.4955 11.4375H24.4955C24.6777 11.4375 24.8509 11.3737 24.9922 11.2734C25.2201 11.1185 25.3705 10.8542 25.3705 10.5625V3.5625C25.3705 3.08854 24.974 2.6875 24.4955 2.6875C24.0169 2.6875 23.6205 3.08854 23.6205 3.5625V7.99219C22.832 6.73438 21.7975 5.64974 20.5625 4.77474C18.6393 3.40755 16.3652 2.6875 13.9955 2.69661C13.9499 2.69661 13.9089 2.69661 13.8633 2.69661C11.0879 2.73307 8.43556 3.76302 6.37566 5.6224C4.27931 7.51823 2.97136 10.1068 2.6797 12.9049C2.63412 13.3789 2.98048 13.8164 3.45899 13.862H3.5547C3.98764 13.8711 4.37045 13.543 4.41603 13.0872C4.55274 11.7747 4.95834 10.5078 5.59636 9.36849C6.10222 8.46615 6.75847 7.63672 7.54233 6.9349C8.42189 6.14193 9.42449 5.52214 10.5 5.10286C11.6074 4.67448 12.7923 4.44661 13.9955 4.44661C14.0274 4.44661 14.0547 4.4375 14.082 4.4375C16.0508 4.4375 17.9421 5.06641 19.5508 6.19661C20.8359 7.10807 21.8659 8.30208 22.5723 9.6875H17.4955C17.0169 9.6875 16.6205 10.0885 16.6205 10.5625C16.6205 11.0365 17.0169 11.4375 17.4955 11.4375Z" fill="#00CC77"/>
<path d="M14.0638 25.4375C15.8503 25.4375 17.5957 25.0182 19.1725 24.2344C19.5736 24.0339 19.9655 23.806 20.3438 23.5599C20.7904 23.2682 21.2188 22.9401 21.6244 22.5755C23.7253 20.707 25.056 18.1367 25.3705 15.3385C25.3978 15.1289 25.3477 14.9284 25.2428 14.7643C25.1745 14.6641 25.0833 14.5729 24.9785 14.5091C24.8646 14.4362 24.737 14.3906 24.6003 14.3724C24.1126 14.3086 23.6888 14.6641 23.6341 15.138C23.3652 17.5078 22.2442 19.6771 20.4577 21.263C19.7376 21.901 18.931 22.4206 18.0697 22.8125C16.8255 23.3867 15.4583 23.6875 14.0638 23.6875H13.9955C12.0039 23.6875 10.0762 23.0859 8.44467 21.9284C7.65626 21.3724 6.96811 20.707 6.38933 19.9596C6.02019 19.4857 5.69662 18.9753 5.42319 18.4375H10.4955C10.6686 18.4375 10.8327 18.3828 10.9694 18.2917C11.1107 18.2005 11.2246 18.0638 11.293 17.9089C11.3431 17.7995 11.3705 17.681 11.3705 17.5625C11.3705 17.0885 10.974 16.6875 10.4955 16.6875H3.49545C3.32683 16.6875 3.16733 16.7422 3.03061 16.8333C2.78452 16.9883 2.62045 17.2617 2.62045 17.5625V24.5625C2.62045 25.0365 3.01694 25.4375 3.49545 25.4375C3.58204 25.4375 3.66407 25.4193 3.74155 25.3919C3.81902 25.3737 3.89194 25.3372 3.9603 25.2917L4.12436 25.1641C4.1836 25.1003 4.23373 25.0273 4.27475 24.9544C4.31121 24.8815 4.33855 24.7995 4.35678 24.7174L4.37045 24.5625V20.1419C5.16342 21.3997 6.19337 22.4844 7.4284 23.3503C9.36524 24.7174 11.6302 25.4375 13.9955 25.4375H14.0638Z" fill="#00CC77"/>
</svg>
