<svg width="24" height="24" viewBox="0 0 24 24" fill="none" xmlns="http://www.w3.org/2000/svg">
<path d="M12.0001 12.2878C11.7871 12.2901 11.5756 12.252 11.3768 12.1755L1.10406 8.05889C0.793627 7.93453 0.52756 7.72005 0.340151 7.44309C0.152742 7.16613 0.0525818 6.83939 0.0525818 6.50498C0.0525818 6.17057 0.152742 5.84383 0.340151 5.56687C0.52756 5.28991 0.793627 5.07543 1.10406 4.95108L11.3768 0.841109C11.5751 0.762343 11.7867 0.721981 12.0001 0.722171C12.2128 0.721776 12.4237 0.76215 12.6212 0.841109L22.8961 4.95108C23.2066 5.07543 23.4726 5.28991 23.6601 5.56687C23.8475 5.84383 23.9476 6.17057 23.9476 6.50498C23.9476 6.83939 23.8475 7.16613 23.6601 7.44309C23.4726 7.72005 23.2066 7.93453 22.8961 8.05889L12.6212 12.1755C12.4232 12.2522 12.2124 12.2903 12.0001 12.2878Z" fill="#46AEFA"/>
<path opacity="0.5" d="M23.4804 12.1575L21.3395 11.2941L12.9896 14.642C12.3531 14.8951 11.6439 14.8951 11.0073 14.642L2.66186 11.2941L0.518775 12.1575C0.381076 12.213 0.263114 12.3084 0.180041 12.4315C0.0969691 12.5545 0.0525818 12.6996 0.0525818 12.848C0.0525818 12.9965 0.0969691 13.1416 0.180041 13.2646C0.263114 13.3876 0.381076 13.483 0.518775 13.5385L11.7254 18.0207C11.9029 18.0912 12.1007 18.0912 12.2782 18.0207L23.4826 13.5385C23.6202 13.4828 23.738 13.3872 23.8209 13.2641C23.9038 13.1409 23.948 12.9957 23.9477 12.8473C23.9475 12.6988 23.9029 12.5538 23.8196 12.4309C23.7363 12.308 23.6182 12.2128 23.4804 12.1575Z" fill="#46AEFA"/>
<path d="M23.4804 17.9438L21.3395 17.087L12.9896 20.426C12.3539 20.6832 11.6431 20.6832 11.0073 20.426L2.66186 17.087L0.518775 17.9438C0.381076 17.9993 0.263114 18.0947 0.180041 18.2177C0.0969691 18.3407 0.0525818 18.4858 0.0525818 18.6343C0.0525818 18.7827 0.0969691 18.9278 0.180041 19.0508C0.263114 19.1739 0.381076 19.2693 0.518775 19.3248L11.7254 23.807C11.9029 23.8775 12.1007 23.8775 12.2782 23.807L23.4826 19.3248C23.6202 19.2691 23.738 19.1735 23.8209 19.0503C23.9038 18.9271 23.948 18.782 23.9477 18.6335C23.9475 18.4851 23.9029 18.3401 23.8196 18.2172C23.7363 18.0942 23.6182 17.999 23.4804 17.9438Z" fill="#46AEFA"/>
</svg>
