<svg width="24" height="25" viewBox="0 0 24 25" fill="none" xmlns="http://www.w3.org/2000/svg">
<g clip-path="url(#clip0_2604_1308)">
<path fill-rule="evenodd" clip-rule="evenodd" d="M17.1445 23.9596L17.8895 4.25317C18.1024 4.4656 18.2625 4.62527 18.2625 4.62527C18.2625 4.62527 20.0977 4.76177 20.1842 4.76927C20.2715 4.77677 20.3768 4.84352 20.3932 4.96427C20.4096 5.08502 23 22.6868 23 22.6868L17.1445 23.9596ZM16.1542 24.1749L15.6199 24.291L2 21.7268C2 21.7268 3.74782 8.14202 3.81424 7.66277C3.90156 7.03052 3.92246 7.00952 4.59114 6.79877C4.69935 6.76427 5.54938 6.49952 6.74644 6.12677C7.20765 4.16102 8.67934 0.291016 11.7593 0.291016C12.1616 0.291016 12.6272 0.508516 13.0034 1.00802C13.0407 1.00577 13.0788 1.00427 13.1153 1.00427C14.437 1.00427 15.1885 2.13602 15.6147 3.36752C16.0498 3.23252 16.3124 3.15077 16.3281 3.14627C16.4341 3.11477 16.7072 3.07202 16.8475 3.21302C16.8643 3.22988 16.8975 3.2631 16.943 3.30851L16.1542 24.1749ZM13 4.40401C13 3.46837 12.896 2.77442 12.7374 2.29102C12.1062 2.61937 11.3848 3.48965 11 5.29102C11.6857 5.03335 12.3695 4.77645 12.9994 4.54007C12.9994 4.49598 13 4.4519 13 4.40401ZM11.6382 1.29102C9.61502 1.29102 8.4785 4.38974 8 6.29102C8.53993 6.09595 9.12355 5.88496 9.72082 5.6692C10.1297 3.17716 11.0969 1.92875 12 1.43353C11.8826 1.33958 11.7604 1.29102 11.6382 1.29102ZM12.0773 11.3256L13 8.64437C13 8.64437 12.3761 8.29102 11.1146 8.29102C7.83986 8.29102 6.21762 10.4289 6.21762 12.6377C6.21762 15.2627 8.89715 15.3344 8.89715 16.9319C8.89715 17.3178 8.61732 17.8464 7.93137 17.8464C6.88013 17.8464 5.63452 16.8011 5.63452 16.8011L5 18.8495C5 18.8495 6.21157 20.291 8.58102 20.291C10.5557 20.291 12.0199 18.8377 12.0199 16.5815C12.0199 13.7133 8.75421 13.2439 8.75421 12.019C8.75421 11.795 8.82757 10.9042 10.2796 10.9042C11.2696 10.9042 12.0773 11.3256 12.0773 11.3256ZM14.1925 4.29102C14.488 4.16717 14.7605 4.05322 15 3.95273C14.7955 3.10701 14.4775 2.3717 14 2.29102C14.1187 2.75174 14.193 3.33348 14.193 4.05535C14.193 4.13815 14.1925 4.21387 14.1925 4.29102Z" fill="#96BF48"/>
</g>
<defs>
<clipPath id="clip0_2604_1308">
<rect width="24" height="24" fill="white" transform="translate(0 0.291016)"/>
</clipPath>
</defs>
</svg>
