<svg width="28" height="29" viewBox="0 0 28 29" fill="none" xmlns="http://www.w3.org/2000/svg">
<path fill-rule="evenodd" clip-rule="evenodd" d="M13.0421 5.25763L11.2993 8.85538C10.9028 9.64744 10.0269 10.108 9.28483 10.2562C9.27015 10.2592 9.2554 10.2617 9.24058 10.2639L5.26772 10.8475C4.85011 10.9126 4.54807 11.1984 4.42838 11.5411C4.31323 11.8708 4.37373 12.2195 4.66969 12.4856C4.68109 12.4958 4.69223 12.5064 4.70308 12.5172L7.47161 15.2826C8.19724 15.8645 8.5032 16.8858 8.33581 17.7385L7.63776 21.5735C7.51538 22.4153 8.33379 22.9986 9.06904 22.6353L12.6887 20.7692C12.7135 20.7564 12.739 20.7447 12.765 20.7344C13.5581 20.4175 14.3753 20.4175 15.1685 20.7344C15.1944 20.7447 15.2199 20.7564 15.2448 20.7692L18.8644 22.6353C19.5996 22.9986 20.418 22.4153 20.2957 21.5735L19.5976 17.7387C19.4127 16.7982 19.8089 15.9347 20.4236 15.3207C20.4322 15.3122 20.441 15.3038 20.4499 15.2955L23.358 12.6231C23.8899 12.0748 23.5843 11.0894 22.7827 10.9643C22.7819 10.9642 22.7811 10.9641 22.7802 10.9639L18.8098 10.3807C18.795 10.3785 18.7802 10.376 18.7655 10.3731C18.0134 10.2228 17.1289 9.75273 16.7391 8.83225L14.8799 5.23413C14.5279 4.53096 13.5548 4.41555 13.0421 5.25763ZM16.4422 4.44539C15.3924 2.35775 12.6433 2.46972 11.5154 4.40117C11.504 4.42069 11.4934 4.44063 11.4835 4.46097L9.73268 8.07526C9.65973 8.21588 9.37517 8.44809 8.96161 8.53611L5.01006 9.11656L5.00433 9.11742C3.90288 9.28669 3.09486 10.0518 2.77623 10.9641C2.45513 11.8836 2.62378 12.9859 3.48116 13.7701L6.27306 16.5589C6.30235 16.5881 6.33368 16.6153 6.36681 16.6401C6.53442 16.7657 6.67671 17.1112 6.61819 17.4034L5.91363 21.2734L5.90968 21.2969C5.57265 23.4851 7.7878 25.2313 9.85522 24.1987L13.4496 22.3457C13.8009 22.2137 14.1325 22.2137 14.4838 22.3457L18.0682 24.1937L18.0782 24.1987C20.1456 25.2313 22.3608 23.4851 22.0237 21.2969L22.0198 21.2734L21.3181 17.4185L21.3152 17.4034C21.2708 17.1817 21.3396 16.885 21.6487 16.5706L24.5577 13.8974C24.5667 13.8891 24.5754 13.8807 24.584 13.8721C26.1418 12.3161 25.2778 9.5772 23.046 9.23424L19.0888 8.65293C18.6941 8.56887 18.4322 8.35394 18.3459 8.1384C18.3355 8.11239 18.3238 8.0869 18.3109 8.06201L16.4422 4.44539Z" fill="#4824F9"/>
</svg>
