<svg width="24" height="25" viewBox="0 0 24 25" fill="none" xmlns="http://www.w3.org/2000/svg">
<g clip-path="url(#clip0_2604_1219)">
<path d="M15.2399 12.2825C15.2399 11.9062 14.9279 11.5942 14.5516 11.5942H12.6978V9.74039C12.6978 9.36413 12.3858 9.05211 12.0096 9.05211C11.6333 9.05211 11.3213 9.36413 11.3213 9.74039V11.5942H9.46749C9.09123 11.5942 8.7792 11.9062 8.7792 12.2825C8.7792 12.6587 9.09123 12.9707 9.46749 12.9707H11.3213V14.8245C11.3213 15.2008 11.6333 15.5128 12.0096 15.5128C12.3858 15.5128 12.6978 15.2008 12.6978 14.8245V12.9707H14.5516C14.9279 12.9707 15.2399 12.6587 15.2399 12.2825ZM3.71342 11.5942C4.05298 11.5942 4.34665 11.3556 4.39253 11.0252C4.41089 10.8875 4.53937 10.3736 4.5669 10.236C4.63114 9.91476 4.44759 9.59356 4.14475 9.47426C3.74095 9.31825 3.30045 9.55685 3.20868 9.979C3.18115 10.1167 3.15362 10.2543 3.12609 10.392C3.05267 10.8141 2.97925 11.5024 3.71342 11.5942ZM7.52194 6.01447C7.64124 5.93188 7.75137 5.84011 7.87985 5.76669C8.14598 5.59233 8.23775 5.23442 8.10927 4.94075C7.93491 4.53696 7.44852 4.40848 7.08143 4.64708C6.96213 4.72968 6.84283 4.81227 6.72353 4.89486C6.38397 5.15182 6.33809 5.63821 6.64093 5.94106C6.87954 6.17966 7.24662 6.21637 7.51276 6.01447H7.52194ZM5.6498 6.8863C5.37449 6.61099 4.91563 6.63852 4.66785 6.94137C4.51183 7.14326 4.35582 7.35434 4.21817 7.57459C3.99791 7.92332 4.1631 8.39135 4.54854 8.54737L4.59443 8.56572C4.90645 8.6942 5.24601 8.56572 5.42955 8.27205C5.5305 8.10686 5.64062 7.95085 5.75993 7.79484C5.95265 7.5287 5.94347 7.16162 5.70486 6.93219L5.65898 6.8863H5.6498ZM4.39253 13.5764C4.33747 13.2277 4.05298 12.9616 3.69507 12.9616C3.26374 12.9616 2.93337 13.3378 2.98843 13.7692C3.17197 15.1274 3.79602 16.4581 4.61278 17.5777C4.86057 17.9172 5.35613 17.9631 5.65898 17.6603C5.90676 17.4125 5.91594 17.0362 5.71404 16.7609C5.05329 15.834 4.58525 14.7511 4.39253 13.5856V13.5764ZM10.7248 19.8995C9.55926 19.7068 8.47636 19.2387 7.54947 18.578C7.26498 18.3761 6.87036 18.3853 6.62258 18.633C6.31973 18.9359 6.35644 19.4406 6.69599 19.7068C7.76972 20.5419 9.10958 21.0466 10.5229 21.2577C10.945 21.3219 11.3305 21.0007 11.3305 20.5786C11.3305 20.2299 11.0735 19.9545 10.7339 19.8995H10.7248ZM13.2944 4.65626C16.5247 5.19771 19.076 7.75813 19.6266 10.9885C19.6816 11.3372 19.9661 11.5942 20.3149 11.5942C20.7462 11.5942 21.0674 11.2087 21.0123 10.7866C20.4984 7.00561 17.4057 3.88538 13.5146 3.27969C13.0925 3.21545 12.6978 3.53665 12.6978 3.9588C12.6978 4.30753 12.9548 4.58284 13.3035 4.6379L13.2944 4.65626ZM16.4788 18.578C15.5519 19.2387 14.469 19.7068 13.3035 19.8995C12.9548 19.9637 12.6887 20.2482 12.6887 20.597C12.6887 21.0283 13.0649 21.3587 13.4963 21.3036C14.9371 21.1292 16.2035 20.496 17.3139 19.6701C17.6535 19.4223 17.681 18.9267 17.3874 18.6239C17.1396 18.3761 16.7633 18.3669 16.4788 18.5688V18.578ZM20.3057 12.9707C19.957 12.9707 19.6816 13.2277 19.6266 13.5673C19.4339 14.7328 18.9658 15.8157 18.3143 16.7426C18.1124 17.027 18.1215 17.4217 18.3785 17.6694C18.6813 17.9723 19.1861 17.9356 19.4522 17.596C20.2965 16.5131 20.7921 15.1824 21.0032 13.7692C21.0674 13.347 20.7462 12.9616 20.324 12.9616L20.3057 12.9707Z" fill="url(#paint0_linear_2604_1219)"/>
</g>
<defs>
<linearGradient id="paint0_linear_2604_1219" x1="12.0005" y1="3.27148" x2="12.0005" y2="21.3096" gradientUnits="userSpaceOnUse">
<stop stop-color="#B937AE"/>
<stop offset="0.510417" stop-color="#FF3867"/>
<stop offset="1" stop-color="#FFAA40"/>
</linearGradient>
<clipPath id="clip0_2604_1219">
<rect width="19.66" height="19.65" fill="white" transform="translate(2.16992 2.4668)"/>
</clipPath>
</defs>
</svg>
