<svg width="28" height="29" viewBox="0 0 28 29" fill="none" xmlns="http://www.w3.org/2000/svg">
<path d="M19.8334 9.62436C19.8334 8.98003 19.311 8.45769 18.6667 8.45769C18.0224 8.45769 17.5 8.98003 17.5 9.62436C17.5 10.2687 18.0224 10.791 18.6667 10.791C19.311 10.791 19.8334 10.2687 19.8334 9.62436Z" fill="#4824F9"/>
<path fill-rule="evenodd" clip-rule="evenodd" d="M24.628 13.5614C24.4268 14.6704 24.0076 15.767 23.2059 16.5723L23.1855 16.5928C20.8627 18.9257 19.041 20.7553 17.5469 22.0939C16.0621 23.4241 14.8144 24.3511 13.6364 24.7893C12.3806 25.2564 11.2446 25.1545 10.0889 24.5638C9.00421 24.0095 7.89783 23.0213 6.61389 21.7617L6.60654 21.7545C5.32283 20.4652 4.31567 19.3553 3.74748 18.2676C3.14214 17.1088 3.02974 15.967 3.49584 14.7031C3.93265 13.5186 4.86503 12.2648 6.20446 10.7736C7.55616 9.26881 9.40679 7.43342 11.7684 5.0915C12.5704 4.28726 13.6627 3.86612 14.7675 3.66399C15.8808 3.46031 17.0849 3.46423 18.2023 3.57487C19.3229 3.68584 20.3899 3.90753 21.2413 4.16046C21.6666 4.2868 22.0506 4.42462 22.3673 4.56641C22.6562 4.69574 22.9809 4.86769 23.2059 5.09366C23.4306 5.31938 23.6015 5.64493 23.7301 5.93463C23.8711 6.25229 24.0082 6.63761 24.1339 7.06445C24.3855 7.91901 24.6061 8.98999 24.7166 10.1148C24.8267 11.2363 24.8305 12.4445 24.628 13.5614ZM21.9651 6.32914L21.9609 6.32633C21.9372 6.31058 21.8488 6.25163 21.6522 6.16363C21.4242 6.06156 21.1164 5.94894 20.743 5.83801C19.997 5.6164 19.0391 5.41629 18.0298 5.31635C17.0173 5.21609 15.9865 5.22001 15.0824 5.38541C14.1709 5.55218 13.4642 5.86863 13.0064 6.3284L13.0025 6.33234C10.6253 8.6897 8.81667 10.4843 7.50636 11.9431C6.18343 13.4158 5.45091 14.4594 5.13776 15.3086C4.85389 16.0783 4.90648 16.7067 5.2986 17.4573C5.72745 18.2783 6.54902 19.2162 7.84309 20.5161C9.13709 21.7853 10.0696 22.5886 10.8853 23.0055C11.6307 23.3865 12.2571 23.4352 13.0262 23.1491C13.8732 22.8341 14.9128 22.1041 16.3791 20.7904C17.8317 19.4891 19.6185 17.695 21.9658 15.3375C22.4239 14.8773 22.7397 14.1663 22.906 13.2491C23.071 12.3398 23.0748 11.3033 22.9749 10.2857C22.8754 9.27136 22.676 8.30863 22.4552 7.55882C22.3446 7.18348 22.2324 6.87395 22.1306 6.64458C22.0426 6.44629 21.9836 6.35705 21.9679 6.33333L21.9651 6.32914Z" fill="#4824F9"/>
</svg>
