<svg width="24" height="25" viewBox="0 0 24 25" fill="none" xmlns="http://www.w3.org/2000/svg">
<g clip-path="url(#clip0_2604_1227)">
<path d="M12 21.6191C17.1518 21.6191 21.3281 17.4428 21.3281 12.291C21.3281 7.13923 17.1518 2.96289 12 2.96289C6.84822 2.96289 2.67188 7.13923 2.67188 12.291C2.67188 17.4428 6.84822 21.6191 12 21.6191Z" fill="url(#paint0_linear_2604_1227)"/>
<path d="M7.79688 13.4718L9.24373 17.4765C9.24373 17.4765 9.42462 17.8512 9.61832 17.8512C9.81202 17.8512 12.693 14.854 12.693 14.854L15.8968 8.66602L7.8485 12.4381L7.79688 13.4718Z" fill="#C8DAEA"/>
<path d="M9.7123 14.5098L9.43455 17.4616C9.43455 17.4616 9.31829 18.3661 10.2226 17.4616C11.1268 16.5571 11.9924 15.8597 11.9924 15.8597" fill="#A9C6D8"/>
<path d="M7.82213 13.6197L4.84591 12.65C4.84591 12.65 4.49022 12.5056 4.60475 12.1784C4.62833 12.1109 4.67589 12.0535 4.81817 11.9548C5.47762 11.4952 17.0241 7.34507 17.0241 7.34507C17.0241 7.34507 17.3501 7.23521 17.5424 7.30828C17.5899 7.32301 17.6327 7.3501 17.6664 7.38679C17.7 7.42349 17.7234 7.46846 17.7339 7.51712C17.7547 7.60306 17.7634 7.69148 17.7597 7.77983C17.7588 7.85625 17.7496 7.92708 17.7426 8.03816C17.6722 9.17281 15.5678 17.6411 15.5678 17.6411C15.5678 17.6411 15.4419 18.1366 14.9907 18.1536C14.8799 18.1572 14.7694 18.1384 14.666 18.0984C14.5625 18.0584 14.4682 17.9979 14.3886 17.9207C13.5033 17.1592 10.4436 15.1029 9.76746 14.6507C9.75221 14.6403 9.73937 14.6267 9.72979 14.611C9.72022 14.5952 9.71414 14.5775 9.71197 14.5592C9.70252 14.5115 9.75435 14.4525 9.75435 14.4525C9.75435 14.4525 15.0822 9.71672 15.224 9.21956C15.2349 9.18105 15.1935 9.16204 15.1378 9.17891C14.7839 9.3091 8.64957 13.183 7.97254 13.6105C7.92381 13.6253 7.8723 13.6284 7.82213 13.6197Z" fill="white"/>
</g>
<defs>
<linearGradient id="paint0_linear_2604_1227" x1="12" y1="21.6191" x2="12" y2="2.96289" gradientUnits="userSpaceOnUse">
<stop stop-color="#1D93D2"/>
<stop offset="1" stop-color="#38B0E3"/>
</linearGradient>
<clipPath id="clip0_2604_1227">
<rect width="18.6562" height="18.6562" fill="white" transform="translate(2.67188 2.96289)"/>
</clipPath>
</defs>
</svg>
