<svg width="24" height="25" viewBox="0 0 24 25" fill="none" xmlns="http://www.w3.org/2000/svg">
<path d="M15.175 15.2137C15.175 15.2107 15.1745 15.2078 15.1745 15.2049L15.1813 15.2137L15.1804 8.71719C16.4313 9.61115 17.9642 10.1363 19.6192 10.1363V7.81539C19.1352 7.70604 18.6684 7.52607 18.2432 7.26078C17.7558 6.95675 17.3356 6.55856 16.9987 6.09565C16.1405 5.47042 15.5182 4.54851 15.2775 3.47852H12.7231V16.1944C12.7231 17.5484 11.6251 18.6463 10.2712 18.6463C9.34098 18.6463 8.54167 18.1221 8.12583 17.3591C7.36281 16.9432 6.83859 16.1439 6.83859 15.2137C6.83859 13.8598 7.93654 12.7618 9.29047 12.7618C9.45867 12.7618 9.62245 12.779 9.78084 12.8113V10.3349C6.76111 10.5845 4.38672 13.11 4.38672 16.1944C4.38672 17.5694 4.86189 18.8312 5.65238 19.8325C6.65372 20.623 7.91546 21.0982 9.29047 21.0982C12.5402 21.0982 15.175 18.4634 15.175 15.2137Z" fill="#131212"/>
<path d="M10.2676 18.65C11.6215 18.65 12.7195 17.5521 12.7195 16.1981V3.4827H15.2733C15.2675 3.45644 15.261 3.43046 15.2545 3.40446C15.2439 3.36252 15.2333 3.32053 15.2258 3.27724C15.2042 3.15562 15.188 3.0345 15.1767 2.91142V2.50195H11.7387V15.2174C11.7387 16.5713 10.6408 17.6693 9.28685 17.6693C8.86316 17.6693 8.47037 17.5521 8.1222 17.3628C8.53804 18.1258 9.33735 18.65 10.2676 18.65Z" fill="#4BCCEE"/>
<path d="M18.2399 7.26497C18.6651 7.53026 19.1319 7.71023 19.6159 7.81958V6.95701C18.7823 6.95848 17.9663 6.72506 17.2591 6.28373C17.1799 6.23428 17.1047 6.17928 17.0293 6.12419L16.9953 6.09935C17.3322 6.56275 17.7525 6.96093 18.2399 7.26497Z" fill="#4BCCEE"/>
<path d="M9.77722 9.35724V10.338C6.75749 10.5881 4.38309 13.1135 4.38309 16.198C4.38309 17.573 4.85827 18.8347 5.64875 19.8361C4.28257 18.7587 3.40234 17.0924 3.40234 15.2172C3.40234 11.9675 6.03713 9.33273 9.28685 9.33273C9.45259 9.33273 9.61491 9.344 9.77722 9.35724Z" fill="#4BCCEE"/>
<path d="M16.9978 6.09565C16.607 5.55918 16.3289 4.93493 16.2097 4.2538C16.1882 4.13219 16.172 4.01106 16.1607 3.88798V3.47852H15.2766C15.5173 4.54851 16.1401 5.47042 16.9978 6.09565Z" fill="#E33152"/>
<path d="M9.29054 12.7612C7.93661 12.7612 6.83866 13.8591 6.83866 15.213C6.83866 16.1433 7.36288 16.9426 8.1259 17.3584C7.93661 17.0103 7.81941 16.6175 7.81941 16.1938C7.81941 14.8399 8.91736 13.7419 10.2713 13.7419C10.4395 13.7419 10.6033 13.7591 10.7617 13.7914V10.3343C10.5994 10.3206 10.437 10.3093 10.2713 10.3093C10.1055 10.3093 9.94323 10.3206 9.78092 10.3338V12.8102C9.62252 12.7783 9.45874 12.7612 9.29054 12.7612Z" fill="#E33152"/>
<path d="M19.6187 10.1363V7.81537C19.9399 7.88746 20.2675 7.93453 20.6 7.93355V11.1166C18.9449 11.1166 17.412 10.5914 16.1611 9.69743L16.1621 16.1939L16.1552 16.1851L16.1557 16.1939C16.1557 19.4436 13.5209 22.0784 10.2712 22.0784C8.39599 22.0784 6.7297 21.1982 5.65234 19.832C6.65369 20.6225 7.91543 21.0977 9.29044 21.0977C12.5402 21.0977 15.1749 18.4629 15.1749 15.2132L15.1744 15.2043L15.1813 15.2132L15.1798 8.71717C16.4308 9.61113 17.9637 10.1363 19.6187 10.1363Z" fill="#E33152"/>
</svg>
