<svg width="24" height="25" viewBox="0 0 24 25" fill="none" xmlns="http://www.w3.org/2000/svg">
<path fill-rule="evenodd" clip-rule="evenodd" d="M21.9002 7.85272C21.8139 9.71454 20.4641 12.2596 17.8602 15.4891C15.1653 18.866 12.8818 20.5534 11.0157 20.5534C9.86174 20.5534 8.88379 19.5268 8.08534 17.4669C7.55033 15.5769 7.01881 13.6869 6.48496 11.8026C5.8905 9.74155 5.25407 8.71159 4.57335 8.71159C4.42532 8.71159 3.90896 9.01214 3.01843 9.61436L2.08594 8.45382C3.06272 7.62647 4.02552 6.79574 4.97549 5.96726C6.27631 4.87989 7.25426 4.30919 7.90701 4.24953C9.44561 4.10545 10.3944 5.1219 10.7523 7.29553C11.1334 9.6425 11.4015 11.1013 11.5495 11.6732C11.9948 13.6183 12.482 14.5886 13.0159 14.5886C13.4297 14.5886 14.0521 13.9605 14.882 12.7031C15.7119 11.4435 16.1537 10.4867 16.2143 9.8271C16.3332 8.73973 15.8891 8.19942 14.882 8.19942C14.4076 8.19942 13.9181 8.29623 13.4157 8.49884C14.3948 5.43821 16.2598 3.95011 19.0153 4.03678C21.0563 4.09194 22.0202 5.36617 21.9002 7.85272Z" fill="#1AB7EA"/>
</svg>
