<svg width="40" height="11" viewBox="0 0 40 11" fill="none" xmlns="http://www.w3.org/2000/svg">
<path fill-rule="evenodd" clip-rule="evenodd" d="M0.960938 0.377808H3.60157L7.40407 9.78063H4.78985L0.960938 0.377808Z" fill="#CA3438"/>
<path fill-rule="evenodd" clip-rule="evenodd" d="M8.61877 0.377686H11.2594L15.0619 9.78051H12.4477L8.61877 0.377686Z" fill="#CA3438"/>
<path fill-rule="evenodd" clip-rule="evenodd" d="M11.233 0.377686H8.61877L4.78986 9.78051H7.43049L11.233 0.377686Z" fill="#ED3237"/>
<path fill-rule="evenodd" clip-rule="evenodd" d="M18.9173 0.377686H16.2766L12.4477 9.78051H15.0884L18.9173 0.377686Z" fill="#ED3237"/>
<path d="M25.1755 7.47615C25.1755 8.29725 24.8851 8.93293 24.3041 9.40969C23.776 9.83348 23.0894 10.0454 22.2444 10.0454H20.3432C20.0791 10.0454 19.8415 9.93943 19.6038 9.78051C19.3133 9.56861 19.1813 9.27726 19.1813 8.90644V1.51662C19.1813 1.17229 19.2869 0.907424 19.4982 0.69553C19.7094 0.510122 19.9999 0.404175 20.3432 0.404175H21.9276C22.6933 0.404175 23.3271 0.616069 23.8552 1.06635C24.4098 1.51662 24.6738 2.12582 24.6738 2.89394C24.6738 3.92692 24.1457 4.61558 23.063 4.98639C24.4626 5.33072 25.1755 6.15181 25.1755 7.47615ZM24.0665 2.94691C24.0665 2.33771 23.8552 1.86095 23.4591 1.49013C23.1951 1.25175 22.931 1.09283 22.6933 1.01337C22.5613 0.960398 22.2972 0.960398 21.9276 0.960398H20.2904C19.9207 0.986885 19.7622 1.19878 19.7622 1.51662V4.82747H21.4522H21.7427C22.3765 4.82747 22.9046 4.69504 23.3535 4.3772C23.8288 4.03287 24.0665 3.55611 24.0665 2.94691ZM24.5682 7.47615C24.5682 6.04587 23.6704 5.35721 21.9012 5.35721H21.3466H19.7622V8.93293C19.7622 9.25077 19.9207 9.46267 20.2904 9.51564H22.1124C23.7496 9.51564 24.5682 8.82698 24.5682 7.47615ZM31.9884 6.73452C31.9884 7.74102 31.7243 8.56211 31.2226 9.1978C30.668 9.88645 29.9023 10.2043 28.8988 10.2043C27.869 10.2043 27.1032 9.88645 26.5487 9.1978C26.0469 8.5886 25.7829 7.76751 25.7829 6.73452V0.642556H26.3638V6.49614C26.3638 8.5886 27.2088 9.64807 28.8988 9.64807C30.5624 9.64807 31.4074 8.5886 31.4074 6.49614V0.642556H31.9884V6.73452ZM39.0388 0.642556L36.1077 5.3837V10.0454H35.5532V5.3837L32.5957 0.642556H33.203L35.8173 4.85396L38.4579 0.642556H39.0388Z" fill="#F58634"/>
</svg>
