<svg width="24" height="25" viewBox="0 0 24 25" fill="none" xmlns="http://www.w3.org/2000/svg">
<path d="M12.0401 20.6542H12.0434C16.6832 20.6542 20.4596 16.866 20.4616 12.2101C20.4623 9.95369 19.5876 7.8321 17.9982 6.23613C16.4087 4.64015 14.2953 3.7607 12.0466 3.75977C7.40308 3.75977 3.62684 7.54744 3.625 12.2032C3.62434 13.7986 4.06925 15.3524 4.912 16.6969L5.11237 17.0164L4.26171 20.1322L7.4479 19.294L7.75545 19.477C9.04773 20.2464 10.5293 20.6534 12.0401 20.6542Z" fill="url(#paint0_linear_2604_1225)"/>
<path fill-rule="evenodd" clip-rule="evenodd" d="M9.50966 7.95447C9.3201 7.53159 9.12052 7.52313 8.94018 7.51573C8.79267 7.50938 8.6238 7.50977 8.4552 7.50977C8.28646 7.50977 8.01227 7.5734 7.78039 7.82749C7.54838 8.08158 6.89453 8.69584 6.89453 9.94512C6.89453 11.1945 7.80148 12.4018 7.9279 12.5713C8.05445 12.7406 9.67866 15.3863 12.2509 16.4041C14.3887 17.25 14.8238 17.0817 15.2878 17.0394C15.7518 16.9971 16.785 16.4253 16.996 15.8323C17.2069 15.2395 17.2069 14.7313 17.1436 14.6251C17.0803 14.5193 16.9116 14.4558 16.6585 14.3288C16.4054 14.2018 15.1612 13.5874 14.9292 13.5028C14.6972 13.4181 14.5285 13.3758 14.3597 13.63C14.191 13.884 13.7063 14.4558 13.5586 14.6251C13.411 14.7948 13.2634 14.8159 13.0103 14.689C12.7572 14.5616 11.9421 14.2937 10.9752 13.4287C10.2228 12.7557 9.71491 11.9245 9.56726 11.6703C9.41962 11.4163 9.55144 11.2788 9.67839 11.1522C9.79202 11.0384 9.93149 10.8558 10.058 10.7075C10.1843 10.5592 10.2265 10.4534 10.3109 10.2841C10.3952 10.1145 10.3531 9.96625 10.2898 9.83927C10.2265 9.7123 9.73468 8.45656 9.50966 7.95447Z" fill="white"/>
<path d="M19.2061 5.0204C17.2937 3.10024 14.7509 2.04222 12.0416 2.04102C6.45872 2.04102 1.91539 6.59824 1.91315 12.1997C1.91249 13.9903 2.37876 15.7381 3.26501 17.2788L1.82812 22.5431L7.19733 21.1304C8.67666 21.9399 10.3423 22.3665 12.0373 22.3672H12.0416C17.6235 22.3672 22.1676 17.8091 22.1699 12.2079C22.1709 9.49322 21.1183 6.94069 19.2061 5.0204ZM12.0416 20.6514H12.0383C10.5275 20.6506 9.04591 20.2436 7.75363 19.4742L7.44608 19.2912L4.25989 20.1294L5.11055 17.0136L4.91017 16.6941C4.06743 15.3496 3.62252 13.7958 3.62318 12.2004C3.62502 7.54464 7.40126 3.75696 12.0448 3.75696C14.2935 3.75789 16.4069 4.63734 17.9964 6.23332C19.5858 7.82929 20.4605 9.95089 20.4598 12.2073C20.4578 16.8632 16.6814 20.6514 12.0416 20.6514Z" fill="white"/>
<defs>
<linearGradient id="paint0_linear_2604_1225" x1="11.9983" y1="22.1849" x2="11.9983" y2="2.39261" gradientUnits="userSpaceOnUse">
<stop stop-color="#20B038"/>
<stop offset="1" stop-color="#60D66A"/>
</linearGradient>
</defs>
</svg>
