<svg width="20" height="21" viewBox="0 0 20 21" fill="none" xmlns="http://www.w3.org/2000/svg">
<path fill-rule="evenodd" clip-rule="evenodd" d="M7.92471 6.63613C7.76675 6.28373 7.60043 6.27668 7.45015 6.27051C7.32722 6.26522 7.1865 6.26555 7.046 6.26555C6.90539 6.26555 6.67689 6.31857 6.48366 6.53031C6.29032 6.74206 5.74544 7.25394 5.74544 8.29501C5.74544 9.33619 6.50124 10.3422 6.60658 10.4835C6.71204 10.6246 8.06555 12.8293 10.2091 13.6775C11.9906 14.3824 12.3531 14.2422 12.7398 14.2069C13.1265 14.1716 13.9875 13.6951 14.1633 13.201C14.3391 12.707 14.3391 12.2835 14.2863 12.195C14.2336 12.1068 14.093 12.0539 13.8821 11.9481C13.6712 11.8422 12.6344 11.3303 12.441 11.2597C12.2477 11.1892 12.1071 11.1539 11.9665 11.3658C11.8258 11.5774 11.4219 12.0539 11.2989 12.195C11.1758 12.3364 11.0528 12.354 10.8419 12.2482C10.631 12.1421 9.95173 11.9188 9.14596 11.198C8.51903 10.6371 8.09576 9.94449 7.97272 9.73265C7.84968 9.52102 7.95953 9.40638 8.06533 9.30089C8.16002 9.2061 8.27625 9.05388 8.38171 8.93031C8.48694 8.80675 8.52209 8.71857 8.5924 8.57748C8.66271 8.43617 8.62755 8.31262 8.57482 8.2068C8.52209 8.10099 8.11224 7.05454 7.92471 6.63613Z" fill="#4824F9"/>
<path d="M16.0051 4.19107C14.4115 2.59094 12.2924 1.70925 10.0347 1.70825C5.38227 1.70825 1.59616 5.50594 1.59429 10.1738C1.59374 11.666 1.9823 13.1225 2.72084 14.4064L1.52344 18.7933L5.99777 17.6161C7.23055 18.2907 8.61856 18.6462 10.0311 18.6467H10.0346C14.6863 18.6467 18.473 14.8484 18.475 10.1807C18.4757 7.91842 17.5985 5.79132 16.0051 4.19107ZM10.0347 17.2169H10.0319C8.77291 17.2162 7.53826 16.8771 6.46136 16.2359L6.20507 16.0834L3.5499 16.7819L4.25879 14.1854L4.09181 13.9192C3.38952 12.7987 3.01877 11.5039 3.01932 10.1744C3.02085 6.2946 6.16772 3.1382 10.0373 3.1382C11.9112 3.13898 13.6724 3.87186 14.997 5.20184C16.3215 6.53181 17.0504 8.29981 17.0498 10.1801C17.0482 14.06 13.9012 17.2169 10.0347 17.2169Z" fill="#4824F9"/>
</svg>
