<svg width="20" height="21" viewBox="0 0 20 21" fill="none" xmlns="http://www.w3.org/2000/svg">
<path fill-rule="evenodd" clip-rule="evenodd" d="M8.15282 7.28266C8.01218 6.96893 7.86412 6.96265 7.73032 6.95716C7.62089 6.95245 7.4956 6.95274 7.37052 6.95274C7.24534 6.95274 7.04191 6.99994 6.86989 7.18845C6.69776 7.37696 6.21267 7.83267 6.21267 8.75951C6.21267 9.68645 6.88553 10.5821 6.97932 10.7079C7.07321 10.8335 8.2782 12.7963 10.1866 13.5514C11.7726 14.1789 12.0953 14.0541 12.4396 14.0227C12.7838 13.9913 13.5504 13.5671 13.7069 13.1272C13.8633 12.6873 13.8633 12.3103 13.8164 12.2315C13.7694 12.153 13.6443 12.1059 13.4565 12.0117C13.2687 11.9175 12.3457 11.4617 12.1736 11.3989C12.0014 11.3361 11.8762 11.3047 11.7511 11.4933C11.6259 11.6817 11.2663 12.1059 11.1567 12.2315C11.0472 12.3574 10.9377 12.3731 10.7499 12.2789C10.5621 12.1844 9.95741 11.9857 9.24006 11.3439C8.68192 10.8447 8.30509 10.228 8.19555 10.0394C8.08602 9.85099 8.18381 9.74894 8.278 9.65502C8.3623 9.57062 8.46577 9.43511 8.55966 9.3251C8.65335 9.2151 8.68464 9.13659 8.74724 9.01099C8.80983 8.88518 8.77853 8.77519 8.73159 8.68098C8.68464 8.58678 8.31976 7.65515 8.15282 7.28266Z" fill="white"/>
<path d="M15.3466 5.10589C13.9278 3.68134 12.0412 2.8964 10.0313 2.89551C5.88935 2.89551 2.51869 6.27648 2.51702 10.4322C2.51653 11.7606 2.86245 13.0573 3.51995 14.2003L2.45394 18.1058L6.43732 17.0578C7.53482 17.6584 8.77052 17.9748 10.028 17.9753H10.0312C14.1724 17.9753 17.5436 14.5938 17.5454 10.4383C17.5461 8.42425 16.7651 6.53054 15.3466 5.10589ZM10.0313 16.7024H10.0288C8.90794 16.7018 7.80876 16.3999 6.85003 15.829L6.62186 15.6933L4.25805 16.3152L4.88915 14.0035L4.74049 13.7665C4.11526 12.7691 3.78519 11.6163 3.78568 10.4327C3.78704 6.97861 6.58861 4.16855 10.0336 4.16855C11.7019 4.16924 13.2698 4.82171 14.4491 6.00575C15.6282 7.18979 16.2771 8.76378 16.2766 10.4378C16.2752 13.892 13.4735 16.7024 10.0313 16.7024Z" fill="white"/>
</svg>
