<svg width="20" height="21" viewBox="0 0 20 21" fill="none" xmlns="http://www.w3.org/2000/svg">
<path fill-rule="evenodd" clip-rule="evenodd" d="M8.6116 13.3451L8.61112 8.48394L12.7778 10.9229L8.6116 13.3451ZM18.1667 7.5583C18.1667 7.5583 18.0037 6.40172 17.5042 5.8924C16.8703 5.22363 16.1599 5.22048 15.8344 5.18167C13.5021 5.01172 10.0037 5.01172 10.0037 5.01172H9.99636C9.99636 5.01172 6.49792 5.01172 4.16563 5.18167C3.83959 5.22048 3.12969 5.22363 2.49532 5.8924C1.99584 6.40172 1.83334 7.5583 1.83334 7.5583C1.83334 7.5583 1.66667 8.91683 1.66667 10.2748V11.5484C1.66667 12.9069 1.83334 14.2649 1.83334 14.2649C1.83334 14.2649 1.99584 15.4215 2.49532 15.9308C3.12969 16.5996 3.96251 16.5786 4.33334 16.6484C5.66667 16.7774 10 16.8173 10 16.8173C10 16.8173 13.5021 16.812 15.8344 16.6421C16.1599 16.6027 16.8703 16.5996 17.5042 15.9308C18.0037 15.4215 18.1667 14.2649 18.1667 14.2649C18.1667 14.2649 18.3333 12.9069 18.3333 11.5484V10.2748C18.3333 8.91683 18.1667 7.5583 18.1667 7.5583Z" fill="#4824F9"/>
</svg>
