<svg width="24" height="25" viewBox="0 0 24 25" fill="none" xmlns="http://www.w3.org/2000/svg">
<path fill-rule="evenodd" clip-rule="evenodd" d="M10.3339 15.7051L10.3333 9.87175L15.3333 12.7985L10.3339 15.7051ZM21.8 8.76098C21.8 8.76098 21.6044 7.37308 21.005 6.7619C20.2444 5.95937 19.3919 5.95559 19.0012 5.90901C16.2025 5.70508 12.0044 5.70508 12.0044 5.70508H11.9956C11.9956 5.70508 7.7975 5.70508 4.99875 5.90901C4.6075 5.95559 3.75562 5.95937 2.99437 6.7619C2.395 7.37308 2.2 8.76098 2.2 8.76098C2.2 8.76098 2 10.3912 2 12.0208V13.5491C2 15.1793 2.2 16.8089 2.2 16.8089C2.2 16.8089 2.395 18.1968 2.99437 18.808C3.75562 19.6105 4.755 19.5854 5.2 19.6691C6.8 19.8239 12 19.8717 12 19.8717C12 19.8717 16.2025 19.8655 19.0012 19.6615C19.3919 19.6143 20.2444 19.6105 21.005 18.808C21.6044 18.1968 21.8 16.8089 21.8 16.8089C21.8 16.8089 22 15.1793 22 13.5491V12.0208C22 10.3912 21.8 8.76098 21.8 8.76098Z" fill="#FF0000"/>
</svg>
