<svg width="24" height="25" viewBox="0 0 24 25" fill="none" xmlns="http://www.w3.org/2000/svg">
<path fill-rule="evenodd" clip-rule="evenodd" d="M12.9743 20.0537V23.1137L14.4746 22.1502C15.5774 21.4429 21.1061 17.6396 21.6877 12.2599C21.7218 11.954 21.7423 11.6452 21.7423 11.3325C21.7423 6.49739 17.3719 2.56445 12 2.56445C6.62817 2.56445 2.25781 6.49739 2.25781 11.3325C2.25781 16.4569 7.16205 20.6109 12.9743 20.0537ZM11.137 10.006L11.1373 13.0195L13.72 11.5179L11.137 10.006ZM16.6499 8.39946C16.9596 8.7152 17.0606 9.43218 17.0606 9.43218C17.0606 9.43218 17.164 10.2744 17.164 11.1162V11.9057C17.164 12.7479 17.0606 13.5897 17.0606 13.5897C17.0606 13.5897 16.9596 14.3067 16.6499 14.6224C16.2959 14.9959 15.9034 15.0345 15.6815 15.0563C15.6571 15.0587 15.6348 15.0609 15.6148 15.0634C14.169 15.1687 11.998 15.172 11.998 15.172C11.998 15.172 9.31169 15.1473 8.48514 15.0673C8.44598 15.0599 8.3985 15.0542 8.34474 15.0477C8.08292 15.016 7.67199 14.9664 7.34572 14.6224C7.03609 14.3067 6.93535 13.5897 6.93535 13.5897C6.93535 13.5897 6.83203 12.7479 6.83203 11.9057V11.1162C6.83203 10.2744 6.93535 9.43218 6.93535 9.43218C6.93535 9.43218 7.03609 8.7152 7.34572 8.39946C7.70051 8.02543 8.09341 7.98726 8.3153 7.9657C8.33936 7.96336 8.3614 7.96122 8.38117 7.95887C9.827 7.85352 11.9957 7.85352 11.9957 7.85352H12.0003C12.0003 7.85352 14.169 7.85352 15.6148 7.95887C15.6346 7.96123 15.6566 7.96337 15.6807 7.96571C15.9024 7.98727 16.2955 8.0255 16.6499 8.39946Z" fill="#FF0000"/>
</svg>
